<?xml version="1.0" standalone="no"?>
<!DOCTYPE svg PUBLIC "-//W3C//DTD SVG 1.1//EN" "http://www.w3.org/Graphics/SVG/1.1/DTD/svg11.dtd" >
<svg xmlns="http://www.w3.org/2000/svg" xmlns:xlink="http://www.w3.org/1999/xlink" version="1.1">
<metadata></metadata>
<defs>
<font id="ta_brix_slab_medium_vnregular" horiz-adv-x="560" >
<font-face units-per-em="1000" ascent="800" descent="-200" />
<missing-glyph horiz-adv-x="200" />
<glyph unicode="fi" horiz-adv-x="672" d="M374 0v82h98v292h-275v-292h100v-82h-259v74l66 16v284h-67v82h67v97c0 81 41 153 143 153c26 0 54 -5 68 -10v-81c-18 2 -39 4 -61 4c-43 0 -57 -27 -57 -73v-90h368v-374h92v-82h-283zM514 558c-36 0 -62 17 -62 60s26 62 62 62c31 0 62 -19 62 -62s-31 -60 -62 -60z " />
<glyph unicode="fl" horiz-adv-x="614" d="M423 121v490c-30 8 -62 12 -106 12c-82 0 -120 -34 -120 -102v-59h130v-88h-130v-292h101v-82h-259v74l66 16v284h-67v88h67v63c0 101 55 181 217 181c71 0 135 -13 193 -34v-539c0 -41 12 -56 43 -56c16 0 31 3 44 6l5 -81c-22 -8 -48 -13 -77 -13 c-84 0 -107 53 -107 132z" />
<glyph unicode="ff" horiz-adv-x="697" d="M660 696v-81c-18 2 -39 4 -61 4c-43 0 -57 -27 -57 -73v-90h129v-82h-129v-292h101v-82h-259v74l65 16v284h-252v-292h100v-82h-259v74l66 16v284h-67v82h67v97c0 81 41 153 143 153c26 0 54 -5 68 -10v-81c-18 2 -39 4 -61 4c-43 0 -57 -27 -57 -73v-90h252v97 c0 81 41 153 144 153c26 0 54 -5 67 -10z" />
<glyph unicode=" "  horiz-adv-x="200" />
<glyph unicode="&#x09;" horiz-adv-x="200" />
<glyph unicode="&#xa0;" horiz-adv-x="200" />
<glyph unicode="!" horiz-adv-x="256" d="M167 217h-79l-17 459h115zM129 -6c-39 0 -68 27 -68 64c0 38 29 66 68 66s67 -28 67 -66c0 -37 -28 -64 -67 -64z" />
<glyph unicode="&#x22;" horiz-adv-x="355" d="M224 432l-9 244h92l-11 -244h-72zM59 432l-11 244h95l-12 -244h-72z" />
<glyph unicode="#" horiz-adv-x="641" d="M141 188h-99l11 86h102l21 143h-98l10 86h101l27 173h92l-27 -173h122l27 173h92l-27 -173h104l-11 -86h-106l-22 -143h104l-11 -86h-107l-28 -188h-93l30 188h-122l-29 -188h-93zM268 417l-22 -143h122l22 143h-122z" />
<glyph unicode="$" d="M310 -103h-63v93c-69 3 -134 19 -186 46v171h83l16 -116c21 -10 56 -18 87 -20v226l-32 11c-109 40 -154 93 -153 190c0 81 53 172 185 186v75h63v-74c66 -4 129 -22 175 -44v-163h-82l-17 109c-24 7 -47 13 -76 15v-219l37 -13c116 -40 162 -99 162 -192 c0 -81 -63 -175 -199 -187v-94zM319 272l-9 2v-201c55 10 93 47 93 98c0 48 -33 83 -84 101zM166 502c0 -46 24 -76 81 -97v193c-54 -12 -81 -53 -81 -96z" />
<glyph unicode="%" horiz-adv-x="741" d="M612 676v-11l-412 -665h-72v11l409 665h75zM194 686c108 0 155 -73 155 -160c0 -89 -49 -161 -155 -161s-153 72 -153 161c0 87 49 160 153 160zM194 444c51 0 73 33 73 82c0 48 -22 81 -73 81c-50 0 -72 -33 -72 -81c0 -49 22 -82 72 -82zM546 310 c109 0 155 -73 155 -159c0 -90 -49 -162 -155 -162s-153 72 -153 162c0 86 50 159 153 159zM546 68c51 0 73 33 73 83c0 47 -22 80 -73 80c-50 0 -72 -33 -72 -80c0 -50 22 -83 72 -83z" />
<glyph unicode="&#x26;" horiz-adv-x="638" d="M529 -11c-59 0 -93 28 -108 69c-37 -41 -91 -69 -159 -69c-140 0 -221 80 -221 201c0 96 63 149 128 165c-58 17 -108 57 -108 153s55 178 211 178c56 0 119 -14 165 -36l-29 -83c-37 18 -88 31 -132 31c-79 0 -114 -33 -114 -102c0 -76 51 -105 126 -105h122v94l93 16 v-110h94v-83h-94v-173c0 -35 18 -58 53 -58c19 0 35 6 53 11l3 -84c-19 -7 -52 -15 -83 -15zM271 78c59 0 101 24 139 57v173h-126c-101 0 -139 -42 -139 -117c0 -68 35 -113 126 -113z" />
<glyph unicode="'" horiz-adv-x="190" d="M58 432l-9 244h93l-12 -244h-72z" />
<glyph unicode="(" horiz-adv-x="271" d="M254 -195l-72 -27c-88 133 -142 271 -142 463c0 203 61 332 142 463l74 -28c-67 -131 -116 -267 -116 -435c0 -165 38 -290 114 -436z" />
<glyph unicode=")" horiz-adv-x="271" d="M18 -195c75 146 113 271 113 436c0 168 -49 304 -115 435l73 28c81 -131 142 -260 142 -463c0 -192 -54 -330 -142 -463z" />
<glyph unicode="*" horiz-adv-x="477" d="M140 317l-58 54l96 112l-133 27l24 85l132 -46l-6 147h90l-8 -146l136 40l18 -86l-132 -23l88 -113l-72 -51l-81 124z" />
<glyph unicode="+" d="M43 225v91h187v192h97v-192h189v-91h-189v-194h-97v194h-187z" />
<glyph unicode="," horiz-adv-x="208" d="M164 125l-58 -236h-72l25 236h105z" />
<glyph unicode="-" d="M105 315h350v-91h-350v91z" />
<glyph unicode="." horiz-adv-x="219" d="M109 -6c-39 0 -67 27 -67 64c0 38 28 66 67 66s68 -28 68 -66c0 -37 -29 -64 -68 -64z" />
<glyph unicode="/" horiz-adv-x="373" d="M337 676v-12l-206 -664h-94v13l204 663h96z" />
<glyph unicode="0" horiz-adv-x="610" d="M157 335c0 -174 35 -256 149 -256c112 0 148 83 148 256s-36 262 -151 262c-111 0 -146 -89 -146 -262zM556 335c0 -216 -67 -346 -252 -346s-250 130 -250 346c0 218 67 351 251 351s251 -131 251 -351z" />
<glyph unicode="1" horiz-adv-x="473" d="M55 0v89h166v486l-167 -58l-23 80l202 79h86v-587h141v-89h-405z" />
<glyph unicode="2" horiz-adv-x="539" d="M489 0h-442v76c71 68 164 164 232 235c58 61 91 107 91 177c0 64 -35 110 -109 110c-73 0 -111 -45 -111 -113c0 -10 1 -27 4 -37l-99 -7c-4 13 -5 30 -5 45c0 114 72 200 210 200c147 0 213 -88 213 -198c0 -108 -72 -174 -131 -238c-38 -42 -109 -116 -154 -161h218v80 h83v-169z" />
<glyph unicode="3" horiz-adv-x="535" d="M138 494h-75l-8 130c43 31 111 62 195 62c157 0 212 -90 212 -185c0 -93 -53 -143 -113 -160c69 -14 133 -61 133 -159c0 -117 -79 -193 -237 -193c-88 0 -165 32 -209 72l46 78c38 -34 91 -61 163 -61c97 0 134 43 134 107c0 71 -41 106 -147 106h-73v89h68 c79 0 134 36 134 109c0 68 -35 109 -115 109c-44 0 -78 -11 -108 -27v-77z" />
<glyph unicode="4" d="M534 226v-82h-101v-144h-96v144h-319v74l242 353c39 59 61 105 61 105h112v-450h101zM127 226h210v315z" />
<glyph unicode="5" horiz-adv-x="531" d="M45 46l8 144h81v-89c29 -14 63 -23 106 -23c93 0 141 49 141 137c0 79 -42 129 -133 129c-54 0 -99 -15 -141 -36l-39 11l43 357h352v-89h-272l-23 -183c23 13 65 29 116 29c129 0 200 -84 200 -214c0 -141 -84 -230 -245 -230c-85 0 -150 27 -194 57z" />
<glyph unicode="6" horiz-adv-x="564" d="M330 598c-136 0 -177 -121 -177 -236c0 -4 0 -10 1 -16c19 42 73 91 159 91c134 0 205 -86 205 -218c0 -138 -75 -230 -230 -230c-157 0 -236 118 -236 331c0 210 74 366 279 366c68 0 124 -18 174 -43l-35 -82c-47 24 -87 37 -140 37zM292 78c92 0 127 60 127 136 c0 75 -36 127 -120 127c-74 0 -120 -43 -143 -89c4 -93 38 -174 136 -174z" />
<glyph unicode="7" horiz-adv-x="489" d="M110 0l247 594h-231v-121h-92v203h445l-1 -71c-25 -35 -52 -100 -73 -150l-183 -455h-112z" />
<glyph unicode="8" horiz-adv-x="583" d="M514 501c0 -73 -49 -126 -94 -154c58 -28 110 -75 110 -162c0 -123 -92 -196 -239 -196c-142 0 -236 70 -236 191c0 79 50 137 101 165c-45 26 -84 70 -84 151c0 105 79 190 220 190c149 0 222 -82 222 -185zM341 274l-118 41c-38 -30 -69 -67 -69 -125 c0 -64 45 -114 144 -114c92 0 129 45 129 100c0 52 -31 79 -86 98zM171 504c0 -44 26 -74 78 -93l97 -35c37 24 70 61 70 116c0 59 -36 110 -130 110c-76 0 -115 -41 -115 -98z" />
<glyph unicode="9" horiz-adv-x="563" d="M235 78c138 0 174 111 174 225c0 4 0 11 -1 18c-19 -46 -76 -93 -161 -93c-129 0 -200 89 -200 224c0 136 76 234 229 234c173 0 235 -152 235 -340c0 -214 -74 -357 -277 -357c-66 0 -131 20 -176 49l33 83c44 -27 91 -43 144 -43zM273 597c-92 0 -127 -62 -127 -137 c0 -82 35 -136 120 -136c73 0 117 42 140 90c-3 93 -35 183 -133 183z" />
<glyph unicode=":" horiz-adv-x="249" d="M124 -6c-39 0 -67 27 -67 64c0 38 28 66 67 66s68 -28 68 -66c0 -37 -29 -64 -68 -64zM124 335c-39 0 -67 28 -67 66s28 65 67 65s68 -27 68 -65s-29 -66 -68 -66z" />
<glyph unicode=";" horiz-adv-x="242" d="M130 335c-39 0 -68 28 -68 66s29 65 68 65c38 0 67 -27 67 -65s-29 -66 -67 -66zM186 125l-58 -236h-72l25 236h105z" />
<glyph unicode="&#x3c;" d="M67 217v106l406 164v-94l-324 -124l324 -122v-94z" />
<glyph unicode="=" d="M77 428h406v-91h-406v91zM77 203h406v-91h-406v91z" />
<glyph unicode="&#x3e;" d="M493 323v-106l-406 -164v94l324 122l-324 124v94z" />
<glyph unicode="?" horiz-adv-x="461" d="M129 489h-75l-13 129c41 38 101 68 187 68c124 0 191 -75 191 -163c0 -117 -91 -169 -148 -198v-108h-99v154c82 32 150 71 150 139c0 44 -29 87 -100 87c-39 0 -70 -12 -93 -26v-82zM220 -6c-39 0 -68 27 -68 64c0 38 29 66 68 66s68 -28 68 -66c0 -37 -29 -64 -68 -64z " />
<glyph unicode="@" horiz-adv-x="903" d="M327 227c-18 -98 0 -158 83 -158c49 0 92 24 119 51l39 220c-21 22 -50 46 -100 46c-78 0 -123 -53 -141 -159zM545 65c-30 -38 -87 -76 -154 -76c-143 0 -183 102 -157 246c25 137 98 231 230 231c58 0 92 -24 117 -54l8 44h89l-54 -304c-10 -61 -5 -91 36 -91 c76 0 123 85 123 228c0 165 -89 295 -317 295c-242 0 -336 -169 -336 -350c0 -214 94 -339 329 -339c76 0 139 15 196 36l17 -69c-58 -23 -127 -40 -213 -40c-286 0 -407 164 -407 412c0 229 142 423 414 423c264 0 395 -167 395 -369c0 -177 -79 -299 -215 -299 c-67 0 -93 35 -101 76z" />
<glyph unicode="A" horiz-adv-x="690" d="M433 0v83h84l-44 124h-256l-46 -124h85v-83h-251v83h60l193 510h-59v83h292v-83h-57l191 -510h60v-83h-252zM241 292h209l-105 285z" />
<glyph unicode="B" horiz-adv-x="616" d="M44 0v83h72v510h-72v83h291c138 0 199 -69 199 -176c0 -75 -42 -131 -97 -144c65 -13 129 -76 129 -166c0 -144 -102 -190 -231 -190h-291zM214 83h114c100 0 137 42 137 111c0 63 -32 114 -138 114h-113v-225zM214 390h102c79 0 116 38 116 105c0 59 -29 98 -113 98 h-105v-203z" />
<glyph unicode="C" horiz-adv-x="595" d="M151 340c0 -145 52 -258 187 -258c64 0 127 13 190 50l26 -85c-70 -39 -135 -58 -221 -58c-193 0 -285 132 -285 351c0 204 93 346 294 346c78 0 150 -23 205 -47l-6 -211h-88l-4 146c-33 14 -65 22 -109 22c-136 0 -189 -107 -189 -256z" />
<glyph unicode="D" horiz-adv-x="673" d="M116 83v510h-73v83h238c263 0 341 -110 341 -338c0 -225 -78 -338 -341 -338h-238v83h73zM215 83h80c174 0 227 74 227 257c0 179 -59 253 -227 253h-80v-510z" />
<glyph unicode="E" horiz-adv-x="586" d="M443 189h95v-189h-494v83h72v510h-72v83h491v-184h-92v101h-229v-208h220v-83h-220v-219h229v106z" />
<glyph unicode="F" horiz-adv-x="550" d="M44 0v83h72v510h-72v83h479v-193h-92v110h-217v-235h226v-84h-226v-191h116v-83h-286z" />
<glyph unicode="G" horiz-adv-x="653" d="M359 686c81 0 157 -18 214 -38l-6 -192h-87l-4 123c-39 11 -76 15 -121 15c-146 0 -204 -104 -204 -250c0 -157 58 -265 210 -265c45 0 100 7 141 21v147h-168v84h263v-294c-69 -31 -149 -48 -239 -48c-204 0 -311 129 -311 355c0 196 98 342 312 342z" />
<glyph unicode="H" horiz-adv-x="751" d="M451 593v83h253v-83h-65v-510h65v-83h-253v83h90v226h-330v-226h91v-83h-255v83h66v510h-66v83h255v-83h-91v-197h330v197h-90z" />
<glyph unicode="I" horiz-adv-x="339" d="M40 0v83h82v510h-82v83h258v-83h-78v-510h78v-83h-258z" />
<glyph unicode="J" horiz-adv-x="310" d="M18 593v83h254v-83h-65v-567c0 -115 -45 -196 -140 -253l-60 67c65 43 102 90 102 175v578h-91z" />
<glyph unicode="K" horiz-adv-x="656" d="M233 352l213 241h-73v83h256v-83h-75l-208 -240l222 -270h70v-83h-261v83h75zM214 593v-510h70v-83h-241v83h73v510h-73v83h241v-83h-70z" />
<glyph unicode="L" horiz-adv-x="531" d="M418 217h89v-217h-463v83h71v510h-71v83h251v-83h-82v-510h205v134z" />
<glyph unicode="M" horiz-adv-x="918" d="M458 115l165 561h213v-83h-69l61 -510h72v-83h-251v83h86l-55 485l-172 -568h-105l-164 566l-61 -483h92v-83h-251v83h66l66 510h-69v83h217z" />
<glyph unicode="N" horiz-adv-x="743" d="M441 593v83h268v-83h-69v-593h-111l-317 523v-440h108v-83h-275v83h69v510h-69v83h186l311 -523v440h-101z" />
<glyph unicode="O" horiz-adv-x="654" d="M155 337c0 -153 36 -259 173 -259c135 0 172 106 172 259c0 155 -38 260 -172 260s-173 -105 -173 -260zM606 337c0 -200 -74 -348 -280 -348c-205 0 -278 148 -278 348c0 201 72 350 280 350c206 0 278 -150 278 -350z" />
<glyph unicode="P" horiz-adv-x="588" d="M213 594v-511h122v-83h-291v83h72v510h-72v83h286c164 0 231 -83 231 -209c0 -125 -67 -208 -231 -208h-62v83h66c100 0 125 57 125 125c0 67 -25 127 -125 127h-121z" />
<glyph unicode="Q" horiz-adv-x="673" d="M436 115c18 -16 39 -44 50 -72c-44 -39 -99 -54 -160 -54c-205 0 -278 148 -278 348c0 201 72 350 280 350c206 0 278 -150 278 -350c0 -70 -9 -133 -29 -185c34 -46 61 -97 80 -152h-100c-54 129 -165 252 -333 252c-21 0 -43 -1 -64 -4c14 -104 59 -170 168 -170 c45 0 81 10 108 37zM155 337v-6c22 3 47 5 73 5c101 0 191 -36 264 -95c6 28 8 60 8 96c0 155 -38 260 -172 260s-173 -105 -173 -260z" />
<glyph unicode="R" horiz-adv-x="648" d="M116 83v510h-73v83h296c165 0 232 -68 232 -190c0 -95 -54 -156 -152 -178c64 -47 118 -148 141 -225h80v-83h-251v83h63c-16 66 -74 172 -138 215h-100v-215h74v-83h-244v83h72zM469 485c0 65 -31 108 -130 108h-125v-214h117c101 0 138 41 138 106z" />
<glyph unicode="S" horiz-adv-x="541" d="M473 642v-172h-83l-16 118c-30 10 -62 16 -99 16c-73 0 -112 -48 -112 -102c0 -47 22 -77 81 -98l94 -34c113 -41 158 -99 158 -192c0 -90 -70 -189 -226 -189c-81 0 -155 16 -212 45l-8 181h83l24 -125c26 -12 74 -20 113 -20c72 0 120 41 120 101c0 48 -31 83 -80 101 l-101 36c-107 39 -150 94 -150 190c0 88 62 189 216 189c74 0 148 -21 198 -45z" />
<glyph unicode="T" horiz-adv-x="574" d="M24 676h527v-190h-84v107h-134v-510h94v-83h-287v83h96v510h-129v-107h-83v190z" />
<glyph unicode="U" horiz-adv-x="686" d="M343 -10c-143 0 -250 68 -250 262v341h-67v83h258v-83h-93v-343c0 -127 59 -172 152 -172s153 45 153 172v343h-92v83h256v-83h-67v-341c0 -194 -108 -262 -250 -262z" />
<glyph unicode="V" horiz-adv-x="675" d="M412 593v83h261v-83h-69l-201 -593h-133l-200 593h-65v83h260v-83h-90l163 -499l160 499h-86z" />
<glyph unicode="W" horiz-adv-x="980" d="M696 593v83h277v-83h-67l-154 -593h-121l-141 422l-140 -422h-121l-156 593h-68v83h258v-83h-88l120 -492l149 439l-49 136h113l180 -575l120 492h-112z" />
<glyph unicode="X" horiz-adv-x="657" d="M26 593v83h254v-83h-66l115 -182l112 182h-67v83h253v-83h-74l-169 -244l184 -266h72v-83h-253v83h66l-126 194l-123 -194h70v-83h-254v83h72l178 266l-168 244h-76z" />
<glyph unicode="Y" horiz-adv-x="628" d="M5 593v83h254v-83h-86l142 -243l145 243h-86v83h254v-83h-63l-202 -326v-184h86v-83h-276v83h92v184l-196 326h-64z" />
<glyph unicode="Z" horiz-adv-x="579" d="M526 676v-77l-361 -516h271v151h90v-234h-483v76l361 517h-258v-119h-90v202h470z" />
<glyph unicode="[" horiz-adv-x="312" d="M70 696h220v-83h-121v-746h121v-83h-220v912z" />
<glyph unicode="\" horiz-adv-x="377" d="M35 664v12h97l209 -663v-13h-94z" />
<glyph unicode="]" horiz-adv-x="312" d="M22 696h220v-912h-220v83h121v746h-121v83z" />
<glyph unicode="^" horiz-adv-x="650" d="M78 452l247 247l247 -247l-64 -64l-182 183l-183 -183z" />
<glyph unicode="_" horiz-adv-x="550" d="M75 -31h400v-67h-400v67z" />
<glyph unicode="`" horiz-adv-x="600" d="M213 696h99l75 -159h-87z" />
<glyph unicode="a" horiz-adv-x="489" d="M153 369v-71h-81c-9 19 -14 41 -14 64c0 61 56 104 178 104c142 0 175 -46 175 -171v-188c0 -21 11 -30 27 -30c11 0 22 2 31 4v-81c-19 -4 -41 -6 -61 -6c-52 0 -81 27 -86 69c-25 -35 -77 -74 -152 -74c-89 0 -138 49 -138 130c0 96 85 129 215 141l69 8v101 c-17 8 -53 13 -80 13c-38 0 -58 -4 -83 -13zM132 125c0 -36 20 -57 66 -57c50 0 93 25 118 49v86l-67 -9c-86 -10 -117 -28 -117 -69z" />
<glyph unicode="b" horiz-adv-x="515" d="M160 696v-281c23 26 59 51 122 51c135 0 194 -91 194 -237c0 -144 -65 -240 -194 -240c-68 0 -108 23 -134 51l-46 -40h-35v613h-67v83h160zM378 229c0 86 -24 149 -117 149c-55 0 -86 -25 -101 -45v-206c17 -24 51 -50 101 -50c92 0 117 66 117 152z" />
<glyph unicode="c" horiz-adv-x="460" d="M258 77c51 0 106 15 144 36l24 -78c-46 -26 -111 -46 -178 -46c-150 0 -210 108 -210 240c0 128 69 237 214 237c72 0 130 -21 169 -39l-19 -160h-76v106c-22 8 -43 12 -73 12c-79 0 -114 -64 -114 -149c0 -87 29 -159 119 -159z" />
<glyph unicode="d" horiz-adv-x="540" d="M361 415v198h-91v83h184v-614h67v-82h-71c-51 0 -74 28 -77 65c-23 -31 -70 -76 -144 -76c-127 0 -190 90 -190 240c0 146 64 237 193 237c67 0 106 -25 129 -51zM137 229c0 -86 27 -152 117 -152c48 0 86 25 106 50v206c-15 20 -48 45 -104 45c-91 0 -119 -63 -119 -149 z" />
<glyph unicode="e" horiz-adv-x="469" d="M255 73c51 0 99 16 141 43l31 -74c-44 -30 -108 -53 -173 -53c-154 0 -216 100 -216 239c0 131 67 238 206 238c133 0 187 -96 187 -194c0 -24 -3 -56 -8 -75h-285c1 -77 37 -124 117 -124zM139 270h199c1 6 1 12 1 16c0 64 -39 101 -96 101c-74 0 -100 -52 -104 -117z " />
<glyph unicode="f" horiz-adv-x="352" d="M315 696v-81c-18 2 -39 4 -61 4c-43 0 -57 -27 -57 -73v-90h129v-82h-129v-292h100v-82h-259v74l66 16v284h-67v82h67v97c0 81 41 153 144 153c25 0 53 -5 67 -10z" />
<glyph unicode="g" horiz-adv-x="491" d="M485 404l-89 -20c19 -23 31 -60 31 -99c0 -103 -75 -161 -189 -161c-28 0 -60 4 -78 10l-9 -71h150c98 0 154 -43 154 -124c0 -99 -88 -165 -232 -165c-145 0 -200 49 -200 121c0 53 44 89 78 98c-24 10 -36 36 -36 59c0 43 28 74 52 94c-50 26 -78 77 -78 144 c0 104 66 176 200 176c44 0 94 -14 118 -32c35 50 79 64 123 62zM236 197c73 0 101 36 101 91s-30 95 -101 95c-77 0 -104 -40 -104 -95c0 -52 26 -91 104 -91zM154 -21c-22 -14 -39 -33 -39 -62c0 -42 28 -69 112 -69c75 0 129 26 129 77c0 30 -17 54 -72 54h-130z" />
<glyph unicode="h" horiz-adv-x="564" d="M24 0v82h64v531h-66v83h158v-283c27 26 80 53 149 53c110 0 154 -61 154 -177v-207h63v-82h-228v82h72v198c0 61 -14 98 -92 98c-48 0 -96 -23 -118 -41v-255h71v-82h-227z" />
<glyph unicode="i" horiz-adv-x="330" d="M32 0v82h98v292h-98v82h191v-374h92v-82h-283zM172 520c-32 0 -56 15 -56 54s24 56 56 56c28 0 56 -17 56 -56s-28 -54 -56 -54z" />
<glyph unicode="j" horiz-adv-x="261" d="M71 -226l-53 69c56 29 82 62 82 132v399h-83v82h176v-471c0 -88 -24 -166 -122 -211zM142 520c-32 0 -57 15 -57 54s25 56 57 56c28 0 56 -17 56 -56s-28 -54 -56 -54z" />
<glyph unicode="k" horiz-adv-x="562" d="M354 0v78l-97 140l-75 -63v-73h87v-82h-247v82h67v531h-69v83h162v-464l171 142h-73v82h243v-82h-70l-128 -109l130 -183h87v-82h-188z" />
<glyph unicode="l" horiz-adv-x="257" d="M65 121v492h-78v83h171v-563c0 -41 11 -56 42 -56c16 0 31 3 44 6l5 -81c-21 -8 -48 -13 -77 -13c-84 0 -107 53 -107 132z" />
<glyph unicode="m" horiz-adv-x="808" d="M38 0v82h63v292h-61v82h144v-51c23 32 69 61 129 61c65 0 99 -25 125 -66c28 37 77 66 147 66c105 0 142 -60 142 -170v-214h62v-82h-208v82h53v207c0 57 -16 89 -74 89c-42 0 -78 -19 -98 -41v-255h54v-82h-201v82h55v248c-14 29 -41 48 -83 48c-45 0 -73 -19 -94 -40 v-256h54v-82h-209z" />
<glyph unicode="n" horiz-adv-x="574" d="M38 0v82h63v292h-61v82h144v-52c26 28 74 62 157 62c109 0 153 -61 153 -177v-207h62v-82h-226v82h71v198c0 61 -15 98 -92 98c-47 0 -94 -23 -116 -41v-255h71v-82h-226z" />
<glyph unicode="o" horiz-adv-x="503" d="M253 466c154 0 211 -98 211 -237c0 -141 -57 -240 -215 -240c-151 0 -210 99 -210 238c0 141 57 239 214 239zM252 76c87 0 113 53 113 151c0 101 -27 152 -114 152c-85 0 -114 -51 -114 -150c0 -101 29 -153 115 -153z" />
<glyph unicode="p" horiz-adv-x="535" d="M281 -216h-251v77l57 13v500h-67v82h154v-51c24 32 59 61 129 61c129 0 193 -89 193 -239c0 -147 -61 -238 -193 -238c-64 0 -100 24 -123 51v-174h101v-82zM398 227c0 86 -25 151 -117 151c-50 0 -83 -25 -101 -49v-207c15 -19 46 -45 101 -45c92 0 117 63 117 150z" />
<glyph unicode="q" horiz-adv-x="515" d="M510 -216h-259v82h105v174c-24 -27 -59 -51 -123 -51c-133 0 -194 91 -194 238c0 150 64 239 194 239c65 0 106 -27 136 -55l15 85h65v-625l61 -13v-74zM356 122v207c-18 24 -51 49 -102 49c-92 0 -116 -65 -116 -151c0 -87 25 -150 116 -150c55 0 86 26 102 45z" />
<glyph unicode="r" horiz-adv-x="407" d="M37 374v82h155v-99c16 47 70 109 130 109c23 0 52 -2 71 -6l-8 -109l-78 16c-45 -3 -88 -31 -109 -74v-211h105v-82h-266v74l68 16v284h-68z" />
<glyph unicode="s" horiz-adv-x="435" d="M381 438v-123h-74l-13 69c-21 8 -43 12 -71 12c-50 0 -71 -28 -71 -58c0 -27 12 -44 48 -56l76 -23c79 -25 121 -64 121 -134s-52 -136 -183 -136c-63 0 -117 12 -166 32l-9 132h74l21 -79c20 -10 48 -16 80 -16c46 0 78 20 78 57c0 29 -18 46 -53 58l-80 25 c-70 22 -111 63 -111 130c0 65 43 138 174 138c56 0 119 -12 159 -28z" />
<glyph unicode="t" horiz-adv-x="343" d="M191 374v-235c0 -39 20 -62 57 -62c18 0 49 4 70 10l6 -83c-24 -9 -68 -15 -103 -15c-87 0 -123 58 -123 138v247h-85v72l85 10v113l93 16v-129h117v-82h-117z" />
<glyph unicode="u" horiz-adv-x="566" d="M477 456v-374h69v-82h-145v76c-25 -39 -82 -86 -169 -86c-101 0 -146 59 -146 177v207h-70v82h163v-280c0 -61 15 -98 89 -98c49 0 97 28 117 63v233h-89v82h181z" />
<glyph unicode="v" horiz-adv-x="546" d="M310 374v82h226v-82h-59l-144 -374h-121l-144 374h-58v82h230v-82h-70l104 -288l106 288h-70z" />
<glyph unicode="w" horiz-adv-x="787" d="M545 374v82h231v-82h-57l-113 -374h-109l-101 260l-108 -260h-105l-118 374h-54v82h228v-82h-77l82 -284l107 262l-38 104h98l135 -365l77 283h-78z" />
<glyph unicode="x" horiz-adv-x="559" d="M258 193l-83 -111h82v-82h-228v82h58l123 153l-107 139h-71v82h189v-78l80 -105l76 101h-81v82h227v-82h-62l-114 -145l121 -147h65v-82h-187v78z" />
<glyph unicode="y" horiz-adv-x="572" d="M66 -210v71h121l65 146l-160 367h-84v82h185v-80l105 -263l111 261h-109v82h263v-82h-60l-219 -511c-30 -69 -74 -89 -126 -89c-37 0 -70 6 -92 16z" />
<glyph unicode="z" horiz-adv-x="451" d="M402 456v-66l-243 -317h171l10 89h70v-162h-373v66l244 318h-152l-9 -81h-72v153h354z" />
<glyph unicode="{" horiz-adv-x="299" d="M204 547v-196c0 -88 -64 -105 -90 -111c27 -5 90 -30 90 -110v-207c0 -56 22 -62 64 -63v-76c-113 0 -163 35 -163 139v198c0 66 -50 81 -91 81v76c44 0 91 18 91 82v197c0 103 50 139 163 139v-76c-42 -1 -64 -13 -64 -73z" />
<glyph unicode="|" horiz-adv-x="204" d="M133 -216h-63v912h63v-912z" />
<glyph unicode="}" horiz-adv-x="299" d="M95 351v196c0 60 -23 72 -64 73v76c113 0 162 -36 162 -139v-197c0 -64 47 -82 92 -82v-76c-41 0 -92 -15 -92 -81v-198c0 -104 -49 -139 -162 -139v76c41 1 64 7 64 63v207c0 80 63 105 90 110c-26 6 -90 23 -90 111z" />
<glyph unicode="~" horiz-adv-x="463" d="M412 317l-6 -93c-25 19 -55 34 -85 34c-57 0 -112 -68 -184 -68c-36 0 -69 18 -85 31l4 94c22 -18 45 -34 78 -34c62 0 106 68 187 68c41 0 72 -18 91 -32z" />
<glyph unicode="&#xc0;" horiz-adv-x="690" d="M433 0v83h84l-44 124h-256l-46 -124h85v-83h-251v83h60l193 510h-59v83h292v-83h-57l191 -510h60v-83h-252zM241 292h209l-105 285zM235 870h84l64 -135h-74z" />
<glyph unicode="&#xc1;" horiz-adv-x="690" d="M433 0v83h84l-44 124h-256l-46 -124h85v-83h-251v83h60l193 510h-59v83h292v-83h-57l191 -510h60v-83h-252zM241 292h209l-105 285zM365 870h84l-74 -135h-74z" />
<glyph unicode="&#xc2;" horiz-adv-x="690" d="M433 0v83h84l-44 124h-256l-46 -124h85v-83h-251v83h60l193 510h-59v83h292v-83h-57l191 -510h60v-83h-252zM241 292h209l-105 285zM294 860h102l76 -135h-74l-53 92l-54 -92h-73z" />
<glyph unicode="&#xc3;" horiz-adv-x="690" d="M433 0v83h84l-44 124h-256l-46 -124h85v-83h-251v83h60l193 510h-59v83h292v-83h-57l191 -510h60v-83h-252zM241 292h209l-105 285zM238 740l-3 53c12 8 28 32 55 32c50 0 73 -40 112 -40c21 0 37 22 49 35l3 -52c-10 -9 -30 -33 -52 -33c-44 0 -74 40 -112 40 c-19 0 -37 -23 -52 -35z" />
<glyph unicode="&#xc4;" horiz-adv-x="690" d="M433 0v83h84l-44 124h-256l-46 -124h85v-83h-251v83h60l193 510h-59v83h292v-83h-57l191 -510h60v-83h-252zM241 292h209l-105 285zM251 752c-36 0 -62 17 -62 60s26 62 62 62c31 0 62 -19 62 -62s-31 -60 -62 -60zM439 752c-36 0 -62 17 -62 60s26 62 62 62 c31 0 62 -19 62 -62s-31 -60 -62 -60z" />
<glyph unicode="&#x100;" horiz-adv-x="690" d="M433 0v83h84l-44 124h-256l-46 -124h85v-83h-251v83h60l193 510h-59v83h292v-83h-57l191 -510h60v-83h-252zM241 292h209l-105 285zM201 850h288v-79h-288v79z" />
<glyph unicode="&#x102;" horiz-adv-x="690" d="M433 0v83h84l-44 124h-256l-46 -124h85v-83h-251v83h60l193 510h-59v83h292v-83h-57l191 -510h60v-83h-252zM241 292h209l-105 285zM410 847h56c0 -69 -44 -122 -123 -122c-76 0 -120 53 -120 122h54c3 -36 28 -62 66 -62c39 0 64 26 67 62z" />
<glyph unicode="&#xc5;" horiz-adv-x="690" d="M433 0v83h84l-44 124h-256l-46 -124h85v-83h-251v83h60l193 510h-59v83h292v-83h-57l191 -510h60v-83h-252zM241 292h209l-105 285zM238 811c0 53 38 97 105 97c70 0 108 -44 108 -97c0 -51 -38 -96 -108 -96c-67 0 -105 45 -105 96zM296 811c0 -25 17 -44 47 -44 c32 0 49 19 49 44s-17 46 -49 46c-30 0 -47 -21 -47 -46z" />
<glyph unicode="&#x1fa;" horiz-adv-x="690" d="M238 811c0 44 27 82 74 92l53 83h99l-67 -90c35 -16 54 -48 54 -85c0 -50 -38 -96 -108 -96c-67 0 -105 46 -105 96zM296 811c0 -25 17 -44 47 -44c32 0 49 19 49 44s-17 46 -49 46c-30 0 -47 -21 -47 -46zM433 0v83h84l-44 124h-256l-46 -124h85v-83h-251v83h60l193 510 h-59v83h292v-83h-57l191 -510h60v-83h-252zM241 292h209l-105 285z" />
<glyph unicode="&#x104;" horiz-adv-x="690" d="M433 0v83h84l-44 124h-256l-46 -124h85v-83h-251v83h60l193 510h-59v83h292v-83h-57l191 -510h60v-83h-67l-82 -53c-16 -12 -25 -22 -28 -35c-2 -8 -2 -15 1 -21c3 -12 15 -17 29 -17c29 0 49 11 58 16l4 -68c-12 -6 -43 -19 -79 -19c-69 0 -111 29 -111 82 c0 35 19 63 54 84l52 31h-83zM241 292h209l-105 285z" />
<glyph unicode="&#xc6;" horiz-adv-x="982" d="M307 292h205v285zM361 676h570v-184h-92v101h-229v-208h220v-83h-220v-219h233v106h91v-189h-506v83h84v124h-257l-89 -124h84v-83h-254v83h61l362 510h-58v83z" />
<glyph unicode="&#x1fc;" horiz-adv-x="982" d="M656 900h99l-87 -159h-87zM307 292h205v285zM361 676h570v-184h-92v101h-229v-208h220v-83h-220v-219h233v106h91v-189h-506v83h84v124h-257l-89 -124h84v-83h-254v83h61l362 510h-58v83z" />
<glyph unicode="&#x106;" horiz-adv-x="595" d="M151 340c0 -145 52 -258 187 -258c64 0 127 13 190 50l26 -85c-70 -39 -135 -58 -221 -58c-193 0 -285 132 -285 351c0 204 93 346 294 346c78 0 150 -23 205 -47l-6 -211h-88l-4 146c-33 14 -65 22 -109 22c-136 0 -189 -107 -189 -256zM360 900h99l-87 -159h-87z" />
<glyph unicode="&#x108;" horiz-adv-x="595" d="M151 340c0 -145 52 -258 187 -258c64 0 127 13 190 50l26 -85c-70 -39 -135 -58 -221 -58c-193 0 -285 132 -285 351c0 204 93 346 294 346c78 0 150 -23 205 -47l-6 -211h-88l-4 146c-33 14 -65 22 -109 22c-136 0 -189 -107 -189 -256zM271 900h120l89 -159h-87 l-62 108l-63 -108h-86z" />
<glyph unicode="&#x10c;" horiz-adv-x="595" d="M151 340c0 -145 52 -258 187 -258c64 0 127 13 190 50l26 -85c-70 -39 -135 -58 -221 -58c-193 0 -285 132 -285 351c0 204 93 346 294 346c78 0 150 -23 205 -47l-6 -211h-88l-4 146c-33 14 -65 22 -109 22c-136 0 -189 -107 -189 -256zM390 741h-120l-89 159h86 l63 -108l62 108h87z" />
<glyph unicode="&#x10a;" horiz-adv-x="595" d="M151 340c0 -145 52 -258 187 -258c64 0 127 13 190 50l26 -85c-70 -39 -135 -58 -221 -58c-193 0 -285 132 -285 351c0 204 93 346 294 346c78 0 150 -23 205 -47l-6 -211h-88l-4 146c-33 14 -65 22 -109 22c-136 0 -189 -107 -189 -256zM335 752c-36 0 -62 17 -62 60 s26 62 62 62c31 0 62 -19 62 -62s-31 -60 -62 -60z" />
<glyph unicode="&#xc7;" horiz-adv-x="595" d="M151 340c0 -145 52 -258 187 -258c64 0 127 13 190 50l26 -85c-62 -35 -120 -53 -193 -57l-18 -47c6 2 15 4 30 4c37 0 72 -26 72 -69c0 -46 -35 -77 -107 -77c-31 0 -64 8 -100 23l10 47c32 -17 59 -25 85 -25c27 0 41 12 41 33c0 17 -13 31 -34 31c-14 0 -23 -5 -28 -8 c0 0 -23 9 -35 14l28 74c-175 11 -257 141 -257 350c0 204 93 346 294 346c78 0 150 -23 205 -47l-6 -211h-88l-4 146c-33 14 -65 22 -109 22c-136 0 -189 -107 -189 -256z" />
<glyph unicode="&#x10e;" horiz-adv-x="673" d="M116 83v510h-73v83h238c263 0 341 -110 341 -338c0 -225 -78 -338 -341 -338h-238v83h73zM215 83h80c174 0 227 74 227 257c0 179 -59 253 -227 253h-80v-510zM367 741h-120l-89 159h86l63 -108l62 108h87z" />
<glyph unicode="&#x110;" horiz-adv-x="686" d="M55 373h74v220h-73v83h238c263 0 340 -110 340 -338c0 -225 -77 -338 -340 -338h-238v83h73v228h-74v62zM227 83h81c174 0 226 74 226 257c0 179 -58 253 -226 253h-81v-220h158v-62h-158v-228z" />
<glyph unicode="&#xd0;" horiz-adv-x="686" d="M55 373h74v220h-73v83h238c263 0 340 -110 340 -338c0 -225 -77 -338 -340 -338h-238v83h73v228h-74v62zM227 83h81c174 0 226 74 226 257c0 179 -58 253 -226 253h-81v-220h158v-62h-158v-228z" />
<glyph unicode="&#xc8;" horiz-adv-x="586" d="M443 189h95v-189h-494v83h72v510h-72v83h491v-184h-92v101h-229v-208h220v-83h-220v-219h229v106zM193 870h84l64 -135h-74z" />
<glyph unicode="&#xc9;" horiz-adv-x="586" d="M443 189h95v-189h-494v83h72v510h-72v83h491v-184h-92v101h-229v-208h220v-83h-220v-219h229v106zM321 870h84l-74 -135h-74z" />
<glyph unicode="&#xca;" horiz-adv-x="586" d="M443 189h95v-189h-494v83h72v510h-72v83h491v-184h-92v101h-229v-208h220v-83h-220v-219h229v106zM256 860h102l76 -135h-74l-53 92l-54 -92h-73z" />
<glyph unicode="&#x11a;" horiz-adv-x="586" d="M443 189h95v-189h-494v83h72v510h-72v83h491v-184h-92v101h-229v-208h220v-83h-220v-219h229v106zM366 741h-120l-89 159h86l63 -108l62 108h87z" />
<glyph unicode="&#xcb;" horiz-adv-x="586" d="M443 189h95v-189h-494v83h72v510h-72v83h491v-184h-92v101h-229v-208h220v-83h-220v-219h229v106zM212 752c-36 0 -62 17 -62 60s26 62 62 62c31 0 62 -19 62 -62s-31 -60 -62 -60zM400 752c-36 0 -62 17 -62 60s26 62 62 62c31 0 62 -19 62 -62s-31 -60 -62 -60z" />
<glyph unicode="&#x112;" horiz-adv-x="586" d="M443 189h95v-189h-494v83h72v510h-72v83h491v-184h-92v101h-229v-208h220v-83h-220v-219h229v106zM163 850h288v-79h-288v79z" />
<glyph unicode="&#x114;" horiz-adv-x="586" d="M443 189h95v-189h-494v83h72v510h-72v83h491v-184h-92v101h-229v-208h220v-83h-220v-219h229v106zM385 889h66c0 -81 -52 -144 -145 -144c-90 0 -142 63 -142 144h64c4 -42 33 -73 78 -73c46 0 75 31 79 73z" />
<glyph unicode="&#x116;" horiz-adv-x="586" d="M443 189h95v-189h-494v83h72v510h-72v83h491v-184h-92v101h-229v-208h220v-83h-220v-219h229v106zM311 752c-36 0 -62 17 -62 60s26 62 62 62c31 0 62 -19 62 -62s-31 -60 -62 -60z" />
<glyph unicode="&#x118;" horiz-adv-x="586" d="M447 189h91v-189l-82 -53c-22 -15 -31 -28 -31 -45s14 -28 33 -28c29 0 49 11 58 16l5 -68c-12 -6 -43 -19 -80 -19c-69 0 -111 29 -111 82c0 35 19 63 55 84l52 31h-393v83h72v510h-72v83h491v-184h-92v101h-229v-208h220v-83h-220v-219h233v106z" />
<glyph unicode="&#x11c;" horiz-adv-x="653" d="M359 686c81 0 157 -18 214 -38l-6 -192h-87l-4 123c-39 11 -76 15 -121 15c-146 0 -204 -104 -204 -250c0 -157 58 -265 210 -265c45 0 100 7 141 21v147h-168v84h263v-294c-69 -31 -149 -48 -239 -48c-204 0 -311 129 -311 355c0 196 98 342 312 342zM294 900h120 l89 -159h-87l-62 108l-63 -108h-86z" />
<glyph unicode="&#x11e;" horiz-adv-x="653" d="M359 686c81 0 157 -18 214 -38l-6 -192h-87l-4 123c-39 11 -76 15 -121 15c-146 0 -204 -104 -204 -250c0 -157 58 -265 210 -265c45 0 100 7 141 21v147h-168v84h263v-294c-69 -31 -149 -48 -239 -48c-204 0 -311 129 -311 355c0 196 98 342 312 342zM435 889h66 c0 -81 -52 -144 -145 -144c-90 0 -142 63 -142 144h64c4 -42 33 -73 78 -73c46 0 75 31 79 73z" />
<glyph unicode="&#x120;" horiz-adv-x="653" d="M359 686c81 0 157 -18 214 -38l-6 -192h-87l-4 123c-39 11 -76 15 -121 15c-146 0 -204 -104 -204 -250c0 -157 58 -265 210 -265c45 0 100 7 141 21v147h-168v84h263v-294c-69 -31 -149 -48 -239 -48c-204 0 -311 129 -311 355c0 196 98 342 312 342zM361 752 c-36 0 -62 17 -62 60s26 62 62 62c31 0 62 -19 62 -62s-31 -60 -62 -60z" />
<glyph unicode="&#x122;" horiz-adv-x="654" d="M359 686c81 0 157 -18 214 -38l-6 -192h-87l-4 123c-39 11 -76 15 -121 15c-146 0 -204 -104 -204 -250c0 -157 58 -265 210 -265c45 0 100 7 141 21v147h-168v84h263v-294c-69 -31 -149 -48 -239 -48c-204 0 -311 129 -311 355c0 196 98 342 312 342zM414 -66l-58 -150 h-72l25 150h105z" />
<glyph unicode="&#x124;" horiz-adv-x="751" d="M451 593v83h253v-83h-65v-510h65v-83h-253v83h90v226h-330v-226h91v-83h-255v83h66v510h-66v83h255v-83h-91v-197h330v197h-90zM316 900h120l89 -159h-87l-62 108l-63 -108h-86z" />
<glyph unicode="&#x126;" horiz-adv-x="751" d="M451 593v83h253v-83h-65v-74h65v-60h-65v-376h65v-83h-253v83h90v226h-330v-226h91v-83h-255v83h66v376h-67v60h67v74h-66v83h255v-83h-91v-74h330v74h-90zM211 396h330v63h-330v-63z" />
<glyph unicode="&#xcc;" horiz-adv-x="339" d="M40 0v83h82v510h-82v83h258v-83h-78v-510h78v-83h-258zM63 870h84l64 -135h-74z" />
<glyph unicode="&#xcd;" horiz-adv-x="339" d="M40 0v83h82v510h-82v83h258v-83h-78v-510h78v-83h-258zM195 870h84l-74 -135h-74z" />
<glyph unicode="&#x12c;" horiz-adv-x="339" d="M40 0v83h82v510h-82v83h258v-83h-78v-510h78v-83h-258zM247 889h66c0 -81 -52 -144 -145 -144c-90 0 -142 63 -142 144h64c4 -42 33 -73 78 -73c46 0 75 31 79 73z" />
<glyph unicode="&#xce;" horiz-adv-x="339" d="M40 0v83h82v510h-82v83h258v-83h-78v-510h78v-83h-258zM109 900h120l89 -159h-87l-62 108l-63 -108h-86z" />
<glyph unicode="&#x128;" horiz-adv-x="339" d="M40 0v83h82v510h-82v83h258v-83h-78v-510h78v-83h-258zM71 740l-3 53c12 8 28 32 55 32c50 0 73 -40 112 -40c21 0 37 22 49 35l3 -52c-10 -9 -30 -33 -52 -33c-44 0 -74 40 -112 40c-19 0 -37 -23 -52 -35z" />
<glyph unicode="&#xcf;" horiz-adv-x="339" d="M40 0v83h82v510h-82v83h258v-83h-78v-510h78v-83h-258zM76 752c-36 0 -62 17 -62 60s26 62 62 62c31 0 62 -19 62 -62s-31 -60 -62 -60zM264 752c-36 0 -62 17 -62 60s26 62 62 62c31 0 62 -19 62 -62s-31 -60 -62 -60z" />
<glyph unicode="&#x12a;" horiz-adv-x="339" d="M40 0v83h82v510h-82v83h258v-83h-78v-510h78v-83h-258zM26 850h288v-79h-288v79z" />
<glyph unicode="&#x130;" horiz-adv-x="339" d="M40 0v83h82v510h-82v83h258v-83h-78v-510h78v-83h-258zM170 752c-36 0 -62 17 -62 60s26 62 62 62c31 0 62 -19 62 -62s-31 -60 -62 -60z" />
<glyph unicode="&#x12e;" horiz-adv-x="339" d="M40 0v83h82v510h-82v83h258v-83h-78v-510h78v-83h-80l-82 -53c-22 -15 -31 -28 -31 -45s13 -28 33 -28c29 0 49 11 58 16l4 -68c-12 -6 -43 -19 -79 -19c-69 0 -111 29 -111 82c0 35 19 63 54 84l52 31h-76z" />
<glyph unicode="&#x134;" horiz-adv-x="310" d="M18 593v83h254v-83h-65v-567c0 -115 -45 -196 -140 -253l-60 67c65 43 102 90 102 175v578h-91zM86 900h120l89 -159h-87l-62 108l-63 -108h-86z" />
<glyph unicode="&#x136;" horiz-adv-x="656" d="M233 352l213 241h-73v83h256v-83h-75l-208 -240l222 -270h70v-83h-261v83h75zM214 593v-510h70v-83h-241v83h73v510h-73v83h241v-83h-70zM395 -66l-58 -150h-72l25 150h105z" />
<glyph unicode="&#x139;" horiz-adv-x="531" d="M418 217h89v-217h-463v83h71v510h-71v83h251v-83h-82v-510h205v134zM194 900h99l-87 -159h-87z" />
<glyph unicode="&#x13d;" horiz-adv-x="537" d="M418 217h89v-217h-463v83h71v510h-71v83h251v-83h-82v-510h205v134zM520 676l-58 -150h-72l25 150h105z" />
<glyph unicode="&#x13b;" horiz-adv-x="531" d="M418 217h89v-217h-463v83h71v510h-71v83h251v-83h-82v-510h205v134zM323 -66l-58 -150h-72l25 150h105z" />
<glyph unicode="&#x141;" horiz-adv-x="537" d="M424 217h89v-217h-463v83h71v177l-73 -29v61l73 30v271h-71v83h251v-83h-81v-232l80 33v-61l-80 -33v-217h204v134z" />
<glyph unicode="&#x13f;" horiz-adv-x="531" d="M418 217h89v-217h-463v83h71v510h-71v83h251v-83h-82v-510h205v134zM390 309c-39 0 -67 27 -67 64c0 38 28 66 67 66s68 -28 68 -66c0 -37 -29 -64 -68 -64z" />
<glyph unicode="&#x143;" horiz-adv-x="743" d="M441 593v83h268v-83h-69v-593h-111l-317 523v-440h108v-83h-275v83h69v510h-69v83h186l311 -523v440h-101zM395 900h99l-87 -159h-87z" />
<glyph unicode="&#x147;" horiz-adv-x="743" d="M441 593v83h268v-83h-69v-593h-111l-317 523v-440h108v-83h-275v83h69v510h-69v83h186l311 -523v440h-101zM436 741h-120l-89 159h86l63 -108l62 108h87z" />
<glyph unicode="&#xd1;" horiz-adv-x="743" d="M441 593v83h268v-83h-69v-593h-111l-317 523v-440h108v-83h-275v83h69v510h-69v83h186l311 -523v440h-101zM519 846l-4 -74c-20 15 -44 25 -68 25c-50 0 -88 -38 -146 -38c-30 0 -56 12 -69 23l4 73c17 -16 37 -24 65 -24c50 0 81 38 146 38c35 0 56 -13 72 -23z" />
<glyph unicode="&#x145;" horiz-adv-x="744" d="M441 593v83h268v-83h-69v-593h-111l-317 523v-440h108v-83h-275v83h69v510h-69v83h186l311 -523v440h-101zM425 -66l-58 -150h-72l25 150h105z" />
<glyph unicode="&#xd2;" horiz-adv-x="654" d="M155 337c0 -153 36 -259 173 -259c135 0 172 106 172 259c0 155 -38 260 -172 260s-173 -105 -173 -260zM606 337c0 -200 -74 -348 -280 -348c-205 0 -278 148 -278 348c0 201 72 350 280 350c206 0 278 -150 278 -350zM222 870h84l64 -135h-74z" />
<glyph unicode="&#xd3;" horiz-adv-x="654" d="M155 337c0 -153 36 -259 173 -259c135 0 172 106 172 259c0 155 -38 260 -172 260s-173 -105 -173 -260zM606 337c0 -200 -74 -348 -280 -348c-205 0 -278 148 -278 348c0 201 72 350 280 350c206 0 278 -150 278 -350zM352 870h84l-74 -135h-74z" />
<glyph unicode="&#xd4;" horiz-adv-x="654" d="M155 337c0 -153 36 -259 173 -259c135 0 172 106 172 259c0 155 -38 260 -172 260s-173 -105 -173 -260zM606 337c0 -200 -74 -348 -280 -348c-205 0 -278 148 -278 348c0 201 72 350 280 350c206 0 278 -150 278 -350zM276 860h102l76 -135h-74l-53 92l-54 -92h-73z" />
<glyph unicode="&#xd5;" horiz-adv-x="654" d="M155 337c0 -153 36 -259 173 -259c135 0 172 106 172 259c0 155 -38 260 -172 260s-173 -105 -173 -260zM606 337c0 -200 -74 -348 -280 -348c-205 0 -278 148 -278 348c0 201 72 350 280 350c206 0 278 -150 278 -350zM228 740l-3 53c12 8 28 32 55 32 c50 0 73 -40 112 -40c21 0 37 22 49 35l3 -52c-10 -9 -30 -33 -52 -33c-44 0 -74 40 -112 40c-19 0 -37 -23 -52 -35z" />
<glyph unicode="&#xd6;" horiz-adv-x="654" d="M155 337c0 -153 36 -259 173 -259c135 0 172 106 172 259c0 155 -38 260 -172 260s-173 -105 -173 -260zM606 337c0 -200 -74 -348 -280 -348c-205 0 -278 148 -278 348c0 201 72 350 280 350c206 0 278 -150 278 -350zM233 752c-36 0 -62 17 -62 60s26 62 62 62 c31 0 62 -19 62 -62s-31 -60 -62 -60zM421 752c-36 0 -62 17 -62 60s26 62 62 62c31 0 62 -19 62 -62s-31 -60 -62 -60z" />
<glyph unicode="&#x14c;" horiz-adv-x="654" d="M155 337c0 -153 36 -259 173 -259c135 0 172 106 172 259c0 155 -38 260 -172 260s-173 -105 -173 -260zM606 337c0 -200 -74 -348 -280 -348c-205 0 -278 148 -278 348c0 201 72 350 280 350c206 0 278 -150 278 -350zM183 850h288v-79h-288v79z" />
<glyph unicode="&#x14e;" horiz-adv-x="654" d="M155 337c0 -153 36 -259 173 -259c135 0 172 106 172 259c0 155 -38 260 -172 260s-173 -105 -173 -260zM606 337c0 -200 -74 -348 -280 -348c-205 0 -278 148 -278 348c0 201 72 350 280 350c206 0 278 -150 278 -350zM405 889h66c0 -81 -52 -144 -145 -144 c-90 0 -142 63 -142 144h64c4 -42 33 -73 78 -73c46 0 75 31 79 73z" />
<glyph unicode="&#x150;" horiz-adv-x="654" d="M155 337c0 -153 36 -259 173 -259c135 0 172 106 172 259c0 155 -38 260 -172 260s-173 -105 -173 -260zM606 337c0 -200 -74 -348 -280 -348c-205 0 -278 148 -278 348c0 201 72 350 280 350c206 0 278 -150 278 -350zM272 900h99l-87 -159h-87zM438 900h99l-87 -159 h-87z" />
<glyph unicode="&#xd8;" horiz-adv-x="654" d="M606 337c0 -200 -74 -348 -280 -348c-40 0 -75 7 -105 17l-19 -44h-75v13l27 66c-76 60 -106 167 -106 296c0 201 72 350 280 350c36 0 68 -6 96 -15l14 34h79v-12l-24 -55c81 -59 113 -170 113 -302zM500 337c0 87 -13 157 -50 202l-193 -449c20 -8 43 -12 71 -12 c135 0 172 106 172 259zM155 337c0 -82 11 -148 44 -193l189 443c-17 7 -38 10 -60 10c-134 0 -173 -105 -173 -260z" />
<glyph unicode="&#x1fe;" horiz-adv-x="654" d="M606 337c0 -200 -74 -348 -280 -348c-40 0 -75 7 -105 17l-19 -44h-75v13l27 66c-76 60 -106 167 -106 296c0 201 72 350 280 350c36 0 68 -6 96 -15l14 34h79v-12l-24 -55c81 -59 113 -170 113 -302zM500 337c0 87 -13 157 -50 202l-193 -449c20 -8 43 -12 71 -12 c135 0 172 106 172 259zM155 337c0 -82 11 -148 44 -193l189 443c-17 7 -38 10 -60 10c-134 0 -173 -105 -173 -260zM350 900h99l-87 -159h-86z" />
<glyph unicode="&#x152;" horiz-adv-x="888" d="M749 189h91v-189h-414c-22 -6 -66 -11 -99 -11c-211 0 -278 148 -278 348c0 201 66 350 280 350c33 0 77 -6 99 -11h408v-184h-91v101h-229v-208h219v-83h-219v-219h233v106zM156 337c0 -157 36 -259 173 -259c33 0 66 4 89 14v490c-22 9 -53 15 -89 15 c-134 0 -173 -101 -173 -260z" />
<glyph unicode="&#x154;" horiz-adv-x="648" d="M116 83v510h-73v83h296c165 0 232 -68 232 -190c0 -95 -54 -156 -152 -178c64 -47 118 -148 141 -225h80v-83h-251v83h63c-16 66 -74 172 -138 215h-100v-215h74v-83h-244v83h72zM469 485c0 65 -31 108 -130 108h-125v-214h117c101 0 138 41 138 106zM311 900h99 l-87 -159h-87z" />
<glyph unicode="&#x158;" horiz-adv-x="648" d="M116 83v510h-73v83h296c165 0 232 -68 232 -190c0 -95 -54 -156 -152 -178c64 -47 118 -148 141 -225h80v-83h-251v83h63c-16 66 -74 172 -138 215h-100v-215h74v-83h-244v83h72zM469 485c0 65 -31 108 -130 108h-125v-214h117c101 0 138 41 138 106zM354 741h-120 l-89 159h86l63 -108l62 108h87z" />
<glyph unicode="&#x156;" horiz-adv-x="648" d="M116 83v510h-73v83h296c165 0 232 -68 232 -190c0 -95 -54 -156 -152 -178c64 -47 118 -148 141 -225h80v-83h-251v83h63c-16 66 -74 172 -138 215h-100v-215h74v-83h-244v83h72zM469 485c0 65 -31 108 -130 108h-125v-214h117c101 0 138 41 138 106zM383 -66l-58 -150 h-72l25 150h105z" />
<glyph unicode="&#x15a;" horiz-adv-x="541" d="M473 642v-172h-83l-16 118c-30 10 -62 16 -99 16c-73 0 -112 -48 -112 -102c0 -47 22 -77 81 -98l94 -34c113 -41 158 -99 158 -192c0 -90 -70 -189 -226 -189c-81 0 -155 16 -212 45l-8 181h83l24 -125c26 -12 74 -20 113 -20c72 0 120 41 120 101c0 48 -31 83 -80 101 l-101 36c-107 39 -150 94 -150 190c0 88 62 189 216 189c74 0 148 -21 198 -45zM290 900h99l-87 -159h-87z" />
<glyph unicode="&#x15c;" horiz-adv-x="541" d="M473 642v-172h-83l-16 118c-30 10 -62 16 -99 16c-73 0 -112 -48 -112 -102c0 -47 22 -77 81 -98l94 -34c113 -41 158 -99 158 -192c0 -90 -70 -189 -226 -189c-81 0 -155 16 -212 45l-8 181h83l24 -125c26 -12 74 -20 113 -20c72 0 120 41 120 101c0 48 -31 83 -80 101 l-101 36c-107 39 -150 94 -150 190c0 88 62 189 216 189c74 0 148 -21 198 -45zM212 900h120l89 -159h-87l-62 108l-63 -108h-86z" />
<glyph unicode="&#x160;" horiz-adv-x="541" d="M473 642v-172h-83l-16 118c-30 10 -62 16 -99 16c-73 0 -112 -48 -112 -102c0 -47 22 -77 81 -98l94 -34c113 -41 158 -99 158 -192c0 -90 -70 -189 -226 -189c-81 0 -155 16 -212 45l-8 181h83l24 -125c26 -12 74 -20 113 -20c72 0 120 41 120 101c0 48 -31 83 -80 101 l-101 36c-107 39 -150 94 -150 190c0 88 62 189 216 189c74 0 148 -21 198 -45zM334 741h-120l-89 159h86l63 -108l62 108h87z" />
<glyph unicode="&#x15e;" horiz-adv-x="540" d="M473 642v-172h-83l-16 118c-30 10 -62 16 -99 16c-74 0 -112 -48 -112 -102c0 -47 22 -77 80 -98l94 -34c114 -40 159 -99 159 -192c0 -86 -64 -179 -205 -188l-18 -47c5 2 15 4 30 4c37 0 72 -26 72 -69c0 -46 -35 -77 -107 -77c-32 0 -65 8 -100 23l10 47 c32 -17 59 -25 85 -25c27 0 41 12 41 33c0 17 -13 31 -34 31c-14 0 -23 -5 -28 -8c0 0 -24 9 -36 14l28 75c-66 3 -127 18 -176 43l-9 181h83l25 -125c26 -12 74 -20 112 -20c73 0 121 41 121 101c0 48 -32 83 -80 101l-102 36c-107 39 -150 94 -150 190 c0 88 63 189 217 189c74 0 147 -21 198 -45z" />
<glyph unicode="&#x218;" horiz-adv-x="540" d="M473 642v-172h-83l-16 118c-30 10 -62 16 -99 16c-73 0 -112 -48 -112 -102c0 -47 22 -77 81 -98l94 -34c113 -41 158 -99 158 -192c0 -90 -70 -189 -226 -189c-81 0 -155 16 -212 45l-8 181h83l24 -125c26 -12 74 -20 113 -20c72 0 120 41 120 101c0 48 -31 83 -80 101 l-101 36c-107 39 -150 94 -150 190c0 88 62 189 216 189c74 0 148 -21 198 -45zM337 -66l-58 -150h-72l25 150h105z" />
<glyph unicode="&#x164;" horiz-adv-x="574" d="M24 676h527v-190h-84v107h-134v-510h94v-83h-287v83h96v510h-129v-107h-83v190zM348 741h-120l-89 159h86l63 -108l62 108h87z" />
<glyph unicode="&#x162;" horiz-adv-x="574" d="M24 676h527v-190h-84v107h-134v-510h94v-83h-125l-21 -56c5 2 14 4 30 4c37 0 71 -26 71 -69c0 -46 -34 -77 -106 -77c-32 0 -65 8 -100 23l9 47c33 -17 60 -25 85 -25c28 0 41 12 41 33c0 17 -12 31 -33 31c-14 0 -23 -5 -29 -8c0 0 -23 9 -35 14l31 83h-105v83h96v510 h-129v-107h-83v190z" />
<glyph unicode="&#x21a;" horiz-adv-x="575" d="M24 676h527v-190h-84v107h-134v-510h94v-83h-287v83h96v510h-129v-107h-83v190zM343 -66l-58 -150h-72l25 150h105z" />
<glyph unicode="&#x166;" horiz-adv-x="574" d="M141 359h95v234h-129v-107h-83v190h527v-190h-84v107h-134v-234h96v-79h-96v-197h94v-83h-287v83h96v197h-95v79z" />
<glyph unicode="&#xde;" horiz-adv-x="588" d="M116 593h-73v83h258v-83h-88v-66h117c158 0 231 -65 231 -188c0 -121 -73 -187 -231 -187h-117v-69h88v-83h-257v83h72v510zM459 339c0 64 -31 106 -125 106h-121v-209h121c94 0 125 38 125 103z" />
<glyph unicode="&#xd9;" horiz-adv-x="686" d="M343 -10c-143 0 -250 68 -250 262v341h-67v83h258v-83h-93v-343c0 -127 59 -172 152 -172s153 45 153 172v343h-92v83h256v-83h-67v-341c0 -194 -108 -262 -250 -262zM237 870h84l64 -135h-74z" />
<glyph unicode="&#xda;" horiz-adv-x="686" d="M343 -10c-143 0 -250 68 -250 262v341h-67v83h258v-83h-93v-343c0 -127 59 -172 152 -172s153 45 153 172v343h-92v83h256v-83h-67v-341c0 -194 -108 -262 -250 -262zM376 870h84l-74 -135h-74z" />
<glyph unicode="&#xdb;" horiz-adv-x="686" d="M343 -10c-143 0 -250 68 -250 262v341h-67v83h258v-83h-93v-343c0 -127 59 -172 152 -172s153 45 153 172v343h-92v83h256v-83h-67v-341c0 -194 -108 -262 -250 -262zM283 900h120l89 -159h-87l-62 108l-63 -108h-86z" />
<glyph unicode="&#x168;" horiz-adv-x="686" d="M343 -10c-143 0 -250 68 -250 262v341h-67v83h258v-83h-93v-343c0 -127 59 -172 152 -172s153 45 153 172v343h-92v83h256v-83h-67v-341c0 -194 -108 -262 -250 -262zM234 740l-3 53c12 8 28 32 55 32c50 0 73 -40 112 -40c21 0 37 22 49 35l3 -52 c-10 -9 -30 -33 -52 -33c-44 0 -74 40 -112 40c-19 0 -37 -23 -52 -35z" />
<glyph unicode="&#xdc;" horiz-adv-x="686" d="M343 -10c-143 0 -250 68 -250 262v341h-67v83h258v-83h-93v-343c0 -127 59 -172 152 -172s153 45 153 172v343h-92v83h256v-83h-67v-341c0 -194 -108 -262 -250 -262zM249 752c-36 0 -62 17 -62 60s26 62 62 62c31 0 62 -19 62 -62s-31 -60 -62 -60zM437 752 c-36 0 -62 17 -62 60s26 62 62 62c31 0 62 -19 62 -62s-31 -60 -62 -60z" />
<glyph unicode="&#x16a;" horiz-adv-x="686" d="M343 -10c-143 0 -250 68 -250 262v341h-67v83h258v-83h-93v-343c0 -127 59 -172 152 -172s153 45 153 172v343h-92v83h256v-83h-67v-341c0 -194 -108 -262 -250 -262zM199 850h288v-79h-288v79z" />
<glyph unicode="&#x16c;" horiz-adv-x="686" d="M343 -10c-143 0 -250 68 -250 262v341h-67v83h258v-83h-93v-343c0 -127 59 -172 152 -172s153 45 153 172v343h-92v83h256v-83h-67v-341c0 -194 -108 -262 -250 -262zM420 889h66c0 -81 -52 -144 -145 -144c-90 0 -142 63 -142 144h64c4 -42 33 -73 78 -73 c46 0 75 31 79 73z" />
<glyph unicode="&#x16e;" horiz-adv-x="686" d="M343 -10c-143 0 -250 68 -250 262v341h-67v83h258v-83h-93v-343c0 -127 59 -172 152 -172s153 45 153 172v343h-92v83h256v-83h-67v-341c0 -194 -108 -262 -250 -262zM236 825c0 53 38 97 105 97c70 0 108 -44 108 -97c0 -51 -38 -96 -108 -96c-67 0 -105 45 -105 96z M294 825c0 -25 17 -44 47 -44c32 0 49 19 49 44s-17 46 -49 46c-30 0 -47 -21 -47 -46z" />
<glyph unicode="&#x170;" horiz-adv-x="686" d="M343 -10c-143 0 -250 68 -250 262v341h-67v83h258v-83h-93v-343c0 -127 59 -172 152 -172s153 45 153 172v343h-92v83h256v-83h-67v-341c0 -194 -108 -262 -250 -262zM289 900h99l-87 -159h-87zM455 900h99l-87 -159h-87z" />
<glyph unicode="&#x172;" horiz-adv-x="685" d="M226 -115c0 35 20 62 55 84l32 22c-127 9 -220 80 -220 261v341h-67v83h257v-83h-93v-343c0 -127 59 -172 153 -172c93 0 152 45 152 172v343h-92v83h256v-83h-67v-341c0 -152 -67 -225 -161 -249l-79 -55c-21 -16 -31 -28 -31 -45c0 -18 14 -28 33 -28c29 0 49 11 58 16 l5 -69c-12 -6 -43 -18 -80 -18c-68 0 -111 29 -111 81z" />
<glyph unicode="&#x1e82;" horiz-adv-x="980" d="M696 593v83h277v-83h-67l-154 -593h-121l-141 422l-140 -422h-121l-156 593h-68v83h258v-83h-88l120 -492l149 439l-49 136h113l180 -575l120 492h-112zM502 900h99l-87 -159h-87z" />
<glyph unicode="&#x174;" horiz-adv-x="980" d="M696 593v83h277v-83h-67l-154 -593h-121l-141 422l-140 -422h-121l-156 593h-68v83h258v-83h-88l120 -492l149 439l-49 136h113l180 -575l120 492h-112zM429 900h120l89 -159h-87l-62 108l-63 -108h-86z" />
<glyph unicode="&#x1e84;" horiz-adv-x="980" d="M696 593v83h277v-83h-67l-154 -593h-121l-141 422l-140 -422h-121l-156 593h-68v83h258v-83h-88l120 -492l149 439l-49 136h113l180 -575l120 492h-112zM395 752c-36 0 -62 17 -62 60s26 62 62 62c31 0 62 -19 62 -62s-31 -60 -62 -60zM583 752c-36 0 -62 17 -62 60 s26 62 62 62c31 0 62 -19 62 -62s-31 -60 -62 -60z" />
<glyph unicode="&#x1e80;" horiz-adv-x="980" d="M696 593v83h277v-83h-67l-154 -593h-121l-141 422l-140 -422h-121l-156 593h-68v83h258v-83h-88l120 -492l149 439l-49 136h113l180 -575l120 492h-112zM368 900h99l75 -159h-87z" />
<glyph unicode="&#xdd;" horiz-adv-x="628" d="M5 593v83h254v-83h-86l142 -243l145 243h-86v83h254v-83h-63l-202 -326v-184h86v-83h-276v83h92v184l-196 326h-64zM347 870h84l-74 -135h-74z" />
<glyph unicode="&#x176;" horiz-adv-x="628" d="M5 593v83h254v-83h-86l142 -243l145 243h-86v83h254v-83h-63l-202 -326v-184h86v-83h-276v83h92v184l-196 326h-64zM257 900h120l89 -159h-87l-62 108l-63 -108h-86z" />
<glyph unicode="&#x178;" horiz-adv-x="628" d="M5 593v83h254v-83h-86l142 -243l145 243h-86v83h254v-83h-63l-202 -326v-184h86v-83h-276v83h92v184l-196 326h-64zM223 752c-36 0 -62 17 -62 60s26 62 62 62c31 0 62 -19 62 -62s-31 -60 -62 -60zM411 752c-36 0 -62 17 -62 60s26 62 62 62c31 0 62 -19 62 -62 s-31 -60 -62 -60z" />
<glyph unicode="&#x1ef2;" horiz-adv-x="628" d="M5 593v83h254v-83h-86l142 -243l145 243h-86v83h254v-83h-63l-202 -326v-184h86v-83h-276v83h92v184l-196 326h-64zM212 870h84l64 -135h-74z" />
<glyph unicode="&#x179;" horiz-adv-x="579" d="M526 676v-77l-361 -516h271v151h90v-234h-483v76l361 517h-258v-119h-90v202h470zM310 900h99l-87 -159h-87z" />
<glyph unicode="&#x17d;" horiz-adv-x="579" d="M526 676v-77l-361 -516h271v151h90v-234h-483v76l361 517h-258v-119h-90v202h470zM350 741h-120l-89 159h86l63 -108l62 108h87z" />
<glyph unicode="&#x17b;" horiz-adv-x="579" d="M526 676v-77l-361 -516h271v151h90v-234h-483v76l361 517h-258v-119h-90v202h470zM291 752c-36 0 -62 17 -62 60s26 62 62 62c31 0 62 -19 62 -62s-31 -60 -62 -60z" />
<glyph unicode="&#xe0;" horiz-adv-x="489" d="M153 369v-71h-81c-9 19 -14 41 -14 64c0 61 56 104 178 104c142 0 175 -46 175 -171v-188c0 -21 11 -30 27 -30c11 0 22 2 31 4v-81c-19 -4 -41 -6 -61 -6c-52 0 -81 27 -86 69c-25 -35 -77 -74 -152 -74c-89 0 -138 49 -138 130c0 96 85 129 215 141l69 8v101 c-17 8 -53 13 -80 13c-38 0 -58 -4 -83 -13zM132 125c0 -36 20 -57 66 -57c50 0 93 25 118 49v86l-67 -9c-86 -10 -117 -28 -117 -69zM139 655h84l64 -135h-74z" />
<glyph unicode="&#xe1;" horiz-adv-x="489" d="M153 369v-71h-81c-9 19 -14 41 -14 64c0 61 56 104 178 104c142 0 175 -46 175 -171v-188c0 -21 11 -30 27 -30c11 0 22 2 31 4v-81c-19 -4 -41 -6 -61 -6c-52 0 -81 27 -86 69c-25 -35 -77 -74 -152 -74c-89 0 -138 49 -138 130c0 96 85 129 215 141l69 8v101 c-17 8 -53 13 -80 13c-38 0 -58 -4 -83 -13zM132 125c0 -36 20 -57 66 -57c50 0 93 25 118 49v86l-67 -9c-86 -10 -117 -28 -117 -69zM264 655h84l-74 -135h-74z" />
<glyph unicode="&#xe2;" horiz-adv-x="489" d="M153 369v-71h-81c-9 19 -14 41 -14 64c0 61 56 104 178 104c142 0 175 -46 175 -171v-188c0 -21 11 -30 27 -30c11 0 22 2 31 4v-81c-19 -4 -41 -6 -61 -6c-52 0 -81 27 -86 69c-25 -35 -77 -74 -152 -74c-89 0 -138 49 -138 130c0 96 85 129 215 141l69 8v101 c-17 8 -53 13 -80 13c-38 0 -58 -4 -83 -13zM132 125c0 -36 20 -57 66 -57c50 0 93 25 118 49v86l-67 -9c-86 -10 -117 -28 -117 -69zM191 645h102l76 -135h-74l-53 92l-54 -92h-73z" />
<glyph unicode="&#xe3;" horiz-adv-x="489" d="M153 369v-71h-81c-9 19 -14 41 -14 64c0 61 56 104 178 104c142 0 175 -46 175 -171v-188c0 -21 11 -30 27 -30c11 0 22 2 31 4v-81c-19 -4 -41 -6 -61 -6c-52 0 -81 27 -86 69c-25 -35 -77 -74 -152 -74c-89 0 -138 49 -138 130c0 96 85 129 215 141l69 8v101 c-17 8 -53 13 -80 13c-38 0 -58 -4 -83 -13zM132 125c0 -36 20 -57 66 -57c50 0 93 25 118 49v86l-67 -9c-86 -10 -117 -28 -117 -69zM124 525l-3 53c12 8 28 32 55 32c50 0 73 -40 112 -40c21 0 37 22 49 35l3 -52c-10 -9 -30 -33 -52 -33c-44 0 -74 40 -112 40 c-19 0 -37 -23 -52 -35z" />
<glyph unicode="&#xe4;" horiz-adv-x="489" d="M153 369v-71h-81c-9 19 -14 41 -14 64c0 61 56 104 178 104c142 0 175 -46 175 -171v-188c0 -21 11 -30 27 -30c11 0 22 2 31 4v-81c-19 -4 -41 -6 -61 -6c-52 0 -81 27 -86 69c-25 -35 -77 -74 -152 -74c-89 0 -138 49 -138 130c0 96 85 129 215 141l69 8v101 c-17 8 -53 13 -80 13c-38 0 -58 -4 -83 -13zM132 125c0 -36 20 -57 66 -57c50 0 93 25 118 49v86l-67 -9c-86 -10 -117 -28 -117 -69zM146 548c-36 0 -62 17 -62 60s26 62 62 62c31 0 62 -19 62 -62s-31 -60 -62 -60zM334 548c-36 0 -62 17 -62 60s26 62 62 62 c31 0 62 -19 62 -62s-31 -60 -62 -60z" />
<glyph unicode="&#x101;" horiz-adv-x="489" d="M153 369v-71h-81c-9 19 -14 41 -14 64c0 61 56 104 178 104c142 0 175 -46 175 -171v-188c0 -21 11 -30 27 -30c11 0 22 2 31 4v-81c-19 -4 -41 -6 -61 -6c-52 0 -81 27 -86 69c-25 -35 -77 -74 -152 -74c-89 0 -138 49 -138 130c0 96 85 129 215 141l69 8v101 c-17 8 -53 13 -80 13c-38 0 -58 -4 -83 -13zM132 125c0 -36 20 -57 66 -57c50 0 93 25 118 49v86l-67 -9c-86 -10 -117 -28 -117 -69zM96 646h288v-79h-288v79z" />
<glyph unicode="&#x103;" horiz-adv-x="489" d="M153 369v-71h-81c-9 19 -14 41 -14 64c0 61 56 104 178 104c142 0 175 -46 175 -171v-188c0 -21 11 -30 27 -30c11 0 22 2 31 4v-81c-19 -4 -41 -6 -61 -6c-52 0 -81 27 -86 69c-25 -35 -77 -74 -152 -74c-89 0 -138 49 -138 130c0 96 85 129 215 141l69 8v101 c-17 8 -53 13 -80 13c-38 0 -58 -4 -83 -13zM132 125c0 -36 20 -57 66 -57c50 0 93 25 118 49v86l-67 -9c-86 -10 -117 -28 -117 -69zM305 632h56c0 -69 -44 -122 -123 -122c-76 0 -120 53 -120 122h54c3 -36 28 -62 66 -62c39 0 64 26 67 62z" />
<glyph unicode="&#xe5;" horiz-adv-x="489" d="M153 369v-71h-81c-9 19 -14 41 -14 64c0 61 56 104 178 104c142 0 175 -46 175 -171v-188c0 -21 11 -30 27 -30c11 0 22 2 31 4v-81c-19 -4 -41 -6 -61 -6c-52 0 -81 27 -86 69c-25 -35 -77 -74 -152 -74c-89 0 -138 49 -138 130c0 96 85 129 215 141l69 8v101 c-17 8 -53 13 -80 13c-38 0 -58 -4 -83 -13zM132 125c0 -36 20 -57 66 -57c50 0 93 25 118 49v86l-67 -9c-86 -10 -117 -28 -117 -69zM133 621c0 53 38 97 105 97c70 0 108 -44 108 -97c0 -51 -38 -96 -108 -96c-67 0 -105 45 -105 96zM191 621c0 -25 17 -44 47 -44 c32 0 49 19 49 44s-17 46 -49 46c-30 0 -47 -21 -47 -46z" />
<glyph unicode="&#x1fb;" horiz-adv-x="489" d="M153 369v-71h-81c-9 19 -14 41 -14 64c0 61 56 104 178 104c142 0 175 -46 175 -171v-188c0 -21 11 -29 27 -29c11 0 22 2 31 3v-81c-19 -4 -41 -5 -61 -5c-52 0 -81 26 -86 68c-25 -35 -77 -74 -152 -74c-89 0 -138 49 -138 130c0 96 85 129 215 141l69 8v101 c-17 8 -42 13 -69 13c-38 0 -69 -4 -94 -13zM134 611c0 47 30 86 82 95l44 74h96l-64 -84c35 -16 54 -48 54 -85c0 -51 -38 -96 -108 -96c-67 0 -104 45 -104 96zM132 125c0 -36 20 -57 66 -57c50 0 93 25 118 49v86l-67 -9c-86 -10 -117 -28 -117 -69zM192 611 c0 -25 16 -44 46 -44c32 0 49 19 49 44s-17 46 -49 46c-30 0 -46 -21 -46 -46z" />
<glyph unicode="&#x105;" horiz-adv-x="489" d="M153 369v-71h-81c-9 19 -14 41 -14 64c0 60 56 104 178 104c139 0 175 -44 175 -167v-192c0 -21 11 -29 27 -29c11 0 22 2 31 3v-81l-82 -53c-22 -15 -31 -26 -31 -44s14 -28 33 -28c29 0 49 10 58 15l5 -68c-10 -5 -30 -14 -57 -17c-12 -1 -24 -1 -36 1 c-62 4 -98 31 -98 79c0 35 19 63 55 84l55 32c-28 9 -46 30 -49 62c-25 -35 -77 -74 -152 -74c-89 0 -138 49 -138 130c0 96 85 129 215 141l69 8v101c-25 8 -58 13 -92 13c-30 0 -54 -4 -71 -13zM132 125c0 -36 20 -57 66 -57c50 0 93 25 118 49v86l-67 -9 c-86 -10 -117 -28 -117 -69z" />
<glyph unicode="&#xe6;" horiz-adv-x="747" d="M533 73c50 0 99 16 141 43l31 -74c-45 -31 -107 -53 -181 -53s-133 33 -161 82c-32 -47 -109 -82 -189 -82c-95 0 -142 49 -142 130c0 97 85 129 216 141l69 8v101c-25 8 -58 13 -93 13c-30 0 -53 -4 -70 -13v-71h-81c-9 19 -14 41 -14 64c0 60 56 104 177 104 c78 0 125 -20 148 -54c32 35 78 54 138 54c132 0 187 -96 187 -194c0 -24 -4 -56 -8 -75h-284c1 -77 35 -124 116 -124zM417 270h198c1 6 2 12 2 16c0 64 -39 101 -96 101c-73 0 -100 -52 -104 -117zM132 125c0 -36 21 -57 66 -57c51 0 94 25 119 49v86l-68 -9 c-85 -10 -117 -28 -117 -69z" />
<glyph unicode="&#x1fd;" horiz-adv-x="747" d="M427 696h99l-87 -159h-87zM533 73c50 0 99 16 141 43l31 -74c-45 -31 -107 -53 -181 -53s-133 33 -161 82c-32 -47 -109 -82 -189 -82c-95 0 -142 49 -142 130c0 97 85 129 216 141l69 8v101c-25 8 -58 13 -93 13c-30 0 -53 -4 -70 -13v-71h-81c-9 19 -14 41 -14 64 c0 60 56 104 177 104c78 0 125 -20 148 -54c32 35 78 54 138 54c132 0 187 -96 187 -194c0 -24 -4 -56 -8 -75h-284c1 -77 35 -124 116 -124zM417 270h198c1 6 2 12 2 16c0 64 -39 101 -96 101c-73 0 -100 -52 -104 -117zM132 125c0 -36 21 -57 66 -57c51 0 94 25 119 49v86 l-68 -9c-85 -10 -117 -28 -117 -69z" />
<glyph unicode="&#x107;" horiz-adv-x="460" d="M258 77c51 0 106 15 144 36l24 -78c-46 -26 -111 -46 -178 -46c-150 0 -210 108 -210 240c0 128 69 237 214 237c72 0 130 -21 169 -39l-19 -160h-76v106c-22 8 -43 12 -73 12c-79 0 -114 -64 -114 -149c0 -87 29 -159 119 -159zM271 696h99l-87 -159h-87z" />
<glyph unicode="&#x109;" horiz-adv-x="460" d="M258 77c51 0 106 15 144 36l24 -78c-46 -26 -111 -46 -178 -46c-150 0 -210 108 -210 240c0 128 69 237 214 237c72 0 130 -21 169 -39l-19 -160h-76v106c-22 8 -43 12 -73 12c-79 0 -114 -64 -114 -149c0 -87 29 -159 119 -159zM191 696h120l89 -159h-87l-62 108 l-63 -108h-86z" />
<glyph unicode="&#x10d;" horiz-adv-x="460" d="M258 77c51 0 106 15 144 36l24 -78c-46 -26 -111 -46 -178 -46c-150 0 -210 108 -210 240c0 128 69 237 214 237c72 0 130 -21 169 -39l-19 -160h-76v106c-22 8 -43 12 -73 12c-79 0 -114 -64 -114 -149c0 -87 29 -159 119 -159zM312 537h-120l-89 159h86l63 -108l62 108 h87z" />
<glyph unicode="&#x10b;" horiz-adv-x="460" d="M258 77c51 0 106 15 144 36l24 -78c-46 -26 -111 -46 -178 -46c-150 0 -210 108 -210 240c0 128 69 237 214 237c72 0 130 -21 169 -39l-19 -160h-76v106c-22 8 -43 12 -73 12c-79 0 -114 -64 -114 -149c0 -87 29 -159 119 -159zM252 548c-36 0 -62 17 -62 60 s26 62 62 62c31 0 62 -19 62 -62s-31 -60 -62 -60z" />
<glyph unicode="&#xe7;" horiz-adv-x="460" d="M258 77c51 0 106 15 145 36l24 -78c-41 -24 -96 -41 -155 -45l-18 -47c5 2 15 4 30 4c37 0 72 -26 72 -69c0 -46 -35 -77 -107 -77c-32 0 -65 8 -100 23l10 47c32 -17 59 -25 85 -25c27 0 41 12 41 33c0 17 -13 31 -34 31c-14 0 -23 -5 -28 -8c0 0 -24 9 -36 14l28 75 c-126 15 -177 115 -177 238c0 128 70 237 215 237c72 0 129 -21 169 -39l-19 -160h-76v106c-22 8 -43 12 -73 12c-80 0 -114 -64 -114 -149c0 -87 29 -159 118 -159z" />
<glyph unicode="&#x10f;" horiz-adv-x="576" d="M361 415v198h-91v83h184v-614h67v-82h-71c-51 0 -74 28 -77 65c-23 -31 -70 -76 -144 -76c-127 0 -190 90 -190 240c0 146 64 237 193 237c67 0 106 -25 129 -51zM137 229c0 -86 27 -152 117 -152c48 0 86 25 106 50v206c-15 20 -48 45 -104 45c-91 0 -119 -63 -119 -149 zM666 696l-58 -150h-72l25 150h105z" />
<glyph unicode="&#x111;" horiz-adv-x="540" d="M361 415v86h-78v60h78v52h-91v83h184v-135h69v-60h-69v-419h67v-82h-71c-51 0 -74 28 -77 65c-23 -31 -70 -76 -144 -76c-127 0 -190 90 -190 240c0 146 64 237 193 237c67 0 106 -25 129 -51zM137 229c0 -86 27 -152 117 -152c48 0 86 25 106 50v206 c-15 20 -48 45 -104 45c-91 0 -119 -63 -119 -149z" />
<glyph unicode="&#xf0;" horiz-adv-x="530" d="M238 556l73 33c-25 39 -58 75 -98 107h119c23 -20 45 -44 65 -73l60 27l26 -62l-52 -24c32 -67 52 -150 52 -250c0 -167 -59 -325 -224 -325c-147 0 -220 98 -220 234c0 135 69 224 191 224c80 0 134 -47 155 -93c0 58 -12 118 -39 174l-81 -36zM256 78 c89 0 121 90 122 183c-21 48 -62 90 -130 90c-77 0 -109 -54 -109 -136c0 -75 32 -137 117 -137z" />
<glyph unicode="&#xe8;" horiz-adv-x="469" d="M255 73c51 0 99 16 141 43l31 -74c-44 -30 -108 -53 -173 -53c-154 0 -216 100 -216 239c0 131 67 238 206 238c133 0 187 -96 187 -194c0 -24 -3 -56 -8 -75h-285c1 -77 37 -124 117 -124zM139 270h199c1 6 1 12 1 16c0 64 -39 101 -96 101c-74 0 -100 -52 -104 -117z M140 655h84l64 -135h-74z" />
<glyph unicode="&#xe9;" horiz-adv-x="469" d="M255 73c51 0 99 16 141 43l31 -74c-44 -30 -108 -53 -173 -53c-154 0 -216 100 -216 239c0 131 67 238 206 238c133 0 187 -96 187 -194c0 -24 -3 -56 -8 -75h-285c1 -77 37 -124 117 -124zM139 270h199c1 6 1 12 1 16c0 64 -39 101 -96 101c-74 0 -100 -52 -104 -117z M267 655h84l-74 -135h-74z" />
<glyph unicode="&#xea;" horiz-adv-x="469" d="M255 73c51 0 99 16 141 43l31 -74c-44 -30 -108 -53 -173 -53c-154 0 -216 100 -216 239c0 131 67 238 206 238c133 0 187 -96 187 -194c0 -24 -3 -56 -8 -75h-285c1 -77 37 -124 117 -124zM139 270h199c1 6 1 12 1 16c0 64 -39 101 -96 101c-74 0 -100 -52 -104 -117z M196 645h102l76 -135h-74l-53 92l-54 -92h-73z" />
<glyph unicode="&#x11b;" horiz-adv-x="469" d="M255 73c51 0 99 16 141 43l31 -74c-44 -30 -108 -53 -173 -53c-154 0 -216 100 -216 239c0 131 67 238 206 238c133 0 187 -96 187 -194c0 -24 -3 -56 -8 -75h-285c1 -77 37 -124 117 -124zM139 270h199c1 6 1 12 1 16c0 64 -39 101 -96 101c-74 0 -100 -52 -104 -117z M306 537h-120l-89 159h86l63 -108l62 108h87z" />
<glyph unicode="&#xeb;" horiz-adv-x="469" d="M255 73c51 0 99 16 141 43l31 -74c-44 -30 -108 -53 -173 -53c-154 0 -216 100 -216 239c0 131 67 238 206 238c133 0 187 -96 187 -194c0 -24 -3 -56 -8 -75h-285c1 -77 37 -124 117 -124zM139 270h199c1 6 1 12 1 16c0 64 -39 101 -96 101c-74 0 -100 -52 -104 -117z M152 548c-36 0 -62 17 -62 60s26 62 62 62c31 0 62 -19 62 -62s-31 -60 -62 -60zM340 548c-36 0 -62 17 -62 60s26 62 62 62c31 0 62 -19 62 -62s-31 -60 -62 -60z" />
<glyph unicode="&#x113;" horiz-adv-x="469" d="M255 73c51 0 99 16 141 43l31 -74c-44 -30 -108 -53 -173 -53c-154 0 -216 100 -216 239c0 131 67 238 206 238c133 0 187 -96 187 -194c0 -24 -3 -56 -8 -75h-285c1 -77 37 -124 117 -124zM139 270h199c1 6 1 12 1 16c0 64 -39 101 -96 101c-74 0 -100 -52 -104 -117z M103 646h288v-79h-288v79z" />
<glyph unicode="&#x115;" horiz-adv-x="469" d="M255 73c51 0 99 16 141 43l31 -74c-44 -30 -108 -53 -173 -53c-154 0 -216 100 -216 239c0 131 67 238 206 238c133 0 187 -96 187 -194c0 -24 -3 -56 -8 -75h-285c1 -77 37 -124 117 -124zM139 270h199c1 6 1 12 1 16c0 64 -39 101 -96 101c-74 0 -100 -52 -104 -117z M325 685h66c0 -81 -52 -144 -145 -144c-90 0 -142 63 -142 144h64c4 -42 33 -73 78 -73c46 0 75 31 79 73z" />
<glyph unicode="&#x117;" horiz-adv-x="469" d="M255 73c51 0 99 16 141 43l31 -74c-44 -30 -108 -53 -173 -53c-154 0 -216 100 -216 239c0 131 67 238 206 238c133 0 187 -96 187 -194c0 -24 -3 -56 -8 -75h-285c1 -77 37 -124 117 -124zM139 270h199c1 6 1 12 1 16c0 64 -39 101 -96 101c-74 0 -100 -52 -104 -117z M249 548c-36 0 -62 17 -62 60s26 62 62 62c31 0 62 -19 62 -62s-31 -60 -62 -60z" />
<glyph unicode="&#x119;" horiz-adv-x="469" d="M255 73c51 0 99 16 141 43l31 -74c-28 -19 -64 -34 -100 -51l-57 -43c-21 -16 -30 -29 -30 -46s14 -28 33 -28c29 0 49 11 58 16l5 -68c-12 -6 -43 -19 -80 -19c-68 0 -111 29 -111 82c0 35 21 60 55 84l31 22c-139 9 -193 104 -193 237c0 131 67 238 206 238 c133 0 187 -96 187 -194c0 -24 -3 -56 -8 -75h-285c1 -77 37 -124 117 -124zM139 270h199c1 6 1 12 1 16c0 64 -39 101 -96 101c-74 0 -100 -52 -104 -117z" />
<glyph unicode="&#x11d;" horiz-adv-x="491" d="M485 404l-89 -20c19 -23 31 -60 31 -99c0 -103 -75 -161 -189 -161c-28 0 -60 4 -78 10l-9 -71h150c98 0 154 -43 154 -124c0 -99 -88 -165 -232 -165c-145 0 -200 49 -200 121c0 53 44 89 78 98c-24 10 -36 36 -36 59c0 43 28 74 52 94c-50 26 -78 77 -78 144 c0 104 66 176 200 176c44 0 94 -14 118 -32c35 50 79 64 123 62zM236 197c73 0 101 36 101 91s-30 95 -101 95c-77 0 -104 -40 -104 -95c0 -52 26 -91 104 -91zM154 -21c-22 -14 -39 -33 -39 -62c0 -42 28 -69 112 -69c75 0 129 26 129 77c0 30 -17 54 -72 54h-130zM181 696 h120l89 -159h-87l-62 108l-63 -108h-86z" />
<glyph unicode="&#x11f;" horiz-adv-x="491" d="M485 404l-89 -20c19 -23 31 -60 31 -99c0 -103 -75 -161 -189 -161c-28 0 -60 4 -78 10l-9 -71h150c98 0 154 -43 154 -124c0 -99 -88 -165 -232 -165c-145 0 -200 49 -200 121c0 53 44 89 78 98c-24 10 -36 36 -36 59c0 43 28 74 52 94c-50 26 -78 77 -78 144 c0 104 66 176 200 176c44 0 94 -14 118 -32c35 50 79 64 123 62zM236 197c73 0 101 36 101 91s-30 95 -101 95c-77 0 -104 -40 -104 -95c0 -52 26 -91 104 -91zM154 -21c-22 -14 -39 -33 -39 -62c0 -42 28 -69 112 -69c75 0 129 26 129 77c0 30 -17 54 -72 54h-130zM319 685 h66c0 -81 -52 -144 -145 -144c-90 0 -142 63 -142 144h64c4 -42 33 -73 78 -73c46 0 75 31 79 73z" />
<glyph unicode="&#x121;" horiz-adv-x="491" d="M485 404l-89 -20c19 -23 31 -60 31 -99c0 -103 -75 -161 -189 -161c-28 0 -60 4 -78 10l-9 -71h150c98 0 154 -43 154 -124c0 -99 -88 -165 -232 -165c-145 0 -200 49 -200 121c0 53 44 89 78 98c-24 10 -36 36 -36 59c0 43 28 74 52 94c-50 26 -78 77 -78 144 c0 104 66 176 200 176c44 0 94 -14 118 -32c35 50 79 64 123 62zM236 197c73 0 101 36 101 91s-30 95 -101 95c-77 0 -104 -40 -104 -95c0 -52 26 -91 104 -91zM154 -21c-22 -14 -39 -33 -39 -62c0 -42 28 -69 112 -69c75 0 129 26 129 77c0 30 -17 54 -72 54h-130zM242 548 c-36 0 -62 17 -62 60s26 62 62 62c31 0 62 -19 62 -62s-31 -60 -62 -60z" />
<glyph unicode="&#x123;" horiz-adv-x="491" d="M485 404l-89 -20c19 -23 31 -60 31 -99c0 -103 -75 -161 -189 -161c-28 0 -60 4 -78 10l-9 -71h150c98 0 154 -43 154 -124c0 -99 -88 -165 -232 -165c-145 0 -200 49 -200 121c0 53 44 89 78 98c-24 10 -36 36 -36 59c0 43 28 74 52 94c-50 26 -78 77 -78 144 c0 104 66 176 200 176c44 0 94 -14 118 -32c35 50 79 64 123 62zM236 197c73 0 101 36 101 91s-30 95 -101 95c-77 0 -104 -40 -104 -95c0 -52 26 -91 104 -91zM154 -21c-22 -14 -39 -33 -39 -62c0 -42 28 -69 112 -69c75 0 129 26 129 77c0 30 -17 54 -72 54h-130zM176 553 l59 177h74l-26 -177h-107z" />
<glyph unicode="&#x125;" horiz-adv-x="564" d="M24 0v82h64v531h-66v83h158v-283c27 26 80 53 149 53c110 0 154 -61 154 -177v-207h63v-82h-228v82h72v198c0 61 -14 98 -92 98c-48 0 -96 -23 -118 -41v-255h71v-82h-227zM216 891h120l89 -159h-87l-62 108l-63 -108h-86z" />
<glyph unicode="&#x127;" horiz-adv-x="564" d="M24 0v82h64v419h-68v60h68v52h-66v83h158v-135h76v-60h-76v-88c27 26 80 53 149 53c110 0 154 -61 154 -177v-207h63v-82h-228v82h72v198c0 61 -14 98 -92 98c-48 0 -96 -23 -118 -41v-255h71v-82h-227z" />
<glyph unicode="&#x131;" horiz-adv-x="330" d="M32 0v82h98v292h-98v82h191v-374h92v-82h-283z" />
<glyph unicode="&#xec;" horiz-adv-x="330" d="M59 655h84l64 -135h-74zM32 0v82h98v292h-98v82h191v-374h92v-82h-283z" />
<glyph unicode="&#xed;" horiz-adv-x="330" d="M203 655h84l-74 -135h-74zM32 0v82h98v292h-98v82h191v-374h92v-82h-283z" />
<glyph unicode="&#x12d;" horiz-adv-x="330" d="M250 685h66c0 -81 -52 -144 -145 -144c-90 0 -142 63 -142 144h64c4 -42 33 -73 78 -73c46 0 75 31 79 73zM32 0v82h98v292h-98v82h191v-374h92v-82h-283z" />
<glyph unicode="&#xee;" horiz-adv-x="330" d="M105 696h120l89 -159h-87l-62 108l-63 -108h-86zM32 0v82h98v292h-98v82h191v-374h92v-82h-283z" />
<glyph unicode="&#x129;" horiz-adv-x="330" d="M32 0v82h98v292h-98v82h191v-374h92v-82h-283zM64 525l-3 53c12 8 28 32 55 32c50 0 73 -40 112 -40c21 0 37 22 49 35l3 -52c-10 -9 -30 -33 -52 -33c-44 0 -74 40 -112 40c-19 0 -37 -23 -52 -35z" />
<glyph unicode="&#xef;" horiz-adv-x="330" d="M70 548c-36 0 -62 17 -62 60s26 62 62 62c31 0 62 -19 62 -62s-31 -60 -62 -60zM258 548c-36 0 -62 17 -62 60s26 62 62 62c31 0 62 -19 62 -62s-31 -60 -62 -60zM32 0v82h98v292h-98v82h191v-374h92v-82h-283z" />
<glyph unicode="&#x12b;" horiz-adv-x="330" d="M23 646h288v-79h-288v79zM32 0v82h98v292h-98v82h191v-374h92v-82h-283z" />
<glyph unicode="&#x12f;" horiz-adv-x="330" d="M32 0v82h98v292h-98v82h191v-374h92v-82h-80l-82 -53c-22 -15 -31 -28 -31 -45s14 -28 33 -28c29 0 49 11 58 16l5 -68c-12 -6 -43 -19 -80 -19c-69 0 -111 29 -111 82c0 35 19 63 55 84l52 31h-102zM172 558c-36 0 -62 17 -62 60s26 62 62 62c31 0 62 -19 62 -62 s-31 -60 -62 -60z" />
<glyph unicode="&#x237;" horiz-adv-x="261" d="M71 -226l-53 69c56 29 82 62 82 132v399h-83v82h176v-471c0 -88 -24 -166 -122 -211z" />
<glyph unicode="&#x135;" horiz-adv-x="261" d="M74 696h120l89 -159h-87l-62 108l-63 -108h-86zM71 -226l-53 69c56 29 82 62 82 132v399h-83v82h176v-471c0 -88 -24 -166 -122 -211z" />
<glyph unicode="&#x137;" horiz-adv-x="562" d="M353 0v78l-97 140l-75 -63v-73h87v-82h-247v82h67v531h-69v83h162v-464l171 142h-73v82h243v-82h-70l-128 -109l130 -183h87v-82h-188zM335 -66l-58 -150h-72l25 150h105z" />
<glyph unicode="&#x138;" horiz-adv-x="579" d="M371 0v78l-97 140l-75 -63v-73h88v-82h-248v82h68v291h-70v83h162v-224l171 142h-73v82h243v-82h-70l-128 -109l130 -183h87v-82h-188z" />
<glyph unicode="&#x13a;" horiz-adv-x="257" d="M65 121v492h-78v83h171v-563c0 -41 11 -56 42 -56c16 0 31 3 44 6l5 -81c-21 -8 -48 -13 -77 -13c-84 0 -107 53 -107 132zM139 891h99l-87 -159h-87z" />
<glyph unicode="&#x13e;" horiz-adv-x="291" d="M65 121v492h-78v83h171v-563c0 -41 11 -56 42 -56c16 0 31 3 44 6l5 -81c-21 -8 -48 -13 -77 -13c-84 0 -107 53 -107 132zM370 696l-58 -150h-72l25 150h105z" />
<glyph unicode="&#x13c;" horiz-adv-x="257" d="M65 121v492h-78v83h171v-563c0 -41 11 -56 42 -56c16 0 31 3 44 6l5 -81c-21 -8 -48 -13 -77 -13c-84 0 -107 53 -107 132zM199 -66l-58 -150h-72l25 150h105z" />
<glyph unicode="&#x142;" horiz-adv-x="264" d="M6 274v73l65 33v233h-78v83h171v-268l68 36v-73l-68 -36v-222c0 -41 11 -56 42 -56c16 0 31 3 44 6l5 -81c-21 -8 -48 -13 -77 -13c-84 0 -107 53 -107 132v186z" />
<glyph unicode="&#x140;" horiz-adv-x="354" d="M65 121v492h-78v83h171v-563c0 -41 11 -56 42 -56c16 0 31 3 44 6l5 -81c-21 -8 -48 -13 -77 -13c-84 0 -107 53 -107 132zM287 298c-39 0 -67 27 -67 64c0 38 28 66 67 66s68 -28 68 -66c0 -37 -29 -64 -68 -64z" />
<glyph unicode="&#x144;" horiz-adv-x="574" d="M38 0v82h63v292h-61v82h144v-52c26 28 74 62 157 62c109 0 153 -61 153 -177v-207h62v-82h-226v82h71v198c0 61 -15 98 -92 98c-47 0 -94 -23 -116 -41v-255h71v-82h-226zM314 696h99l-87 -159h-87z" />
<glyph unicode="&#x148;" horiz-adv-x="574" d="M38 0v82h63v292h-61v82h144v-52c26 28 74 62 157 62c109 0 153 -61 153 -177v-207h62v-82h-226v82h71v198c0 61 -15 98 -92 98c-47 0 -94 -23 -116 -41v-255h71v-82h-226zM352 537h-120l-89 159h86l63 -108l62 108h87z" />
<glyph unicode="&#xf1;" horiz-adv-x="574" d="M38 0v82h63v292h-61v82h144v-52c26 28 74 62 157 62c109 0 153 -61 153 -177v-207h62v-82h-226v82h71v198c0 61 -15 98 -92 98c-47 0 -94 -23 -116 -41v-255h71v-82h-226zM438 642l-4 -74c-20 15 -44 25 -68 25c-50 0 -88 -38 -146 -38c-30 0 -56 12 -69 23l4 73 c17 -16 37 -24 65 -24c50 0 81 38 146 38c35 0 56 -13 72 -23z" />
<glyph unicode="&#x146;" horiz-adv-x="575" d="M38 0v82h63v292h-61v82h144v-52c26 28 74 62 157 62c109 0 153 -61 153 -177v-207h62v-82h-226v82h71v198c0 61 -15 98 -92 98c-47 0 -94 -23 -116 -41v-255h71v-82h-226zM349 -66l-58 -150h-72l25 150h105z" />
<glyph unicode="&#x149;" horiz-adv-x="574" d="M38 0v82h63v292h-61v82h144v-52c26 28 74 62 157 62c109 0 153 -61 153 -177v-207h62v-82h-226v82h71v198c0 61 -15 98 -92 98c-47 0 -94 -23 -116 -41v-255h71v-82h-226zM101 696l-58 -150h-72l25 150h105z" />
<glyph unicode="&#xf2;" horiz-adv-x="503" d="M253 466c154 0 211 -98 211 -237c0 -141 -57 -240 -215 -240c-151 0 -210 99 -210 238c0 141 57 239 214 239zM252 76c87 0 113 53 113 151c0 101 -27 152 -114 152c-85 0 -114 -51 -114 -150c0 -101 29 -153 115 -153zM146 655h84l64 -135h-74z" />
<glyph unicode="&#xf3;" horiz-adv-x="503" d="M253 466c154 0 211 -98 211 -237c0 -141 -57 -240 -215 -240c-151 0 -210 99 -210 238c0 141 57 239 214 239zM252 76c87 0 113 53 113 151c0 101 -27 152 -114 152c-85 0 -114 -51 -114 -150c0 -101 29 -153 115 -153zM270 655h84l-74 -135h-74z" />
<glyph unicode="&#xf4;" horiz-adv-x="503" d="M253 466c154 0 211 -98 211 -237c0 -141 -57 -240 -215 -240c-151 0 -210 99 -210 238c0 141 57 239 214 239zM252 76c87 0 113 53 113 151c0 101 -27 152 -114 152c-85 0 -114 -51 -114 -150c0 -101 29 -153 115 -153zM200 645h102l76 -135h-74l-53 92l-54 -92h-73z" />
<glyph unicode="&#xf5;" horiz-adv-x="503" d="M253 466c154 0 211 -98 211 -237c0 -141 -57 -240 -215 -240c-151 0 -210 99 -210 238c0 141 57 239 214 239zM252 76c87 0 113 53 113 151c0 101 -27 152 -114 152c-85 0 -114 -51 -114 -150c0 -101 29 -153 115 -153zM149 525l-3 53c12 8 28 32 55 32 c50 0 73 -40 112 -40c21 0 37 22 49 35l3 -52c-10 -9 -30 -33 -52 -33c-44 0 -74 40 -112 40c-19 0 -37 -23 -52 -35z" />
<glyph unicode="&#xf6;" horiz-adv-x="503" d="M253 466c154 0 211 -98 211 -237c0 -141 -57 -240 -215 -240c-151 0 -210 99 -210 238c0 141 57 239 214 239zM252 76c87 0 113 53 113 151c0 101 -27 152 -114 152c-85 0 -114 -51 -114 -150c0 -101 29 -153 115 -153zM158 548c-36 0 -62 17 -62 60s26 62 62 62 c31 0 62 -19 62 -62s-31 -60 -62 -60zM346 548c-36 0 -62 17 -62 60s26 62 62 62c31 0 62 -19 62 -62s-31 -60 -62 -60z" />
<glyph unicode="&#x14d;" horiz-adv-x="503" d="M253 466c154 0 211 -98 211 -237c0 -141 -57 -240 -215 -240c-151 0 -210 99 -210 238c0 141 57 239 214 239zM252 76c87 0 113 53 113 151c0 101 -27 152 -114 152c-85 0 -114 -51 -114 -150c0 -101 29 -153 115 -153zM108 646h288v-79h-288v79z" />
<glyph unicode="&#x14f;" horiz-adv-x="503" d="M253 466c154 0 211 -98 211 -237c0 -141 -57 -240 -215 -240c-151 0 -210 99 -210 238c0 141 57 239 214 239zM252 76c87 0 113 53 113 151c0 101 -27 152 -114 152c-85 0 -114 -51 -114 -150c0 -101 29 -153 115 -153zM329 685h66c0 -81 -52 -144 -145 -144 c-90 0 -142 63 -142 144h64c4 -42 33 -73 78 -73c46 0 75 31 79 73z" />
<glyph unicode="&#x151;" horiz-adv-x="503" d="M253 466c154 0 211 -98 211 -237c0 -141 -57 -240 -215 -240c-151 0 -210 99 -210 238c0 141 57 239 214 239zM252 76c87 0 113 53 113 151c0 101 -27 152 -114 152c-85 0 -114 -51 -114 -150c0 -101 29 -153 115 -153zM189 696h99l-87 -159h-87zM355 696h99l-87 -159 h-87z" />
<glyph unicode="&#xf8;" horiz-adv-x="503" d="M253 466c20 0 39 -2 57 -5l19 50h64v-12l-25 -60c68 -37 96 -114 96 -210c0 -141 -57 -240 -215 -240c-23 0 -44 3 -62 7l-21 -52h-60v13l24 61c-65 39 -91 115 -91 209c0 141 57 239 214 239zM252 76c87 0 113 53 113 151c0 56 -10 98 -38 121l-104 -270 c9 -2 19 -2 29 -2zM137 229c0 -53 9 -95 35 -117l101 266c-7 1 -15 1 -22 1c-85 0 -114 -51 -114 -150z" />
<glyph unicode="&#x1ff;" horiz-adv-x="503" d="M253 466c20 0 39 -2 57 -5l19 50h64v-12l-25 -60c68 -37 96 -114 96 -210c0 -141 -57 -240 -215 -240c-23 0 -44 3 -62 7l-21 -52h-60v13l24 61c-65 39 -91 115 -91 209c0 141 57 239 214 239zM275 696h99l-87 -159h-87zM252 76c87 0 113 53 113 151c0 56 -10 98 -38 121 l-104 -270c9 -2 19 -2 29 -2zM137 229c0 -53 9 -95 35 -117l101 266c-7 1 -15 1 -22 1c-85 0 -114 -51 -114 -150z" />
<glyph unicode="&#x153;" horiz-adv-x="796" d="M582 73c50 -1 100 16 141 43l32 -74c-45 -31 -108 -53 -182 -53c-76 0 -128 31 -159 79c-32 -48 -85 -79 -165 -79c-151 0 -210 99 -210 238c0 141 57 239 214 239c80 0 132 -30 164 -79c32 48 83 79 154 79c133 0 187 -96 187 -194c0 -24 -3 -56 -7 -75h-285 c1 -77 37 -124 116 -124zM252 76c87 0 113 53 113 151c0 101 -27 152 -114 152c-85 0 -114 -51 -114 -150c0 -101 29 -153 115 -153zM467 270h198c1 6 1 12 1 16c0 64 -39 101 -95 101c-74 0 -100 -52 -104 -117z" />
<glyph unicode="&#x155;" horiz-adv-x="407" d="M37 374v82h155v-99c16 47 70 109 130 109c23 0 52 -2 71 -6l-8 -109l-78 16c-45 -3 -88 -31 -109 -74v-211h105v-82h-266v74l68 16v284h-68zM208 696h99l-87 -159h-87z" />
<glyph unicode="&#x159;" horiz-adv-x="407" d="M37 374v82h155v-99c16 47 70 109 130 109c23 0 52 -2 71 -6l-8 -109l-78 16c-45 -3 -88 -31 -109 -74v-211h105v-82h-266v74l68 16v284h-68zM270 537h-120l-89 159h86l63 -108l62 108h87z" />
<glyph unicode="&#x157;" horiz-adv-x="407" d="M37 374v82h155v-99c16 47 70 109 130 109c23 0 52 -2 71 -6l-8 -109l-78 16c-45 -3 -88 -31 -109 -74v-211h105v-82h-266v74l68 16v284h-68zM218 -66l-58 -150h-72l25 150h105z" />
<glyph unicode="&#x15b;" horiz-adv-x="435" d="M381 438v-123h-74l-13 69c-21 8 -43 12 -71 12c-50 0 -71 -28 -71 -58c0 -27 12 -44 48 -56l76 -23c79 -25 121 -64 121 -134s-52 -136 -183 -136c-63 0 -117 12 -166 32l-9 132h74l21 -79c20 -10 48 -16 80 -16c46 0 78 20 78 57c0 29 -18 46 -53 58l-80 25 c-70 22 -111 63 -111 130c0 65 43 138 174 138c56 0 119 -12 159 -28zM251 696h99l-87 -159h-87z" />
<glyph unicode="&#x15d;" horiz-adv-x="435" d="M381 438v-123h-74l-13 69c-21 8 -43 12 -71 12c-50 0 -71 -28 -71 -58c0 -27 12 -44 48 -56l76 -23c79 -25 121 -64 121 -134s-52 -136 -183 -136c-63 0 -117 12 -166 32l-9 132h74l21 -79c20 -10 48 -16 80 -16c46 0 78 20 78 57c0 29 -18 46 -53 58l-80 25 c-70 22 -111 63 -111 130c0 65 43 138 174 138c56 0 119 -12 159 -28zM161 696h120l89 -159h-87l-62 108l-63 -108h-86z" />
<glyph unicode="&#x161;" horiz-adv-x="435" d="M381 438v-123h-74l-13 69c-21 8 -43 12 -71 12c-50 0 -71 -28 -71 -58c0 -27 12 -44 48 -56l76 -23c79 -25 121 -64 121 -134s-52 -136 -183 -136c-63 0 -117 12 -166 32l-9 132h74l21 -79c20 -10 48 -16 80 -16c46 0 78 20 78 57c0 29 -18 46 -53 58l-80 25 c-70 22 -111 63 -111 130c0 65 43 138 174 138c56 0 119 -12 159 -28zM281 537h-120l-89 159h86l63 -108l62 108h87z" />
<glyph unicode="&#x15f;" horiz-adv-x="435" d="M381 438v-123h-74l-13 69c-21 8 -43 12 -71 12c-50 0 -71 -28 -71 -58c0 -27 12 -44 48 -56l76 -23c79 -25 121 -64 121 -134c0 -66 -46 -128 -161 -135l-18 -47c5 2 15 4 30 4c37 0 72 -26 72 -69c0 -46 -35 -77 -107 -77c-32 0 -65 8 -100 23l10 47 c32 -17 59 -25 85 -25c27 0 41 12 41 33c0 17 -13 31 -34 31c-14 0 -23 -5 -28 -8c0 0 -24 9 -36 14l28 74c-48 4 -91 15 -131 31l-9 132h74l21 -79c20 -10 48 -16 80 -16c46 0 78 20 78 57c0 29 -18 46 -53 58l-80 25c-70 22 -111 63 -111 130c0 65 43 138 174 138 c56 0 119 -12 159 -28z" />
<glyph unicode="&#x219;" horiz-adv-x="435" d="M381 438v-123h-74l-13 69c-21 8 -43 12 -71 12c-50 0 -71 -28 -71 -58c0 -27 12 -44 48 -56l76 -23c79 -25 121 -64 121 -134s-52 -136 -183 -136c-63 0 -117 12 -166 32l-9 132h74l21 -79c20 -10 48 -16 80 -16c46 0 78 20 78 57c0 29 -18 46 -53 58l-80 25 c-70 22 -111 63 -111 130c0 65 43 138 174 138c56 0 119 -12 159 -28zM280 -66l-58 -150h-72l25 150h105z" />
<glyph unicode="&#xdf;" horiz-adv-x="583" d="M89 90v404c0 127 60 212 191 212c135 0 192 -81 192 -168c0 -79 -84 -144 -84 -181c0 -23 23 -40 46 -57l38 -26c56 -39 90 -81 90 -143c0 -84 -68 -142 -167 -142c-50 0 -101 9 -145 30l-5 119h71l15 -72c16 -6 34 -8 54 -8c49 0 79 27 79 66c0 31 -17 57 -49 81l-49 38 c-45 34 -76 59 -76 108c0 62 84 105 84 178c0 61 -40 93 -96 93c-79 0 -97 -52 -97 -124v-498h-158v74z" />
<glyph unicode="&#x165;" horiz-adv-x="343" d="M191 374v-235c0 -39 20 -62 57 -62c18 0 49 4 70 10l6 -83c-24 -9 -68 -15 -103 -15c-87 0 -123 58 -123 138v247h-85v72l85 10v113l93 16v-129h117v-82h-117zM448 696l-58 -150h-72l25 150h105z" />
<glyph unicode="&#x163;" horiz-adv-x="344" d="M192 374v-235c0 -39 20 -62 57 -62c18 0 49 4 70 10l5 -83c-21 -7 -60 -14 -91 -15l-18 -46c6 2 15 4 30 4c37 0 72 -26 72 -69c0 -46 -35 -77 -107 -77c-31 0 -64 8 -100 23l10 47c32 -17 59 -25 85 -25c27 0 41 12 41 33c0 17 -13 31 -34 31c-14 0 -23 -5 -28 -8 c0 0 -23 9 -35 14l30 79c-56 16 -80 66 -80 132v247h-85v72l85 10v113l93 16v-129h116v-82h-116z" />
<glyph unicode="&#x21b;" horiz-adv-x="343" d="M191 374v-235c0 -39 20 -62 57 -62c18 0 49 4 70 10l6 -83c-24 -9 -68 -15 -103 -15c-87 0 -123 58 -123 138v247h-85v72l85 10v113l93 16v-129h117v-82h-117zM258 -66l-58 -150h-72l25 150h105z" />
<glyph unicode="&#x167;" horiz-adv-x="345" d="M194 374v-101h79v-60h-79v-74c0 -39 19 -62 56 -62c18 0 49 4 70 10l6 -83c-23 -9 -68 -15 -103 -15c-87 0 -122 58 -122 138v86h-68v60h68v101h-86v72l86 10v113l93 16v-129h116v-82h-116z" />
<glyph unicode="&#xfe;" horiz-adv-x="515" d="M261 -216h-251v77l57 13v740h-67v82h160v-284c24 31 60 54 122 54c130 0 194 -89 194 -239c0 -147 -61 -238 -194 -238c-63 0 -99 24 -122 51v-174h101v-82zM378 227c0 86 -25 151 -117 151c-50 0 -84 -25 -101 -49v-207c15 -19 46 -45 101 -45c92 0 117 63 117 150z" />
<glyph unicode="&#xf9;" horiz-adv-x="566" d="M477 456v-374h69v-82h-145v76c-25 -39 -82 -86 -169 -86c-101 0 -146 59 -146 177v207h-70v82h163v-280c0 -61 15 -98 89 -98c49 0 97 28 117 63v233h-89v82h181zM171 655h84l64 -135h-74z" />
<glyph unicode="&#xfa;" horiz-adv-x="566" d="M477 456v-374h69v-82h-145v76c-25 -39 -82 -86 -169 -86c-101 0 -146 59 -146 177v207h-70v82h163v-280c0 -61 15 -98 89 -98c49 0 97 28 117 63v233h-89v82h181zM281 655h84l-74 -135h-74z" />
<glyph unicode="&#xfb;" horiz-adv-x="566" d="M477 456v-374h69v-82h-145v76c-25 -39 -82 -86 -169 -86c-101 0 -146 59 -146 177v207h-70v82h163v-280c0 -61 15 -98 89 -98c49 0 97 28 117 63v233h-89v82h181zM212 696h120l89 -159h-87l-62 108l-63 -108h-86z" />
<glyph unicode="&#x169;" horiz-adv-x="566" d="M477 456v-374h69v-82h-145v76c-25 -39 -82 -86 -169 -86c-101 0 -146 59 -146 177v207h-70v82h163v-280c0 -61 15 -98 89 -98c49 0 97 28 117 63v233h-89v82h181zM162 525l-3 53c12 8 28 32 55 32c50 0 73 -40 112 -40c21 0 37 22 49 35l3 -52c-10 -9 -30 -33 -52 -33 c-44 0 -74 40 -112 40c-19 0 -37 -23 -52 -35z" />
<glyph unicode="&#xfc;" horiz-adv-x="566" d="M477 456v-374h69v-82h-145v76c-25 -39 -82 -86 -169 -86c-101 0 -146 59 -146 177v207h-70v82h163v-280c0 -61 15 -98 89 -98c49 0 97 28 117 63v233h-89v82h181zM178 548c-36 0 -62 17 -62 60s26 62 62 62c31 0 62 -19 62 -62s-31 -60 -62 -60zM366 548 c-36 0 -62 17 -62 60s26 62 62 62c31 0 62 -19 62 -62s-31 -60 -62 -60z" />
<glyph unicode="&#x16b;" horiz-adv-x="566" d="M477 456v-374h69v-82h-145v76c-25 -39 -82 -86 -169 -86c-101 0 -146 59 -146 177v207h-70v82h163v-280c0 -61 15 -98 89 -98c49 0 97 28 117 63v233h-89v82h181zM134 646h288v-79h-288v79z" />
<glyph unicode="&#x16d;" horiz-adv-x="566" d="M477 456v-374h69v-82h-145v76c-25 -39 -82 -86 -169 -86c-101 0 -146 59 -146 177v207h-70v82h163v-280c0 -61 15 -98 89 -98c49 0 97 28 117 63v233h-89v82h181zM357 685h66c0 -81 -52 -144 -145 -144c-90 0 -142 63 -142 144h64c4 -42 33 -73 78 -73c46 0 75 31 79 73z " />
<glyph unicode="&#x16f;" horiz-adv-x="566" d="M477 456v-374h69v-82h-145v76c-25 -39 -82 -86 -169 -86c-101 0 -146 59 -146 177v207h-70v82h163v-280c0 -61 15 -98 89 -98c49 0 97 28 117 63v233h-89v82h181zM165 621c0 53 38 97 105 97c70 0 108 -44 108 -97c0 -51 -38 -96 -108 -96c-67 0 -105 45 -105 96z M223 621c0 -25 17 -44 47 -44c32 0 49 19 49 44s-17 46 -49 46c-30 0 -47 -21 -47 -46z" />
<glyph unicode="&#x171;" horiz-adv-x="566" d="M477 456v-374h69v-82h-145v76c-25 -39 -82 -86 -169 -86c-101 0 -146 59 -146 177v207h-70v82h163v-280c0 -61 15 -98 89 -98c49 0 97 28 117 63v233h-89v82h181zM219 696h99l-87 -159h-87zM385 696h99l-87 -159h-87z" />
<glyph unicode="&#x173;" horiz-adv-x="566" d="M477 456v-374h69v-82l-82 -53c-22 -15 -31 -28 -31 -45s13 -28 33 -28c29 0 49 11 58 16l5 -68c-12 -6 -43 -19 -80 -19c-69 0 -111 29 -111 82c0 35 19 63 54 84l52 31h-43v76c-25 -39 -82 -86 -169 -86c-101 0 -146 59 -146 177v207h-70v82h163v-280 c0 -61 15 -98 89 -98c49 0 97 28 117 63v233h-89v82h181z" />
<glyph unicode="&#x1e83;" horiz-adv-x="787" d="M545 374v82h231v-82h-57l-113 -374h-109l-101 260l-108 -260h-105l-118 374h-54v82h228v-82h-77l82 -284l107 262l-38 104h98l135 -365l77 283h-78zM404 696h99l-87 -159h-87z" />
<glyph unicode="&#x175;" horiz-adv-x="787" d="M545 374v82h231v-82h-57l-113 -374h-109l-101 260l-108 -260h-105l-118 374h-54v82h228v-82h-77l82 -284l107 262l-38 104h98l135 -365l77 283h-78zM334 696h120l89 -159h-87l-62 108l-63 -108h-86z" />
<glyph unicode="&#x1e85;" horiz-adv-x="787" d="M545 374v82h231v-82h-57l-113 -374h-109l-101 260l-108 -260h-105l-118 374h-54v82h228v-82h-77l82 -284l107 262l-38 104h98l135 -365l77 283h-78zM299 548c-36 0 -62 17 -62 60s26 62 62 62c31 0 62 -19 62 -62s-31 -60 -62 -60zM487 548c-36 0 -62 17 -62 60 s26 62 62 62c31 0 62 -19 62 -62s-31 -60 -62 -60z" />
<glyph unicode="&#x1e81;" horiz-adv-x="787" d="M545 374v82h231v-82h-57l-113 -374h-109l-101 260l-108 -260h-105l-118 374h-54v82h228v-82h-77l82 -284l107 262l-38 104h98l135 -365l77 283h-78zM280 696h99l75 -159h-87z" />
<glyph unicode="&#xfd;" horiz-adv-x="572" d="M66 -210v71h121l65 146l-160 367h-84v82h185v-80l105 -263l111 261h-109v82h263v-82h-60l-219 -511c-30 -69 -74 -89 -126 -89c-37 0 -70 6 -92 16zM302 655h84l-74 -135h-74z" />
<glyph unicode="&#x177;" horiz-adv-x="572" d="M66 -210v71h121l65 146l-160 367h-84v82h185v-80l105 -263l111 261h-109v82h263v-82h-60l-219 -511c-30 -69 -74 -89 -126 -89c-37 0 -70 6 -92 16zM232 696h120l89 -159h-87l-62 108l-63 -108h-86z" />
<glyph unicode="&#xff;" horiz-adv-x="572" d="M66 -210v71h121l65 146l-160 367h-84v82h185v-80l105 -263l111 261h-109v82h263v-82h-60l-219 -511c-30 -69 -74 -89 -126 -89c-37 0 -70 6 -92 16zM198 548c-36 0 -62 17 -62 60s26 62 62 62c31 0 62 -19 62 -62s-31 -60 -62 -60zM386 548c-36 0 -62 17 -62 60 s26 62 62 62c31 0 62 -19 62 -62s-31 -60 -62 -60z" />
<glyph unicode="&#x1ef3;" horiz-adv-x="572" d="M66 -210v71h121l65 146l-160 367h-84v82h185v-80l105 -263l111 261h-109v82h263v-82h-60l-219 -511c-30 -69 -74 -89 -126 -89c-37 0 -70 6 -92 16zM184 655h84l64 -135h-74z" />
<glyph unicode="&#x17a;" horiz-adv-x="451" d="M402 456v-66l-243 -317h171l10 89h70v-162h-373v66l244 318h-152l-9 -81h-72v153h354zM238 696h99l-87 -159h-87z" />
<glyph unicode="&#x17e;" horiz-adv-x="451" d="M402 456v-66l-243 -317h171l10 89h70v-162h-373v66l244 318h-152l-9 -81h-72v153h354zM284 537h-120l-89 159h86l63 -108l62 108h87z" />
<glyph unicode="&#x17c;" horiz-adv-x="451" d="M402 456v-66l-243 -317h171l10 89h70v-162h-373v66l244 318h-152l-9 -81h-72v153h354zM224 548c-36 0 -62 17 -62 60s26 62 62 62c31 0 62 -19 62 -62s-31 -60 -62 -60z" />
<glyph unicode="&#x132;" horiz-adv-x="648" d="M40 0v83h82v510h-82v83h258v-83h-78v-510h78v-83h-258zM357 593v83h254v-83h-65v-567c0 -115 -45 -196 -140 -253l-60 67c65 43 102 90 102 175v578h-91z" />
<glyph unicode="&#x133;" horiz-adv-x="584" d="M32 0v82h98v292h-98v82h191v-374h92v-82h-283zM172 558c-36 0 -62 17 -62 60s26 62 62 62c31 0 62 -19 62 -62s-31 -60 -62 -60zM395 -226l-53 69c56 29 82 62 82 132v399h-83v82h176v-471c0 -88 -24 -166 -122 -211zM465 558c-36 0 -63 17 -63 60s27 62 63 62 c31 0 62 -19 62 -62s-31 -60 -62 -60z" />
<glyph unicode="&#xb4;" horiz-adv-x="600" d="M288 696h99l-87 -159h-87z" />
<glyph unicode="&#x2c6;" horiz-adv-x="600" d="M240 696h120l89 -159h-87l-62 108l-63 -108h-86z" />
<glyph unicode="&#x2c7;" horiz-adv-x="690" d="M433 0v83h84l-44 124h-256l-46 -124h85v-83h-251v83h60l193 510h-59v83h292v-83h-57l191 -510h60v-83h-252zM241 292h209l-105 285zM410 847h56c0 -69 -44 -122 -123 -122c-76 0 -120 53 -120 122h54c3 -36 28 -62 66 -62c39 0 64 26 67 62z" />
<glyph unicode="&#x2dc;" horiz-adv-x="600" d="M443 642l-4 -74c-20 15 -44 25 -68 25c-50 0 -88 -38 -146 -38c-30 0 -56 12 -69 23l4 73c17 -16 37 -24 65 -24c50 0 81 38 146 38c35 0 56 -13 72 -23z" />
<glyph unicode="&#xa8;" horiz-adv-x="600" d="M206 548c-36 0 -62 17 -62 60s26 62 62 62c31 0 62 -19 62 -62s-31 -60 -62 -60zM394 548c-36 0 -62 17 -62 60s26 62 62 62c31 0 62 -19 62 -62s-31 -60 -62 -60z" />
<glyph unicode="&#xaf;" horiz-adv-x="600" d="M156 646h288v-79h-288v79z" />
<glyph unicode="&#x2d8;" horiz-adv-x="600" d="M377 685h66c0 -81 -52 -144 -145 -144c-90 0 -142 63 -142 144h64c4 -42 33 -73 78 -73c46 0 75 31 79 73z" />
<glyph unicode="&#x2da;" horiz-adv-x="600" d="M193 621c0 53 38 97 105 97c70 0 108 -44 108 -97c0 -51 -38 -96 -108 -96c-67 0 -105 45 -105 96zM251 621c0 -25 17 -44 47 -44c32 0 49 19 49 44s-17 46 -49 46c-30 0 -47 -21 -47 -46z" />
<glyph unicode="&#x2dd;" horiz-adv-x="600" d="M205 696h99l-87 -159h-87zM371 696h99l-87 -159h-87z" />
<glyph unicode="&#x2d9;" horiz-adv-x="600" d="M300 548c-36 0 -62 17 -62 60s26 62 62 62c31 0 62 -19 62 -62s-31 -60 -62 -60z" />
<glyph unicode="&#xb8;" horiz-adv-x="600" d="M267 0l56 1l-22 -58c6 2 15 4 30 4c37 0 72 -26 72 -69c0 -46 -35 -77 -107 -77c-31 0 -64 8 -100 23l10 47c32 -17 59 -25 85 -25c27 0 41 12 41 33c0 17 -13 31 -34 31c-14 0 -23 -5 -28 -8c0 0 -23 9 -35 14z" />
<glyph unicode="&#x2db;" horiz-adv-x="600" d="M402 1l1 -1l-82 -53c-22 -15 -31 -28 -31 -45s14 -28 33 -28c29 0 49 11 58 16l5 -68c-12 -6 -43 -19 -80 -19c-69 0 -111 29 -111 82c0 35 19 63 55 84l98 55z" />
<glyph unicode="&#xf6c3;" horiz-adv-x="600" d="M365 -66l-58 -150h-72l25 150h105z" />
<glyph unicode="&#x2026;" horiz-adv-x="630" d="M109 -6c-39 0 -67 27 -67 64c0 38 28 66 67 66s68 -28 68 -66c0 -37 -29 -64 -68 -64zM512 -6c-39 0 -67 27 -67 64c0 38 28 66 67 66s68 -28 68 -66c0 -37 -29 -64 -68 -64zM312 -6c-39 0 -67 27 -67 64c0 38 28 66 67 66s68 -28 68 -66c0 -37 -29 -64 -68 -64z" />
<glyph unicode="&#xad;" d="M105 315h350v-91h-350v91z" />
<glyph unicode="&#xa1;" horiz-adv-x="238" d="M80 243h79l17 -459h-115zM119 466c39 0 68 -28 68 -65c0 -38 -29 -65 -68 -65s-68 27 -68 65c0 37 29 65 68 65z" />
<glyph unicode="&#xbf;" horiz-adv-x="453" d="M328 -29h75l14 -130c-42 -38 -101 -67 -187 -67c-125 0 -192 74 -192 162c0 117 92 169 149 198v109h98v-154c-82 -32 -150 -71 -150 -139c0 -45 30 -88 101 -88c38 0 69 12 92 27v82zM237 466c39 0 68 -28 68 -65c0 -38 -29 -65 -68 -65s-68 27 -68 65c0 37 29 65 68 65 z" />
<glyph unicode="&#x2018;" horiz-adv-x="204" d="M34 440l58 236h72l-25 -236h-105z" />
<glyph unicode="&#x2019;" horiz-adv-x="200" d="M174 676l-58 -236h-72l25 236h105z" />
<glyph unicode="&#x201c;" horiz-adv-x="356" d="M186 440l58 236h72l-25 -236h-105zM34 440l58 236h72l-25 -236h-105z" />
<glyph unicode="&#x201d;" horiz-adv-x="352" d="M174 676l-58 -236h-72l25 236h105zM326 676l-57 -236h-73l25 236h105z" />
<glyph unicode="&#x201a;" horiz-adv-x="208" d="M164 125l-58 -236h-72l25 236h105z" />
<glyph unicode="&#x201e;" horiz-adv-x="362" d="M165 124l-58 -235h-72l25 235h105zM317 124l-58 -235h-72l25 235h105z" />
<glyph unicode="&#x2039;" horiz-adv-x="320" d="M29 270l187 221l61 -47l-131 -175l132 -174l-62 -46z" />
<glyph unicode="&#x203a;" horiz-adv-x="320" d="M103 491l187 -221l-187 -221l-61 46l132 174l-132 175z" />
<glyph unicode="&#xab;" horiz-adv-x="521" d="M29 270l187 221l61 -47l-131 -175l132 -174l-62 -46zM231 270l187 221l61 -47l-132 -175l132 -174l-61 -46z" />
<glyph unicode="&#xbb;" horiz-adv-x="521" d="M305 491l187 -221l-187 -221l-62 46l132 174l-131 175zM103 491l187 -221l-187 -221l-61 46l132 174l-132 175z" />
<glyph unicode="&#x2013;" horiz-adv-x="582" d="M56 315h470v-91h-470v91z" />
<glyph unicode="&#x2014;" horiz-adv-x="722" d="M56 315h610v-91h-610v91z" />
<glyph unicode="&#x2022;" d="M280 152c-71 0 -123 50 -123 117c0 68 52 118 123 118s122 -50 122 -118c0 -67 -51 -117 -122 -117z" />
<glyph unicode="&#xb7;" horiz-adv-x="229" d="M114 204c-39 0 -67 27 -67 64c0 38 28 66 67 66s68 -28 68 -66c0 -37 -29 -64 -68 -64z" />
<glyph unicode="&#x2219;" horiz-adv-x="229" d="M114 204c-39 0 -67 27 -67 64c0 38 28 66 67 66s68 -28 68 -66c0 -37 -29 -64 -68 -64z" />
<glyph unicode="&#x2020;" horiz-adv-x="432" d="M33 302h149v394h69v-394h148v-65h-148v-453h-69v453h-149v65z" />
<glyph unicode="&#x2021;" horiz-adv-x="454" d="M44 449h148v247h68v-247h150v-65h-150v-290h150v-65h-150v-245h-68v245h-148v65h148v290h-148v65z" />
<glyph unicode="&#xa7;" horiz-adv-x="556" d="M502 272c0 -45 -24 -90 -69 -121c43 -27 67 -59 67 -109c0 -85 -69 -156 -231 -156c-81 0 -152 18 -204 49v132h73l14 -79c25 -13 76 -25 116 -25c78 0 127 19 127 66c0 39 -51 59 -94 75l-102 37c-88 32 -142 77 -142 152c0 45 23 92 67 124c-41 26 -65 62 -65 110 c0 76 60 159 220 159c71 0 149 -19 203 -44v-125h-74l-15 70c-31 12 -73 20 -113 20c-76 0 -117 -25 -117 -67c0 -40 41 -58 103 -80l81 -28c100 -35 155 -80 155 -160zM201 382c-27 -17 -43 -44 -43 -71c0 -43 44 -69 100 -89l98 -37c23 16 45 41 45 71 c0 56 -58 76 -100 91z" />
<glyph unicode="&#xb6;" horiz-adv-x="535" d="M204 456h111v-486h-86v187h-25c-118 0 -171 58 -171 149c0 89 53 150 171 150zM342 -227l-51 62c56 30 80 64 80 134v487h86v-471c0 -88 -18 -166 -115 -212z" />
<glyph unicode="&#xa6;" horiz-adv-x="213" d="M138 306h-63v390h63v-390zM75 170h63v-386h-63v386z" />
<glyph unicode="&#xa9;" horiz-adv-x="826" d="M50 336c0 215 156 363 363 363c208 0 362 -148 362 -363c0 -213 -154 -364 -362 -364c-207 0 -363 151 -363 364zM124 336c0 -177 121 -293 289 -293s288 116 288 293c0 178 -120 292 -288 292s-289 -114 -289 -292zM310 335c0 -68 24 -129 102 -129c49 0 86 14 128 37 l20 -66c-42 -25 -89 -45 -148 -45c-133 0 -186 79 -186 203c0 120 67 201 191 201c51 0 94 -13 130 -30v-132h-66v76c-16 7 -38 12 -64 12c-73 0 -107 -49 -107 -127z" />
<glyph unicode="&#x2117;" horiz-adv-x="826" d="M50 336c0 215 156 363 363 363c208 0 362 -148 362 -363c0 -213 -154 -364 -362 -364c-207 0 -363 151 -363 364zM124 336c0 -177 121 -293 289 -293s288 116 288 293c0 178 -120 292 -288 292s-289 -114 -289 -292zM265 531h171c105 0 153 -52 153 -126 s-48 -124 -153 -124h-55v-86h70v-59h-186v59h44v276h-44v60zM513 406c0 34 -18 65 -75 65h-57v-129h57c57 0 75 29 75 64z" />
<glyph unicode="&#xae;" horiz-adv-x="826" d="M50 336c0 215 156 363 363 363c208 0 362 -148 362 -363c0 -213 -154 -364 -362 -364c-207 0 -363 151 -363 364zM124 336c0 -177 121 -293 289 -293s288 116 288 293c0 178 -120 292 -288 292s-289 -114 -289 -292zM280 192v283h-44v56h189c107 0 149 -44 149 -117 c0 -55 -32 -95 -90 -108l77 -114h43v-56h-163v56h43l-68 106h-65v-106h43v-56h-158v56h44zM502 413c0 32 -19 62 -77 62h-74v-121h69c61 0 82 28 82 59z" />
<glyph unicode="&#x2122;" horiz-adv-x="693" d="M76 607h204v-77h-41v37h-37v-158h33v-39h-116v39h33v158h-33v-37h-43v77zM465 425l48 182h96v-40h-23l17 -158h26v-39h-100v39h27l-13 144l-52 -183h-55l-47 181l-15 -142h28v-39h-100v39h24l18 158h-23v40h98z" />
<glyph unicode="&#xa4;" d="M424 351c7 -20 12 -49 12 -77c0 -29 -4 -55 -13 -78l81 -83l-66 -66l-79 78c-21 -12 -49 -18 -81 -18c-33 0 -62 6 -83 18l-74 -74l-62 62l76 79c-10 23 -14 51 -14 81c0 28 4 53 12 75l-78 82l66 65l75 -75c21 13 51 20 84 20c34 0 64 -8 85 -21l75 74l61 -61zM279 193 c53 0 73 30 73 80c0 51 -21 81 -73 81c-53 0 -74 -30 -74 -80c0 -51 21 -81 74 -81z" />
<glyph unicode="&#x20ac;" d="M35 436h55c22 153 101 250 260 250c68 0 122 -16 175 -42l-33 -85c-39 20 -87 37 -145 37c-94 0 -139 -64 -154 -160h254l-25 -67h-235c-1 -10 -1 -19 -1 -29c0 -14 1 -27 2 -40h210l-24 -67h-177c19 -90 67 -151 157 -151c46 0 96 10 149 39l23 -87 c-51 -28 -109 -45 -176 -45c-152 0 -235 89 -259 244h-56v67h49c-1 13 -1 26 -1 40c0 10 0 19 1 29h-49v67z" />
<glyph unicode="&#xa2;" d="M404 528l-17 -71c37 -8 71 -22 96 -38l-24 -78c-26 15 -58 26 -93 32l-71 -295c14 -1 30 -1 46 1c45 2 87 17 118 36l24 -79c-47 -27 -113 -47 -183 -47c-9 0 -18 1 -26 2l-15 -61l-53 12l14 59c-96 31 -137 122 -137 228c0 129 67 238 217 238c10 0 21 -1 32 -2l18 75z M186 236c0 -62 16 -115 57 -141l68 284c-86 -3 -125 -55 -125 -143z" />
<glyph unicode="&#xa3;" d="M50 300h65v144c0 133 57 242 215 242c83 0 138 -18 183 -38l-18 -166h-74v106c-21 7 -51 14 -88 14c-88 0 -119 -63 -119 -159v-143h182v-67h-182v-151h284v-82h-448v67l65 32v134h-65v67z" />
<glyph unicode="&#x192;" d="M322 374v-447c0 -81 -40 -153 -151 -153c-18 0 -46 5 -60 10v81c18 -2 39 -4 61 -4c44 0 58 27 58 73v440h-94v82h94v97c0 81 40 153 151 153c18 0 46 -5 59 -10v-81c-18 2 -38 4 -61 4c-43 0 -57 -27 -57 -73v-90h103v-82h-103z" />
<glyph unicode="&#xa5;" d="M51 300h161l-38 69h-123v67h87l-87 157h-59v83h240v-83h-77l123 -239l126 239h-77v83h240v-83h-58l-91 -157h89v-67h-126l-40 -69h166v-67h-181v-150h77v-83h-257v83h82v150h-177v67z" />
<glyph unicode="&#x20a8;" horiz-adv-x="557" d="M53 676l449 1v-67h-122c25 -27 39 -61 43 -101h79v-67h-79c-11 -79 -64 -135 -150 -154c64 -47 118 -128 140 -205h81v-83h-252v83h64c-16 66 -74 152 -138 195h-115v81h107c99 0 143 26 158 83h-264v67h265c-14 58 -51 84 -149 84h-117v83z" />
<glyph unicode="&#xaa;" horiz-adv-x="362" d="M113 431c0 -19 13 -31 37 -31c26 0 52 13 68 27v43h-36c-52 0 -69 -16 -69 -39zM124 573v-36h-57l-7 75c25 15 68 27 112 27c71 0 116 -25 116 -93v-123c0 -10 4 -16 15 -16c2 0 18 0 19 1v-58c-12 -3 -26 -4 -40 -4c-36 0 -54 16 -59 41c-16 -21 -44 -44 -91 -44 c-61 0 -93 33 -93 83c0 71 57 89 142 89h37v26c0 26 -14 40 -46 40c-19 0 -37 -4 -48 -8z" />
<glyph unicode="&#xba;" horiz-adv-x="351" d="M176 639c97 0 136 -64 136 -147c0 -86 -38 -149 -138 -149c-97 0 -136 64 -136 148s39 148 138 148zM176 406c49 0 65 33 65 85c0 53 -17 85 -66 85s-66 -33 -66 -84c0 -53 17 -86 67 -86z" />
<glyph unicode="&#xb9;" horiz-adv-x="297" d="M38 430v63h94v221l-90 -30l-16 57l116 47h65v-295h77v-63h-246z" />
<glyph unicode="&#xb2;" horiz-adv-x="332" d="M299 430h-265v52c34 28 90 77 122 107c32 31 55 54 55 94c0 29 -20 47 -50 47c-33 0 -52 -16 -52 -45c0 -7 1 -19 3 -25l-75 -5c-3 8 -4 20 -4 31c0 59 41 107 128 107s128 -48 128 -110c0 -56 -50 -102 -82 -129l-74 -61h105v37h61v-100z" />
<glyph unicode="&#xb3;" horiz-adv-x="324" d="M96 684h-54l-7 76c25 17 67 33 116 33c101 0 129 -57 129 -100c0 -47 -28 -75 -64 -84c38 -8 75 -30 75 -82c0 -63 -47 -103 -142 -103c-54 0 -101 19 -125 38l34 55c23 -18 53 -30 91 -30c47 0 65 18 65 43c0 31 -20 43 -74 43h-43v63h40c40 0 66 17 66 47 c0 28 -16 47 -54 47c-22 0 -38 -4 -53 -11v-35z" />
<glyph unicode="&#x2044;" horiz-adv-x="126" d="M305 676v-11l-412 -665h-72v11l409 665h75z" />
<glyph unicode="&#x2215;" horiz-adv-x="126" d="M305 676v-11l-412 -665h-72v11l409 665h75z" />
<glyph unicode="&#xbd;" horiz-adv-x="764" d="M55 318v63h94v221l-90 -30l-16 57l116 47h65v-295h77v-63h-246zM718 0h-264v52c34 29 90 77 121 107c33 32 55 55 55 94c0 30 -19 48 -50 48c-32 0 -52 -16 -52 -46c0 -7 2 -18 4 -25l-75 -5c-3 8 -4 20 -4 31c0 59 40 107 127 107s128 -47 128 -109 c0 -57 -50 -103 -82 -130l-73 -61h104v37h61v-100zM638 676v-11l-412 -665h-72v11l409 665h75z" />
<glyph unicode="&#x2153;" horiz-adv-x="776" d="M638 676v-11l-412 -665h-72v11l409 665h75zM538 255h-55l-6 75c25 17 67 33 116 33c100 0 128 -56 128 -99c0 -47 -27 -75 -63 -85c37 -7 75 -29 75 -82c0 -62 -47 -103 -142 -103c-55 0 -101 19 -126 39l35 54c22 -17 52 -29 91 -29c46 0 64 17 64 43 c0 30 -20 43 -73 43h-43v62h40c40 0 66 17 66 48c0 27 -17 46 -55 46c-21 0 -38 -4 -52 -10v-35zM55 318v63h94v221l-90 -30l-16 57l116 47h65v-295h77v-63h-246z" />
<glyph unicode="&#xbc;" horiz-adv-x="729" d="M638 676v-11l-412 -665h-72v11l409 665h75zM685 129v-58h-54v-71h-74v71h-179v52l130 178c22 30 36 57 36 57h87v-229h54zM459 129h98v139zM55 318v63h94v221l-90 -30l-16 57l116 47h65v-295h77v-63h-246z" />
<glyph unicode="&#x215b;" horiz-adv-x="779" d="M638 676v-11l-412 -665h-72v11l409 665h75zM726 265c0 -36 -26 -63 -50 -78c33 -16 60 -42 60 -85c0 -66 -57 -108 -144 -108c-84 0 -142 39 -142 103c0 39 25 67 52 81c-25 16 -43 41 -43 82c0 58 51 103 133 103c87 0 134 -43 134 -98zM550 156 c-15 -13 -25 -28 -25 -49c0 -30 24 -51 71 -51c42 0 62 17 62 40c0 19 -19 32 -44 39zM534 264c0 -16 11 -29 37 -38l51 -18c17 10 30 26 30 47c0 25 -19 49 -65 49c-34 0 -53 -15 -53 -40zM55 318v63h94v221l-90 -30l-16 57l116 47h65v-295h77v-63h-246z" />
<glyph unicode="&#x2154;" horiz-adv-x="795" d="M657 676v-11l-412 -665h-72v11l409 665h75zM557 255h-55l-6 75c25 17 67 33 116 33c100 0 128 -56 128 -99c0 -47 -27 -75 -63 -85c37 -7 75 -29 75 -82c0 -62 -47 -103 -142 -103c-55 0 -101 19 -126 39l35 54c22 -17 52 -29 91 -29c46 0 64 17 64 43 c0 30 -20 43 -73 43h-43v62h40c40 0 66 17 66 48c0 27 -17 46 -55 46c-21 0 -38 -4 -52 -10v-35zM315 318h-265v52c34 28 90 77 122 107c32 31 55 54 55 94c0 29 -20 47 -50 47c-33 0 -52 -16 -52 -45c0 -7 1 -19 3 -25l-75 -5c-3 8 -4 20 -4 31c0 59 41 107 128 107 s128 -48 128 -110c0 -56 -50 -102 -82 -129l-74 -61h105v37h61v-100z" />
<glyph unicode="&#xbe;" horiz-adv-x="707" d="M615 676v-11l-412 -665h-72v11l409 665h75zM114 572h-54l-7 76c25 17 67 33 116 33c101 0 129 -57 129 -100c0 -47 -28 -75 -64 -84c38 -8 75 -30 75 -82c0 -63 -47 -103 -142 -103c-54 0 -101 19 -125 38l34 55c23 -18 53 -30 91 -30c47 0 65 18 65 43 c0 31 -20 43 -74 43h-43v63h40c40 0 66 17 66 47c0 28 -16 47 -54 47c-22 0 -38 -4 -53 -11v-35zM663 129v-58h-54v-71h-74v71h-179v52l130 178c22 30 36 57 36 57h87v-229h54zM437 129h98v139z" />
<glyph unicode="&#x215c;" horiz-adv-x="755" d="M615 676v-11l-412 -665h-72v11l409 665h75zM114 572h-54l-7 76c25 17 67 33 116 33c101 0 129 -57 129 -100c0 -47 -28 -75 -64 -84c38 -8 75 -30 75 -82c0 -63 -47 -103 -142 -103c-54 0 -101 19 -125 38l34 55c23 -18 53 -30 91 -30c47 0 65 18 65 43 c0 31 -20 43 -74 43h-43v63h40c40 0 66 17 66 47c0 28 -16 47 -54 47c-22 0 -38 -4 -53 -11v-35zM703 265c0 -36 -26 -63 -50 -78c33 -16 60 -42 60 -85c0 -66 -57 -108 -144 -108c-84 0 -142 39 -142 103c0 39 25 67 52 81c-25 16 -43 41 -43 82c0 58 51 103 133 103 c87 0 134 -43 134 -98zM527 156c-15 -13 -25 -28 -25 -49c0 -30 24 -51 71 -51c42 0 62 17 62 40c0 19 -19 32 -44 39zM511 264c0 -16 11 -29 37 -38l51 -18c17 10 30 26 30 47c0 25 -19 49 -65 49c-34 0 -53 -15 -53 -40z" />
<glyph unicode="&#x215d;" horiz-adv-x="747" d="M607 676v-11l-412 -665h-72v11l409 665h75zM695 265c0 -36 -26 -63 -50 -78c33 -16 60 -42 60 -85c0 -66 -57 -108 -144 -108c-84 0 -142 39 -142 103c0 39 25 67 52 81c-25 16 -43 41 -43 82c0 58 51 103 133 103c87 0 134 -43 134 -98zM519 156 c-15 -13 -25 -28 -25 -49c0 -30 24 -51 71 -51c42 0 62 17 62 40c0 19 -19 32 -44 39zM503 264c0 -16 11 -29 37 -38l51 -18c17 10 30 26 30 47c0 25 -19 49 -65 49c-34 0 -53 -15 -53 -40zM44 342l7 83h61v-42c14 -5 31 -8 50 -8c47 0 70 22 70 56s-22 55 -70 55 c-30 0 -54 -6 -80 -14l-23 9l26 195h211v-63h-151l-10 -72c12 4 33 9 59 9c74 0 116 -46 116 -116c0 -75 -51 -122 -147 -122c-53 0 -92 15 -119 30z" />
<glyph unicode="&#x215e;" horiz-adv-x="697" d="M557 676v-11l-412 -665h-72v11l409 665h75zM645 265c0 -36 -26 -63 -50 -78c33 -16 60 -42 60 -85c0 -66 -57 -108 -144 -108c-84 0 -142 39 -142 103c0 39 25 67 52 81c-25 16 -43 41 -43 82c0 58 51 103 133 103c87 0 134 -43 134 -98zM469 156 c-15 -13 -25 -28 -25 -49c0 -30 24 -51 71 -51c42 0 62 17 62 40c0 19 -19 32 -44 39zM453 264c0 -16 11 -29 37 -38l51 -18c17 10 30 26 30 47c0 25 -19 49 -65 49c-34 0 -53 -15 -53 -40zM87 318l137 300h-108v-63h-70v121h269l-1 -49c-14 -21 -31 -52 -46 -87l-96 -222 h-85z" />
<glyph unicode="&#x2030;" horiz-adv-x="1080" d="M615 676v-11l-412 -665h-73v11l409 665h76zM196 686c109 0 155 -73 155 -160c0 -89 -48 -161 -155 -161c-105 0 -153 72 -153 161c0 87 50 160 153 160zM196 444c51 0 74 33 74 82c0 48 -23 81 -74 81c-49 0 -71 -33 -71 -81c0 -49 22 -82 71 -82zM549 310 c108 0 155 -73 155 -159c0 -90 -49 -162 -155 -162s-153 72 -153 162c0 86 49 159 153 159zM549 68c51 0 73 33 73 83c0 47 -22 80 -73 80c-50 0 -72 -33 -72 -80c0 -50 22 -83 72 -83zM888 310c109 0 155 -73 155 -159c0 -90 -49 -162 -155 -162s-153 72 -153 162 c0 86 50 159 153 159zM888 68c51 0 73 33 73 83c0 47 -22 80 -73 80c-50 0 -72 -33 -72 -80c0 -50 22 -83 72 -83z" />
<glyph unicode="&#x2212;" d="M43 225v91h473v-91h-473z" />
<glyph unicode="&#xb1;" d="M43 360v91h187v192h97v-192h189v-91h-189v-158h-97v158h-187zM43 28v91h473v-91h-473z" />
<glyph unicode="&#xd7;" d="M123 49l-64 65l153 153l-157 157l68 69l158 -158l155 156l64 -64l-155 -156l158 -158l-69 -68l-157 158z" />
<glyph unicode="&#xf7;" d="M43 225v91h473v-91h-473zM282 22c-39 0 -68 28 -68 65c0 38 29 66 68 66s68 -28 68 -66c0 -37 -29 -65 -68 -65zM282 386c-39 0 -68 28 -68 66s29 65 68 65s68 -27 68 -65s-29 -66 -68 -66z" />
<glyph unicode="&#x2260;" d="M76 203h154l33 134h-187v91h209l27 112l54 -12l-25 -100h141v-91h-163l-34 -134h197v-91h-219l-29 -118l-52 12l26 106h-132v91z" />
<glyph unicode="&#x2248;" d="M477 426l10 -86c-25 -28 -57 -48 -103 -48c-75 0 -145 67 -210 67c-41 0 -73 -32 -91 -43l-10 86c28 27 69 48 109 48c67 0 135 -67 208 -67c35 0 71 31 87 43zM477 226l10 -86c-25 -28 -57 -48 -103 -48c-75 0 -145 67 -210 67c-41 0 -73 -32 -91 -43l-10 86 c28 27 69 48 109 48c67 0 135 -67 208 -67c35 0 71 31 87 43z" />
<glyph unicode="&#x2264;" d="M71 339v105l406 169v-94l-317 -128l317 -127v-94zM71 119h406v-91h-406v91z" />
<glyph unicode="&#x2265;" d="M489 444v-105l-406 -169v94l316 127l-316 128v94zM83 119h405v-91h-405v91z" />
<glyph unicode="&#xac;" horiz-adv-x="599" d="M55 324v91h473v-273h-93v182h-380z" />
<glyph unicode="&#x2206;" horiz-adv-x="718" d="M29 0l272 676h117l270 -676h-659zM546 83l-187 492l-189 -492h376z" />
<glyph unicode="&#x394;" horiz-adv-x="718" d="M29 0l272 676h117l270 -676h-659zM546 83l-187 492l-189 -492h376z" />
<glyph unicode="&#x2126;" horiz-adv-x="717" d="M53 83h152c-75 57 -144 160 -144 282c0 167 84 322 296 322c215 0 299 -155 299 -322c0 -122 -70 -225 -145 -282h153v-83h-261v83c77 55 147 154 147 276c0 136 -55 238 -193 238c-135 0 -190 -102 -190 -238c0 -122 71 -221 147 -276v-83h-261v83z" />
<glyph unicode="&#x3a9;" horiz-adv-x="717" d="M53 83h152c-75 57 -144 160 -144 282c0 167 84 322 296 322c215 0 299 -155 299 -322c0 -122 -70 -225 -145 -282h153v-83h-261v83c77 55 147 154 147 276c0 136 -55 238 -193 238c-135 0 -190 -102 -190 -238c0 -122 71 -221 147 -276v-83h-261v83z" />
<glyph unicode="&#xb5;" horiz-adv-x="607" d="M203 -216h-93v590h-70v82h163v-280c0 -61 20 -98 93 -98c49 0 93 28 113 63v233h-89v82h181v-374h69v-82h-144v76c-26 -39 -78 -86 -165 -86c-26 0 -45 5 -58 15v-221z" />
<glyph unicode="&#x3bc;" horiz-adv-x="607" d="M203 -216h-93v590h-70v82h163v-280c0 -61 20 -98 93 -98c49 0 93 28 113 63v233h-89v82h181v-374h69v-82h-144v76c-26 -39 -78 -86 -165 -86c-26 0 -45 5 -58 15v-221z" />
<glyph unicode="&#x3c0;" horiz-adv-x="570" d="M107 0v374h-92v82h526v-82h-96v-236c0 -39 19 -61 56 -61c8 0 18 0 29 2v-85c-18 -3 -39 -5 -56 -5c-88 0 -122 58 -122 138v247h-152v-374h-93z" />
<glyph unicode="&#xb0;" horiz-adv-x="342" d="M34 546c0 76 50 140 135 140c89 0 139 -64 139 -140c0 -73 -50 -138 -139 -138c-85 0 -135 65 -135 138zM92 546c0 -45 27 -82 77 -82c53 0 80 37 80 82c0 46 -27 84 -80 84c-50 0 -77 -38 -77 -84z" />
<glyph unicode="&#x2113;" horiz-adv-x="391" d="M360 34c-34 -29 -76 -45 -123 -45c-70 0 -109 42 -109 128v117c-11 -10 -47 -38 -70 -55l-33 53c29 21 78 60 103 84v222c0 117 51 169 121 169c69 0 105 -50 105 -133c0 -103 -59 -192 -159 -287v-159c0 -49 19 -71 50 -71c29 0 62 14 88 35zM285 566 c0 48 -19 68 -43 68c-29 0 -47 -28 -47 -83v-179c51 55 90 123 90 194z" />
<glyph unicode="&#x212e;" horiz-adv-x="763" d="M718 338h-511v-230c49 -49 109 -74 183 -74c105 0 182 45 245 152l45 -27c-78 -121 -157 -171 -290 -171c-199 0 -327 154 -327 350c0 197 128 350 327 350c195 0 327 -145 328 -350zM207 384h369v184c-54 50 -116 75 -187 75c-73 0 -133 -26 -182 -75v-184z" />
<glyph unicode="&#x14b;" horiz-adv-x="557" d="M494 289v-304c0 -88 -25 -165 -122 -211l-53 69c56 29 82 62 82 132v305c0 61 -15 98 -92 98c-47 0 -94 -23 -116 -41v-255h71v-82h-226v82h63v292h-61v82h144v-52c26 28 74 62 157 62c109 0 153 -61 153 -177z" />
<glyph unicode="&#x14a;" horiz-adv-x="745" d="M541 -15l-328 545v-447h110v-83h-279v83h71v510h-71v83h180l319 -534v451h-104v83h272v-83h-70v-608c0 -84 -25 -166 -123 -211l-61 67c56 30 84 78 84 144z" />
<glyph unicode="&#x221e;" horiz-adv-x="751" d="M692 265c0 -93 -64 -158 -152 -158c-70 0 -123 42 -163 101c-41 -56 -91 -100 -164 -100c-86 0 -153 61 -153 154c0 91 64 157 151 157c74 0 124 -46 166 -105c37 56 88 107 162 107c86 0 153 -63 153 -156zM614 262c0 51 -32 86 -82 86c-46 0 -81 -47 -107 -87 c29 -41 62 -80 107 -80c51 0 82 33 82 81zM330 261c-27 40 -69 87 -111 87c-48 0 -82 -37 -82 -86c0 -51 35 -82 83 -82c45 0 84 43 110 81z" />
<glyph unicode="&#x2202;" horiz-adv-x="543" d="M216 696h118c83 -70 152 -198 152 -382c0 -167 -59 -325 -224 -325c-148 0 -220 98 -220 234c0 135 68 224 190 224c80 0 134 -47 155 -93c0 117 -54 248 -171 342zM259 78c89 0 120 90 122 183c-22 48 -62 90 -130 90c-77 0 -110 -54 -110 -136c0 -75 33 -137 118 -137z " />
<glyph unicode="&#x222b;" horiz-adv-x="341" d="M217 546v-619c0 -81 -40 -153 -151 -153c-18 0 -46 5 -59 10v81c17 -2 38 -4 60 -4c44 0 58 27 58 73v619c0 81 40 153 151 153c18 0 46 -5 59 -10v-81c-17 2 -38 4 -60 4c-44 0 -58 -27 -58 -73z" />
<glyph unicode="&#x221a;" horiz-adv-x="583" d="M584 696l-244 -912h-105l-144 330l-71 -33l-31 70l158 70l132 -321l207 796h98z" />
<glyph unicode="&#x2211;" horiz-adv-x="603" d="M459 -28h91v-189h-507v101l253 354l-253 337v101h504v-184h-92v101h-316l266 -354l-266 -373h320v106z" />
<glyph unicode="&#x220f;" horiz-adv-x="763" d="M47 676h669v-83h-66v-726h66v-83h-256v83h92v727h-340v-727h93v-83h-258v83h67v726h-67v83z" />
<glyph unicode="&#x25ca;" horiz-adv-x="621" d="M477 352l-167 252l-171 -252l171 -260zM586 352l-233 -352h-89l-232 352l232 344h89z" />
<glyph unicode="&#xf8ff;" horiz-adv-x="591" d="M89 0v656h413v-656h-413zM127 38h337v580h-337v-580z" />
<glyph horiz-adv-x="251" d="M163 169h-76l-16 338h110zM126 -4c-35 0 -62 24 -62 56c0 33 27 56 62 56s60 -23 60 -56c0 -32 -25 -56 -60 -56z" />
<glyph horiz-adv-x="536" d="M116 129h-79l13 80h80l15 95h-77l10 81h79l21 122h87l-20 -122h85l21 122h87l-20 -122h82l-13 -81h-82l-15 -95h81l-12 -80h-83l-22 -129h-87l22 129h-84l-23 -129h-88zM232 304l-15 -95h85l16 95h-86z" />
<glyph horiz-adv-x="477" d="M263 -77h-45v70c-63 2 -115 15 -158 35l-6 137h80l21 -86c14 -6 39 -11 63 -13v144l-33 11c-93 31 -124 76 -124 150c0 62 43 135 157 144v54h45v-54c54 -4 108 -20 143 -36v-134h-80l-14 84c-16 4 -32 7 -49 8v-140l32 -10c99 -32 129 -82 129 -151 c0 -63 -47 -134 -161 -143v-70zM323 130c0 30 -24 55 -60 65v-127c36 6 60 28 60 62zM162 376c0 -31 14 -50 56 -63v122c-38 -6 -56 -31 -56 -59z" />
<glyph horiz-adv-x="630" d="M511 507v-10l-328 -497h-67v10l327 497h68zM164 515c90 0 130 -57 130 -123c0 -69 -42 -125 -130 -125s-128 56 -128 125c0 66 41 123 128 123zM164 340c35 0 52 19 52 52c0 30 -17 49 -52 49s-52 -19 -52 -49c0 -33 17 -52 52 -52zM464 239c90 0 130 -56 130 -123 c0 -69 -42 -124 -130 -124c-89 0 -128 55 -128 124c0 67 41 123 128 123zM464 65c35 0 52 19 52 51c0 31 -17 49 -52 49s-52 -18 -52 -49c0 -32 17 -51 52 -51z" />
<glyph horiz-adv-x="550" d="M443 -8c-48 0 -76 22 -89 53c-29 -30 -73 -53 -137 -53c-107 0 -168 58 -168 147c0 77 50 114 101 126c-47 13 -84 50 -84 119c0 62 39 131 173 131c44 0 95 -10 134 -26l-26 -78c-30 12 -69 21 -105 21c-54 0 -81 -25 -81 -66c0 -46 34 -66 85 -66h97v57l89 14v-71h68 v-76h-68v-113c0 -22 13 -35 39 -35c13 0 25 2 41 5l1 -79c-18 -5 -45 -10 -70 -10zM343 224h-99c-66 0 -97 -30 -97 -75s27 -73 92 -73c44 0 77 14 104 35v113z" />
<glyph horiz-adv-x="465" d="M416 208c0 -31 -15 -64 -50 -88c32 -20 49 -46 49 -85c0 -58 -51 -120 -189 -120c-70 0 -129 13 -167 34v105h70l12 -55c18 -8 55 -15 85 -15c57 0 89 12 89 40s-40 39 -81 53l-64 23c-62 21 -119 53 -119 116c0 41 22 72 50 91c-31 20 -48 46 -48 84 c0 54 47 124 182 124c58 0 122 -15 165 -34v-101h-70l-13 51c-22 7 -52 12 -82 12c-56 0 -83 -15 -83 -41c0 -27 31 -38 78 -54l61 -19c83 -26 125 -60 125 -121zM174 277c-14 -10 -27 -25 -27 -44c0 -28 29 -42 60 -53l85 -29c13 8 27 24 27 41c0 36 -36 50 -72 61z" />
<glyph horiz-adv-x="467" d="M174 342h93v-350h-81v120c-86 0 -156 26 -156 113c0 83 54 117 144 117zM297 -171l-50 55c41 25 62 51 62 95v363h81v-345c0 -63 -14 -126 -93 -168z" />
<glyph horiz-adv-x="272" d="M235 -80l-68 -27c-72 99 -117 207 -117 348c0 146 49 245 117 347l69 -27c-52 -100 -90 -208 -90 -320c0 -118 29 -212 89 -321z" />
<glyph horiz-adv-x="321" d="M289 503v-9l-166 -494h-90v10l163 493h93z" />
<glyph horiz-adv-x="272" d="M36 -80c61 109 89 203 89 321c0 112 -37 220 -90 320l69 27c69 -102 117 -201 117 -347c0 -141 -45 -249 -117 -348z" />
<glyph horiz-adv-x="316" d="M82 582h192v-76h-96v-532h96v-76h-192v684z" />
<glyph horiz-adv-x="324" d="M31 494v9h93l168 -493v-10h-91z" />
<glyph horiz-adv-x="316" d="M42 582h192v-684h-192v76h97v532h-97v76z" />
<glyph horiz-adv-x="295" d="M199 466v-138c0 -68 -56 -83 -79 -88c23 -4 79 -23 79 -86v-143c0 -38 15 -43 46 -44v-69c-98 0 -141 27 -141 106v140c0 51 -46 61 -75 61v70c30 0 75 13 75 64v137c0 78 42 106 141 106v-69c-31 -1 -46 -9 -46 -47z" />
<glyph horiz-adv-x="220" d="M138 -102h-56v684h56v-684z" />
<glyph horiz-adv-x="295" d="M96 328v138c0 38 -18 46 -47 47v69c100 0 141 -28 141 -106v-137c0 -51 45 -64 75 -64v-70c-28 0 -75 -10 -75 -61v-140c0 -79 -41 -106 -141 -106v69c29 1 47 5 47 39v148c0 63 56 82 79 86c-23 5 -79 20 -79 88z" />
<glyph horiz-adv-x="509" d="M148 251c0 -120 26 -178 109 -178c80 0 106 59 106 178c0 120 -26 183 -109 183c-81 0 -106 -64 -106 -183zM461 251c0 -164 -56 -259 -207 -259c-150 0 -205 94 -205 259c0 164 56 264 207 264c149 0 205 -97 205 -264z" />
<glyph horiz-adv-x="405" d="M51 0v76h131v336l-125 -46l-21 73l159 68h82v-431h109v-76h-335z" />
<glyph horiz-adv-x="456" d="M408 137v-137h-360v69c29 24 152 139 173 159c44 42 76 78 76 134c0 42 -27 72 -78 72c-49 0 -76 -30 -76 -72c0 -10 2 -23 4 -33l-95 -7c-3 11 -5 27 -5 41c0 84 57 152 174 152c119 0 174 -68 174 -154c0 -80 -59 -134 -117 -185c-48 -46 -91 -83 -112 -100h165v61h77z " />
<glyph horiz-adv-x="448" d="M129 363h-70l-8 102c28 24 86 50 158 50c134 0 174 -79 174 -141c0 -67 -38 -106 -89 -120c54 -10 107 -42 107 -116c0 -89 -65 -146 -195 -146c-73 0 -137 26 -171 54l43 72c33 -25 74 -45 128 -45c68 0 96 29 96 67c0 46 -30 68 -107 68h-60v82h55c58 0 97 25 97 74 c0 41 -25 70 -81 70c-32 0 -57 -7 -77 -18v-53z" />
<glyph horiz-adv-x="475" d="M444 179v-77h-77v-102h-93v102h-250v69l184 256c31 42 50 80 50 80h109v-328h77zM126 179h148v210z" />
<glyph horiz-adv-x="446" d="M41 35l8 113h77v-60c21 -9 45 -15 74 -15c69 0 103 31 103 88c0 52 -32 86 -99 86c-43 0 -79 -10 -112 -22l-32 11l36 271h287v-82h-212l-15 -114c18 8 48 16 86 16c102 0 160 -64 160 -162c0 -107 -72 -173 -201 -173c-65 0 -124 20 -160 43z" />
<glyph horiz-adv-x="476" d="M277 434c-101 0 -133 -79 -133 -153v-10c15 25 55 57 121 57c106 0 167 -62 167 -164c0 -104 -61 -172 -191 -172c-127 0 -193 84 -193 248c0 166 65 275 230 275c51 0 102 -15 144 -34l-32 -76c-38 17 -70 29 -113 29zM245 73c66 0 92 38 92 86s-27 81 -87 81 c-49 0 -85 -28 -103 -51c2 -64 28 -116 98 -116z" />
<glyph horiz-adv-x="420" d="M90 0l197 431h-162v-96h-88v172h365v-65c-21 -31 -40 -71 -62 -120l-142 -322h-108z" />
<glyph horiz-adv-x="488" d="M426 375c0 -52 -36 -89 -72 -110c47 -22 85 -59 85 -127c0 -88 -75 -146 -196 -146c-115 0 -193 54 -193 145c0 56 38 96 76 117c-34 22 -62 56 -62 112c0 84 67 149 180 149c120 0 182 -62 182 -140zM276 197l-89 28c-24 -20 -42 -44 -42 -77c0 -44 33 -75 104 -75 c64 0 92 26 92 59c0 32 -24 51 -65 65zM158 375c0 -28 18 -46 52 -58l75 -26c27 17 48 41 48 73c0 39 -30 73 -94 73c-53 0 -81 -25 -81 -62z" />
<glyph horiz-adv-x="475" d="M199 73c103 0 132 68 132 143c0 3 0 7 -1 12c-15 -26 -58 -57 -123 -57c-101 0 -162 64 -162 167c0 104 64 177 183 177c151 0 199 -123 199 -256c0 -170 -65 -267 -229 -267c-53 0 -111 16 -145 40l30 76c33 -19 73 -35 116 -35zM229 434c-61 0 -88 -39 -88 -87 c0 -53 26 -88 90 -88c45 0 77 26 96 52c-1 66 -27 123 -98 123z" />
<glyph horiz-adv-x="392" d="M126 356h-77l-14 107c35 26 86 52 155 52c104 0 165 -56 165 -129c0 -93 -78 -127 -126 -147v-70h-86v113c67 19 114 49 114 97c0 29 -21 55 -69 55c-24 0 -45 -7 -62 -16v-62zM187 -4c-35 0 -61 24 -61 56c0 33 26 56 61 56c36 0 61 -23 61 -56c0 -32 -25 -56 -61 -56z " />
<glyph horiz-adv-x="573" d="M348 0v76h62l-29 76h-189l-30 -76h63v-76h-212v76h47l144 355h-47v76h258v-76h-44l142 -355h46v-76h-211zM213 227h147l-73 186z" />
<glyph horiz-adv-x="525" d="M48 0v76h55v355h-55v76h238c117 0 165 -53 165 -136c0 -51 -30 -92 -72 -103c51 -10 97 -61 97 -128c0 -104 -82 -140 -190 -140h-238zM198 76h86c71 0 96 31 96 73s-22 74 -96 74h-86v-147zM198 300h75c57 0 81 27 81 66c0 38 -20 65 -80 65h-76v-131z" />
<glyph horiz-adv-x="509" d="M145 255c0 -101 44 -174 145 -174c50 0 98 7 151 30l22 -80c-59 -26 -110 -39 -178 -39c-158 0 -238 93 -238 263c0 156 70 260 244 260c64 0 124 -16 169 -33l-7 -174h-84l-2 111c-24 6 -47 10 -79 10c-109 0 -143 -71 -143 -174z" />
<glyph horiz-adv-x="567" d="M104 76v355h-57v76h195c211 0 276 -77 276 -253c0 -175 -65 -254 -276 -254h-195v76h57zM198 76h58c128 0 166 49 166 179c0 127 -45 176 -166 176h-58v-355z" />
<glyph horiz-adv-x="503" d="M366 149h87v-149h-406v76h56v355h-56v76h404v-150h-88v74h-165v-137h164v-78h-164v-140h168v73z" />
<glyph horiz-adv-x="469" d="M48 0v76h55v355h-55v76h390v-159h-88v83h-152v-156h168v-79h-168v-120h96v-76h-246z" />
<glyph horiz-adv-x="551" d="M473 333h-84l-2 86c-26 6 -58 9 -87 9c-115 0 -152 -70 -152 -172c0 -107 45 -179 157 -179c33 0 71 4 102 12v87h-128v78h218v-227c-59 -24 -121 -35 -195 -35c-165 0 -255 94 -255 264c0 153 72 259 257 259c64 0 129 -15 175 -30z" />
<glyph horiz-adv-x="632" d="M368 431v76h214v-76h-51v-355h51v-76h-214v76h69v145h-241v-145h70v-76h-217v76h52v355h-52v76h217v-76h-70v-128h241v128h-69z" />
<glyph horiz-adv-x="309" d="M44 0v76h64v355h-64v76h219v-76h-60v-355h60v-76h-219z" />
<glyph horiz-adv-x="285" d="M28 431v76h216v-76h-51v-411c0 -84 -35 -146 -112 -191l-57 62c45 28 75 57 75 120v420h-71z" />
<glyph horiz-adv-x="567" d="M216 263l150 168h-58v76h222v-76h-59l-145 -167l153 -188h57v-76h-224v76h54zM201 431v-355h50v-76h-203v76h54v355h-54v76h203v-76h-50z" />
<glyph horiz-adv-x="458" d="M341 175h86v-175h-379v76h55v355h-55v76h210v-76h-60v-355h143v99z" />
<glyph horiz-adv-x="763" d="M380 106l118 401h190v-76h-52l42 -355h57v-76h-207v76h61l-37 328l-123 -404h-102l-115 401l-41 -325h61v-76h-203v76h53l46 355h-53v76h192z" />
<glyph horiz-adv-x="626" d="M362 431v76h224v-76h-53v-431h-98l-239 363v-287h84v-76h-232v76h53v355h-53v76h155l236 -362v286h-77z" />
<glyph horiz-adv-x="549" d="M150 253c0 -106 25 -178 125 -178c99 0 125 72 125 178c0 107 -27 179 -125 179c-97 0 -125 -72 -125 -179zM502 253c0 -149 -59 -261 -228 -261s-227 112 -227 261s56 263 228 263c171 0 227 -114 227 -263z" />
<glyph horiz-adv-x="506" d="M200 431v-355h96v-76h-248v76h54v355h-54v76h233c138 0 194 -63 194 -163c0 -98 -56 -160 -194 -160h-35v79h41c72 0 87 40 87 82c0 40 -15 86 -87 86h-87z" />
<glyph horiz-adv-x="579" d="M342 100c17 -13 42 -40 54 -69c-36 -26 -77 -39 -122 -39c-167 0 -227 113 -227 261c0 149 59 263 228 263s228 -115 228 -263c0 -48 -6 -92 -19 -129c30 -38 53 -81 68 -124h-97c-35 76 -115 186 -256 186c-13 0 -27 -1 -41 -2c12 -64 44 -105 117 -105c30 0 51 8 67 21 zM276 428c-93 0 -122 -68 -123 -167c16 2 34 3 53 3c72 0 135 -22 188 -57c2 14 3 29 3 46c0 104 -26 175 -121 175z" />
<glyph horiz-adv-x="554" d="M103 76v355h-55v76h242c136 0 191 -54 191 -146c0 -69 -42 -117 -114 -134c46 -33 88 -101 106 -151h59v-76h-209v76h46c-17 50 -56 111 -100 141h-71v-141h53v-76h-203v76h55zM384 360c0 40 -18 71 -89 71h-97v-140h91c73 0 95 28 95 69z" />
<glyph horiz-adv-x="464" d="M400 345h-79l-15 84c-21 6 -45 9 -70 9c-52 0 -80 -28 -80 -62c0 -27 13 -48 55 -62l78 -27c99 -34 130 -81 130 -151c0 -67 -55 -144 -186 -144c-72 0 -131 14 -178 36l-7 137h80l22 -86c18 -7 53 -13 82 -13c52 0 85 23 85 64c0 30 -21 52 -58 65l-79 26 c-94 31 -124 77 -124 150c0 67 48 145 180 145c61 0 125 -18 164 -37v-134z" />
<glyph horiz-adv-x="493" d="M31 507h432v-157h-79v81h-93v-355h73v-76h-241v76h75v355h-88v-81h-79v157z" />
<glyph horiz-adv-x="577" d="M544 431h-52v-240c0 -143 -85 -198 -204 -198c-118 0 -204 55 -204 198v240h-51v76h216v-76h-71v-241c0 -82 38 -115 110 -115s110 33 110 115v241h-68v76h214v-76z" />
<glyph horiz-adv-x="565" d="M332 431v76h223v-76h-56l-153 -431h-128l-152 431h-52v76h221v-76h-68l117 -341l114 341h-66z" />
<glyph horiz-adv-x="804" d="M558 431v76h230v-76h-51l-116 -431h-116l-104 295l-102 -295h-116l-116 431h-53v76h215v-76h-64l81 -334l112 309l-39 101h109l131 -410l83 334h-84z" />
<glyph horiz-adv-x="563" d="M35 431v76h210v-76h-44l81 -112l79 112h-45v76h208v-76h-57l-132 -170l144 -185h55v-76h-213v76h49l-90 119l-87 -119h50v-76h-212v76h55l139 185l-131 170h-59z" />
<glyph horiz-adv-x="532" d="M14 431v76h212v-76h-61l102 -160l103 160h-62v76h214v-76h-53l-156 -234v-121h65v-76h-230v76h70v121l-152 234h-52z" />
<glyph horiz-adv-x="497" d="M443 507v-70l-278 -361h194v116h86v-192h-398v69l278 361h-185v-87h-86v164h389z" />
<glyph horiz-adv-x="573" d="M348 0v76h62l-29 76h-189l-30 -76h63v-76h-212v76h47l144 355h-47v76h258v-76h-44l142 -355h46v-76h-211zM213 227h147l-73 186zM163 726h99l75 -159h-87z" />
<glyph horiz-adv-x="573" d="M348 0v76h62l-29 76h-189l-30 -76h63v-76h-212v76h47l144 355h-47v76h258v-76h-44l142 -355h46v-76h-211zM213 227h147l-73 186zM312 726h99l-87 -159h-87z" />
<glyph horiz-adv-x="573" d="M348 0v76h62l-29 76h-189l-30 -76h63v-76h-212v76h47l144 355h-47v76h258v-76h-44l142 -355h46v-76h-211zM213 227h147l-73 186zM227 726h120l89 -159h-87l-62 108l-63 -108h-86z" />
<glyph horiz-adv-x="573" d="M348 0v76h62l-29 76h-189l-30 -76h63v-76h-212v76h47l144 355h-47v76h258v-76h-44l142 -355h46v-76h-211zM213 227h147l-73 186zM430 672l-4 -74c-20 15 -44 25 -68 25c-50 0 -88 -38 -146 -38c-30 0 -56 12 -69 23l4 73c17 -16 37 -24 65 -24c50 0 81 38 146 38 c35 0 56 -13 72 -23z" />
<glyph horiz-adv-x="573" d="M348 0v76h62l-29 76h-189l-30 -76h63v-76h-212v76h47l144 355h-47v76h258v-76h-44l142 -355h46v-76h-211zM213 227h147l-73 186zM193 578c-36 0 -62 17 -62 60s26 62 62 62c31 0 62 -19 62 -62s-31 -60 -62 -60zM381 578c-36 0 -62 17 -62 60s26 62 62 62 c31 0 62 -19 62 -62s-31 -60 -62 -60z" />
<glyph horiz-adv-x="573" d="M348 0v76h62l-29 76h-189l-30 -76h63v-76h-212v76h47l144 355h-47v76h258v-76h-44l142 -355h46v-76h-211zM213 227h147l-73 186zM143 670h288v-79h-288v79z" />
<glyph horiz-adv-x="573" d="M348 0v76h62l-29 76h-189l-30 -76h63v-76h-212v76h47l144 355h-47v76h258v-76h-44l142 -355h46v-76h-211zM213 227h147l-73 186zM364 705h66c0 -81 -52 -144 -145 -144c-90 0 -142 63 -142 144h64c4 -42 33 -73 78 -73c46 0 75 31 79 73z" />
<glyph horiz-adv-x="573" d="M348 0v76h62l-29 76h-189l-30 -76h63v-76h-212v76h47l144 355h-47v76h258v-76h-44l142 -355h46v-76h-211zM213 227h147l-73 186zM180 649c0 53 38 97 105 97c70 0 108 -44 108 -97c0 -50 -38 -96 -108 -96c-67 0 -105 46 -105 96zM238 649c0 -25 17 -44 47 -44 c32 0 49 19 49 44s-17 46 -49 46c-30 0 -47 -21 -47 -46z" />
<glyph horiz-adv-x="573" d="M348 0v76h62l-29 76h-189l-30 -76h63v-76h-212v76h47l144 355h-47v76h258v-76h-44l142 -355h46v-76h-211zM180 649c0 43 26 78 70 90l56 84h98l-67 -88c35 -16 56 -48 56 -86c0 -50 -38 -96 -108 -96c-67 0 -105 46 -105 96zM213 227h147l-73 186zM238 649 c0 -25 17 -44 47 -44c32 0 49 19 49 44s-17 46 -49 46c-30 0 -47 -21 -47 -46z" />
<glyph horiz-adv-x="573" d="M348 0v76h62l-29 76h-189l-30 -76h63v-76h-212v76h47l144 355h-47v76h258v-76h-44l142 -355h46v-76h-50l-82 -53c-22 -15 -31 -27 -31 -45c0 -17 13 -28 33 -28c29 0 49 11 58 16l5 -68c-10 -5 -31 -15 -57 -17c-12 -1 -25 -1 -36 0c-62 4 -98 31 -98 80 c0 35 19 63 54 84l52 31h-59zM213 227h147l-73 186z" />
<glyph horiz-adv-x="810" d="M282 507h476v-149h-88v73h-165v-137h165v-78h-165v-140h169v73h87v-149h-416v76h66v74h-185l-59 -74h55v-76h-212v76h47l272 355h-47v76zM272 226h139v187z" />
<glyph horiz-adv-x="810" d="M282 507h476v-149h-88v73h-165v-137h165v-78h-165v-140h169v73h87v-149h-416v76h66v74h-185l-59 -74h55v-76h-212v76h47l272 355h-47v76zM272 226h139v187zM541 726h99l-87 -159h-87z" />
<glyph horiz-adv-x="509" d="M145 255c0 -101 44 -174 145 -174c50 0 98 7 151 30l22 -80c-59 -26 -110 -39 -178 -39c-158 0 -238 93 -238 263c0 156 70 260 244 260c64 0 124 -16 169 -33l-7 -174h-84l-2 111c-24 6 -47 10 -79 10c-109 0 -143 -71 -143 -174zM311 726h99l-87 -159h-87z" />
<glyph horiz-adv-x="509" d="M145 255c0 -101 44 -174 145 -174c50 0 98 7 151 30l22 -80c-59 -26 -110 -39 -178 -39c-158 0 -238 93 -238 263c0 156 70 260 244 260c64 0 124 -16 169 -33l-7 -174h-84l-2 111c-24 6 -47 10 -79 10c-109 0 -143 -71 -143 -174zM225 726h120l89 -159h-87l-62 108 l-63 -108h-86z" />
<glyph horiz-adv-x="509" d="M145 255c0 -101 44 -174 145 -174c50 0 98 7 151 30l22 -80c-59 -26 -110 -39 -178 -39c-158 0 -238 93 -238 263c0 156 70 260 244 260c64 0 124 -16 169 -33l-7 -174h-84l-2 111c-24 6 -47 10 -79 10c-109 0 -143 -71 -143 -174zM344 567h-120l-89 159h86l63 -108 l62 108h87z" />
<glyph horiz-adv-x="509" d="M145 255c0 -101 44 -174 145 -174c50 0 98 7 151 30l22 -80c-59 -26 -110 -39 -178 -39c-158 0 -238 93 -238 263c0 156 70 260 244 260c64 0 124 -16 169 -33l-7 -174h-84l-2 111c-24 6 -47 10 -79 10c-109 0 -143 -71 -143 -174zM285 578c-36 0 -62 17 -62 60 s26 62 62 62c31 0 62 -19 62 -62s-31 -60 -62 -60z" />
<glyph horiz-adv-x="508" d="M145 255c0 -101 43 -174 145 -174c49 0 98 7 151 30l22 -80c-52 -23 -97 -35 -153 -38l-18 -50c5 2 14 4 30 4c37 0 71 -26 71 -69c0 -46 -34 -77 -106 -77c-32 0 -65 8 -100 23l9 47c33 -17 60 -25 85 -25c28 0 41 12 41 33c0 17 -12 31 -33 31c-14 0 -23 -5 -29 -8 c0 0 -23 9 -35 14l29 77c-139 11 -208 103 -208 262c0 156 71 260 244 260c64 0 125 -16 169 -33l-6 -174h-85l-1 111c-24 6 -47 10 -79 10c-110 0 -143 -71 -143 -174z" />
<glyph horiz-adv-x="567" d="M104 76v355h-57v76h195c211 0 276 -77 276 -253c0 -175 -65 -254 -276 -254h-195v76h57zM198 76h58c128 0 166 49 166 179c0 127 -45 176 -166 176h-58v-355zM327 567h-120l-89 159h86l63 -108l62 108h87z" />
<glyph horiz-adv-x="576" d="M112 76v145h-58v61h58v149h-56v76h194c212 0 277 -77 277 -253c0 -175 -65 -254 -277 -254h-194v76h56zM207 76h58c128 0 166 49 166 179c0 127 -45 176 -166 176h-58v-149h99v-61h-99v-145z" />
<glyph horiz-adv-x="576" d="M112 76v145h-58v61h58v149h-56v76h194c212 0 277 -77 277 -253c0 -175 -65 -254 -277 -254h-194v76h56zM207 76h58c128 0 166 49 166 179c0 127 -45 176 -166 176h-58v-149h99v-61h-99v-145z" />
<glyph horiz-adv-x="503" d="M366 149h87v-149h-406v76h56v355h-56v76h404v-150h-88v74h-165v-137h164v-78h-164v-140h168v73zM134 726h99l75 -159h-87z" />
<glyph horiz-adv-x="503" d="M366 149h87v-149h-406v76h56v355h-56v76h404v-150h-88v74h-165v-137h164v-78h-164v-140h168v73zM282 726h99l-87 -159h-87z" />
<glyph horiz-adv-x="503" d="M366 149h87v-149h-406v76h56v355h-56v76h404v-150h-88v74h-165v-137h164v-78h-164v-140h168v73zM196 726h120l89 -159h-87l-62 108l-63 -108h-86z" />
<glyph horiz-adv-x="503" d="M366 149h87v-149h-406v76h56v355h-56v76h404v-150h-88v74h-165v-137h164v-78h-164v-140h168v73zM316 567h-120l-89 159h86l63 -108l62 108h87z" />
<glyph horiz-adv-x="503" d="M366 149h87v-149h-406v76h56v355h-56v76h404v-150h-88v74h-165v-137h164v-78h-164v-140h168v73zM162 578c-36 0 -62 17 -62 60s26 62 62 62c31 0 62 -19 62 -62s-31 -60 -62 -60zM350 578c-36 0 -62 17 -62 60s26 62 62 62c31 0 62 -19 62 -62s-31 -60 -62 -60z" />
<glyph horiz-adv-x="503" d="M366 149h87v-149h-406v76h56v355h-56v76h404v-150h-88v74h-165v-137h164v-78h-164v-140h168v73zM112 670h288v-79h-288v79z" />
<glyph horiz-adv-x="503" d="M366 149h87v-149h-406v76h56v355h-56v76h404v-150h-88v74h-165v-137h164v-78h-164v-140h168v73zM333 705h66c0 -81 -52 -144 -145 -144c-90 0 -142 63 -142 144h64c4 -42 33 -73 78 -73c46 0 75 31 79 73z" />
<glyph horiz-adv-x="503" d="M366 149h87v-149h-406v76h56v355h-56v76h404v-150h-88v74h-165v-137h164v-78h-164v-140h168v73zM256 578c-36 0 -62 17 -62 60s26 62 62 62c31 0 62 -19 62 -62s-31 -60 -62 -60z" />
<glyph horiz-adv-x="503" d="M366 149h87v-149l-82 -53c-22 -15 -31 -28 -31 -45s13 -28 33 -28c29 0 49 11 58 16l5 -68c-12 -6 -43 -19 -80 -19c-69 0 -111 29 -111 82c0 35 19 63 54 84l52 31h-304v76h56v355h-56v76h404v-150h-88v74h-165v-137h164v-78h-164v-140h168v73z" />
<glyph horiz-adv-x="551" d="M473 333h-84l-2 86c-26 6 -58 9 -87 9c-115 0 -152 -70 -152 -172c0 -107 45 -179 157 -179c33 0 71 4 102 12v87h-128v78h218v-227c-59 -24 -121 -35 -195 -35c-165 0 -255 94 -255 264c0 153 72 259 257 259c64 0 129 -15 175 -30zM238 726h120l89 -159h-87l-62 108 l-63 -108h-86z" />
<glyph horiz-adv-x="551" d="M473 333h-84l-2 86c-26 6 -58 9 -87 9c-115 0 -152 -70 -152 -172c0 -107 45 -179 157 -179c33 0 71 4 102 12v87h-128v78h218v-227c-59 -24 -121 -35 -195 -35c-165 0 -255 94 -255 264c0 153 72 259 257 259c64 0 129 -15 175 -30zM376 705h66 c0 -81 -52 -144 -145 -144c-90 0 -142 63 -142 144h64c4 -42 33 -73 78 -73c46 0 75 31 79 73z" />
<glyph horiz-adv-x="551" d="M473 333h-84l-2 86c-26 6 -58 9 -87 9c-115 0 -152 -70 -152 -172c0 -107 45 -179 157 -179c33 0 71 4 102 12v87h-128v78h218v-227c-59 -24 -121 -35 -195 -35c-165 0 -255 94 -255 264c0 153 72 259 257 259c64 0 129 -15 175 -30zM299 578c-36 0 -62 17 -62 60 s26 62 62 62c31 0 62 -19 62 -62s-31 -60 -62 -60z" />
<glyph horiz-adv-x="551" d="M473 333h-84l-2 86c-26 6 -58 9 -87 9c-115 0 -152 -70 -152 -172c0 -107 45 -179 157 -179c33 0 71 4 102 12v87h-128v78h218v-227c-59 -24 -121 -35 -195 -35c-165 0 -255 94 -255 264c0 153 72 259 257 259c64 0 129 -15 175 -30zM360 -66l-58 -150h-72l25 150h105z " />
<glyph horiz-adv-x="632" d="M368 431v76h214v-76h-51v-355h51v-76h-214v76h69v145h-241v-145h70v-76h-217v76h52v355h-52v76h217v-76h-70v-128h241v128h-69zM257 726h120l89 -159h-87l-62 108l-63 -108h-86z" />
<glyph horiz-adv-x="632" d="M49 386h52v45h-52v76h219v-76h-72v-45h241v45h-71v76h216v-76h-51v-45h51v-42h-51v-268h51v-76h-216v76h71v145h-241v-145h72v-76h-219v76h52v268h-52v42zM196 303h241v41h-241v-41z" />
<glyph horiz-adv-x="309" d="M44 0v76h64v355h-64v76h219v-76h-60v-355h60v-76h-219zM32 726h99l75 -159h-87z" />
<glyph horiz-adv-x="309" d="M44 0v76h64v355h-64v76h219v-76h-60v-355h60v-76h-219zM184 726h99l-87 -159h-87z" />
<glyph horiz-adv-x="309" d="M44 0v76h64v355h-64v76h219v-76h-60v-355h60v-76h-219zM233 705h66c0 -81 -52 -144 -145 -144c-90 0 -142 63 -142 144h64c4 -42 33 -73 78 -73c46 0 75 31 79 73z" />
<glyph horiz-adv-x="309" d="M44 0v76h64v355h-64v76h219v-76h-60v-355h60v-76h-219zM95 726h120l89 -159h-87l-62 108l-63 -108h-86z" />
<glyph horiz-adv-x="309" d="M44 0v76h64v355h-64v76h219v-76h-60v-355h60v-76h-219zM298 672l-4 -74c-20 15 -44 25 -68 25c-50 0 -88 -38 -146 -38c-30 0 -56 12 -69 23l4 73c17 -16 37 -24 65 -24c50 0 81 38 146 38c35 0 56 -13 72 -23z" />
<glyph horiz-adv-x="309" d="M44 0v76h64v355h-64v76h219v-76h-60v-355h60v-76h-219zM62 578c-36 0 -62 17 -62 60s26 62 62 62c31 0 62 -19 62 -62s-31 -60 -62 -60zM250 578c-36 0 -62 17 -62 60s26 62 62 62c31 0 62 -19 62 -62s-31 -60 -62 -60z" />
<glyph horiz-adv-x="309" d="M44 0v76h64v355h-64v76h219v-76h-60v-355h60v-76h-219zM12 670h288v-79h-288v79z" />
<glyph horiz-adv-x="309" d="M44 0v76h64v355h-64v76h219v-76h-60v-355h60v-76h-219zM156 578c-36 0 -62 17 -62 60s26 62 62 62c31 0 62 -19 62 -62s-31 -60 -62 -60z" />
<glyph horiz-adv-x="309" d="M44 0v76h64v355h-64v76h219v-76h-60v-355h60v-76h-54l-82 -53c-22 -15 -31 -28 -31 -45s14 -28 33 -28c29 0 49 11 58 16l5 -68c-12 -6 -43 -19 -80 -19c-69 0 -111 29 -111 82c0 35 19 63 55 84l52 31h-64z" />
<glyph horiz-adv-x="285" d="M28 431v76h216v-76h-51v-411c0 -84 -35 -146 -112 -191l-57 62c45 28 75 57 75 120v420h-71zM82 726h120l89 -159h-87l-62 108l-63 -108h-86z" />
<glyph horiz-adv-x="567" d="M216 263l150 168h-58v76h222v-76h-59l-145 -167l153 -188h57v-76h-224v76h54zM201 431v-355h50v-76h-203v76h54v355h-54v76h203v-76h-50zM345 -66l-58 -150h-72l25 150h105z" />
<glyph horiz-adv-x="458" d="M341 175h86v-175h-379v76h55v355h-55v76h210v-76h-60v-355h143v99zM181 726h99l-87 -159h-87z" />
<glyph horiz-adv-x="469" d="M341 175h86v-175h-379v76h55v355h-55v76h210v-76h-60v-355h143v99zM437 507l-58 -162h-72l25 162h105z" />
<glyph horiz-adv-x="458" d="M340 175h86v-175h-379v76h55v355h-55v76h210v-76h-60v-355h143v99zM293 -66l-58 -150h-72l25 150h105z" />
<glyph horiz-adv-x="465" d="M53 245l56 25v161h-55v76h211v-76h-61v-123l61 27v-76l-61 -27v-156h144v99h86v-175h-380v76h55v118l-56 -25v76z" />
<glyph horiz-adv-x="458" d="M341 175h86v-175h-379v76h55v355h-55v76h210v-76h-60v-355h143v99zM336 230c-36 0 -62 17 -62 60s26 62 62 62c31 0 62 -19 62 -62s-31 -60 -62 -60z" />
<glyph horiz-adv-x="626" d="M362 431v76h224v-76h-53v-431h-98l-239 363v-287h84v-76h-232v76h53v355h-53v76h155l236 -362v286h-77zM346 726h99l-87 -159h-87z" />
<glyph horiz-adv-x="626" d="M362 431v76h224v-76h-53v-431h-98l-239 363v-287h84v-76h-232v76h53v355h-53v76h155l236 -362v286h-77zM378 567h-120l-89 159h86l63 -108l62 108h87z" />
<glyph horiz-adv-x="626" d="M362 431v76h224v-76h-53v-431h-98l-239 363v-287h84v-76h-232v76h53v355h-53v76h155l236 -362v286h-77zM462 672l-4 -74c-20 15 -44 25 -68 25c-50 0 -88 -38 -146 -38c-30 0 -56 12 -69 23l4 73c17 -16 37 -24 65 -24c50 0 81 38 146 38c35 0 56 -13 72 -23z" />
<glyph horiz-adv-x="626" d="M363 431v76h224v-76h-53v-431h-98l-239 363v-287h84v-76h-232v76h53v355h-53v76h155l236 -362v286h-77zM376 -66l-58 -150h-72l25 150h105z" />
<glyph horiz-adv-x="549" d="M150 253c0 -106 25 -178 125 -178c99 0 125 72 125 178c0 107 -27 179 -125 179c-97 0 -125 -72 -125 -179zM502 253c0 -149 -59 -261 -228 -261s-227 112 -227 261s56 263 228 263c171 0 227 -114 227 -263zM152 726h99l75 -159h-87z" />
<glyph horiz-adv-x="549" d="M150 253c0 -106 25 -178 125 -178c99 0 125 72 125 178c0 107 -27 179 -125 179c-97 0 -125 -72 -125 -179zM502 253c0 -149 -59 -261 -228 -261s-227 112 -227 261s56 263 228 263c171 0 227 -114 227 -263zM301 726h99l-87 -159h-87z" />
<glyph horiz-adv-x="549" d="M150 253c0 -106 25 -178 125 -178c99 0 125 72 125 178c0 107 -27 179 -125 179c-97 0 -125 -72 -125 -179zM502 253c0 -149 -59 -261 -228 -261s-227 112 -227 261s56 263 228 263c171 0 227 -114 227 -263zM217 726h120l89 -159h-87l-62 108l-63 -108h-86z" />
<glyph horiz-adv-x="549" d="M150 253c0 -106 25 -178 125 -178c99 0 125 72 125 178c0 107 -27 179 -125 179c-97 0 -125 -72 -125 -179zM502 253c0 -149 -59 -261 -228 -261s-227 112 -227 261s56 263 228 263c171 0 227 -114 227 -263zM420 672l-4 -74c-20 15 -44 25 -68 25 c-50 0 -88 -38 -146 -38c-30 0 -56 12 -69 23l4 73c17 -16 37 -24 65 -24c50 0 81 38 146 38c35 0 56 -13 72 -23z" />
<glyph horiz-adv-x="549" d="M150 253c0 -106 25 -178 125 -178c99 0 125 72 125 178c0 107 -27 179 -125 179c-97 0 -125 -72 -125 -179zM502 253c0 -149 -59 -261 -228 -261s-227 112 -227 261s56 263 228 263c171 0 227 -114 227 -263zM183 578c-36 0 -62 17 -62 60s26 62 62 62 c31 0 62 -19 62 -62s-31 -60 -62 -60zM371 578c-36 0 -62 17 -62 60s26 62 62 62c31 0 62 -19 62 -62s-31 -60 -62 -60z" />
<glyph horiz-adv-x="549" d="M150 253c0 -106 25 -178 125 -178c99 0 125 72 125 178c0 107 -27 179 -125 179c-97 0 -125 -72 -125 -179zM502 253c0 -149 -59 -261 -228 -261s-227 112 -227 261s56 263 228 263c171 0 227 -114 227 -263zM133 670h288v-79h-288v79z" />
<glyph horiz-adv-x="549" d="M150 253c0 -106 25 -178 125 -178c99 0 125 72 125 178c0 107 -27 179 -125 179c-97 0 -125 -72 -125 -179zM502 253c0 -149 -59 -261 -228 -261s-227 112 -227 261s56 263 228 263c171 0 227 -114 227 -263zM354 705h66c0 -81 -52 -144 -145 -144 c-90 0 -142 63 -142 144h64c4 -42 33 -73 78 -73c46 0 75 31 79 73z" />
<glyph horiz-adv-x="549" d="M150 253c0 -106 25 -178 125 -178c99 0 125 72 125 178c0 107 -27 179 -125 179c-97 0 -125 -72 -125 -179zM502 253c0 -149 -59 -261 -228 -261s-227 112 -227 261s56 263 228 263c171 0 227 -114 227 -263zM220 726h99l-87 -159h-87zM386 726h99l-87 -159h-87z" />
<glyph horiz-adv-x="550" d="M421 538v-12l-17 -43c73 -42 99 -128 99 -230c0 -149 -57 -261 -229 -261c-25 0 -48 3 -68 7l-11 -28h-61v13l15 37c-74 41 -101 127 -101 232c0 149 53 263 228 263c26 0 49 -3 70 -8l12 30h63zM400 253c0 61 -10 107 -40 134l-120 -309c11 -2 23 -3 36 -3 c99 0 124 72 124 178zM151 253c0 -62 10 -110 41 -136l119 311c-11 2 -23 4 -35 4c-97 0 -125 -72 -125 -179z" />
<glyph horiz-adv-x="550" d="M421 538v-12l-17 -43c73 -42 99 -128 99 -230c0 -149 -57 -261 -229 -261c-25 0 -48 3 -68 7l-11 -28h-61v13l15 37c-74 41 -101 127 -101 232c0 149 53 263 228 263c26 0 49 -3 70 -8l12 30h63zM400 253c0 61 -10 107 -40 134l-120 -309c11 -2 23 -3 36 -3 c99 0 124 72 124 178zM151 253c0 -62 10 -110 41 -136l119 311c-11 2 -23 4 -35 4c-97 0 -125 -72 -125 -179zM301 726h99l-87 -159h-87z" />
<glyph horiz-adv-x="739" d="M602 153h86v-153h-342c-21 -5 -45 -8 -72 -8c-171 0 -227 112 -227 261s54 263 228 263c28 0 52 -3 75 -9h336v-152h-88v76h-165v-137h165v-78h-165v-140h169v77zM275 75c26 0 47 4 64 11v334c-17 7 -38 12 -64 12c-97 0 -125 -72 -125 -179c0 -106 25 -178 125 -178z " />
<glyph horiz-adv-x="554" d="M103 76v355h-55v76h242c136 0 191 -54 191 -146c0 -69 -42 -117 -114 -134c46 -33 88 -101 106 -151h59v-76h-209v76h46c-17 50 -56 111 -100 141h-71v-141h53v-76h-203v76h55zM384 360c0 40 -18 71 -89 71h-97v-140h91c73 0 95 28 95 69zM281 726h99l-87 -159h-87z" />
<glyph horiz-adv-x="554" d="M103 76v355h-55v76h242c136 0 191 -54 191 -146c0 -69 -42 -117 -114 -134c46 -33 88 -101 106 -151h59v-76h-209v76h46c-17 50 -56 111 -100 141h-71v-141h53v-76h-203v76h55zM384 360c0 40 -18 71 -89 71h-97v-140h91c73 0 95 28 95 69zM313 567h-120l-89 159h86 l63 -108l62 108h87z" />
<glyph horiz-adv-x="553" d="M102 76v355h-55v76h242c136 0 191 -54 191 -146c0 -69 -42 -117 -114 -134c46 -33 88 -101 106 -151h59v-76h-209v76h46c-17 50 -56 111 -100 141h-71v-141h53v-76h-203v76h55zM383 360c0 40 -18 71 -89 71h-97v-140h91c73 0 95 28 95 69zM339 -66l-58 -150h-72l25 150 h105z" />
<glyph horiz-adv-x="464" d="M400 345h-79l-15 84c-21 6 -45 9 -70 9c-52 0 -80 -28 -80 -62c0 -27 13 -48 55 -62l78 -27c99 -34 130 -81 130 -151c0 -67 -55 -144 -186 -144c-72 0 -131 14 -178 36l-7 137h80l22 -86c18 -7 53 -13 82 -13c52 0 85 23 85 64c0 30 -21 52 -58 65l-79 26 c-94 31 -124 77 -124 150c0 67 48 145 180 145c61 0 125 -18 164 -37v-134zM265 726h99l-87 -159h-87z" />
<glyph horiz-adv-x="464" d="M400 345h-79l-15 84c-21 6 -45 9 -70 9c-52 0 -80 -28 -80 -62c0 -27 13 -48 55 -62l78 -27c99 -34 130 -81 130 -151c0 -67 -55 -144 -186 -144c-72 0 -131 14 -178 36l-7 137h80l22 -86c18 -7 53 -13 82 -13c52 0 85 23 85 64c0 30 -21 52 -58 65l-79 26 c-94 31 -124 77 -124 150c0 67 48 145 180 145c61 0 125 -18 164 -37v-134zM179 726h120l89 -159h-87l-62 108l-63 -108h-86z" />
<glyph horiz-adv-x="464" d="M400 345h-79l-15 84c-21 6 -45 9 -70 9c-52 0 -80 -28 -80 -62c0 -27 13 -48 55 -62l78 -27c99 -34 130 -81 130 -151c0 -67 -55 -144 -186 -144c-72 0 -131 14 -178 36l-7 137h80l22 -86c18 -7 53 -13 82 -13c52 0 85 23 85 64c0 30 -21 52 -58 65l-79 26 c-94 31 -124 77 -124 150c0 67 48 145 180 145c61 0 125 -18 164 -37v-134zM299 567h-120l-89 159h86l63 -108l62 108h87z" />
<glyph horiz-adv-x="465" d="M400 345h-79l-15 84c-21 6 -45 9 -70 9c-52 0 -80 -28 -80 -62c0 -27 13 -48 55 -62l78 -27c99 -34 130 -81 130 -151c0 -64 -49 -136 -167 -143l-18 -50c5 2 14 4 30 4c37 0 71 -26 71 -69c0 -46 -34 -77 -106 -77c-32 0 -65 8 -100 23l9 47c33 -17 60 -25 85 -25 c28 0 41 12 41 33c0 17 -12 31 -33 31c-14 0 -23 -5 -29 -8c0 0 -23 9 -35 14l29 77c-54 4 -102 16 -141 35l-7 137h80l22 -86c18 -7 53 -13 82 -13c52 0 85 23 85 64c0 30 -21 52 -58 65l-79 26c-94 31 -124 77 -124 150c0 67 48 145 180 145c61 0 125 -18 164 -37v-134z " />
<glyph horiz-adv-x="464" d="M400 345h-79l-15 84c-21 6 -45 9 -70 9c-52 0 -80 -28 -80 -62c0 -27 13 -48 55 -62l78 -27c99 -34 130 -81 130 -151c0 -67 -55 -144 -186 -144c-72 0 -131 14 -178 36l-7 137h80l22 -86c18 -7 53 -13 82 -13c52 0 85 23 85 64c0 30 -21 52 -58 65l-79 26 c-94 31 -124 77 -124 150c0 67 48 145 180 145c61 0 125 -18 164 -37v-134zM290 -66l-58 -150h-72l25 150h105z" />
<glyph horiz-adv-x="493" d="M31 507h432v-157h-79v81h-93v-355h73v-76h-241v76h75v355h-88v-81h-79v157zM305 567h-120l-89 159h86l63 -108l62 108h87z" />
<glyph horiz-adv-x="493" d="M31 507h432v-157h-79v81h-93v-355h73v-76h-96l-21 -56c6 2 15 4 30 4c37 0 72 -26 72 -69c0 -46 -35 -77 -107 -77c-31 0 -64 8 -100 23l10 47c32 -17 59 -25 85 -25c27 0 41 12 41 33c0 17 -13 31 -34 31c-14 0 -23 -5 -28 -8c0 0 -23 9 -35 14l31 83h-89v76h75v355h-88 v-81h-79v157z" />
<glyph horiz-adv-x="492" d="M31 507h432v-157h-79v81h-93v-355h73v-76h-241v76h75v355h-88v-81h-79v157zM295 -66l-58 -150h-72l25 150h105z" />
<glyph horiz-adv-x="493" d="M97 287h102v144h-89v-81h-79v157h432v-157h-79v81h-92v-144h105v-77h-105v-134h74v-76h-241v76h74v134h-102v77z" />
<glyph horiz-adv-x="529" d="M114 431h-72v76h257v-76h-87v-42h131c111 0 155 -52 155 -135c0 -88 -44 -136 -154 -136h-132v-42h88v-76h-258v76h72v355zM408 254c0 36 -16 61 -64 61h-132v-120h132c49 0 64 24 64 59z" />
<glyph horiz-adv-x="577" d="M544 431h-52v-240c0 -143 -85 -198 -204 -198c-118 0 -204 55 -204 198v240h-51v76h216v-76h-71v-241c0 -82 38 -115 110 -115s110 33 110 115v241h-68v76h214v-76zM166 726h99l75 -159h-87z" />
<glyph horiz-adv-x="577" d="M544 431h-52v-240c0 -143 -85 -198 -204 -198c-118 0 -204 55 -204 198v240h-51v76h216v-76h-71v-241c0 -82 38 -115 110 -115s110 33 110 115v241h-68v76h214v-76zM319 726h99l-87 -159h-87z" />
<glyph horiz-adv-x="577" d="M544 431h-52v-240c0 -143 -85 -198 -204 -198c-118 0 -204 55 -204 198v240h-51v76h216v-76h-71v-241c0 -82 38 -115 110 -115s110 33 110 115v241h-68v76h214v-76zM229 726h120l89 -159h-87l-62 108l-63 -108h-86z" />
<glyph horiz-adv-x="577" d="M544 431h-52v-240c0 -143 -85 -198 -204 -198c-118 0 -204 55 -204 198v240h-51v76h216v-76h-71v-241c0 -82 38 -115 110 -115s110 33 110 115v241h-68v76h214v-76zM432 672l-4 -74c-20 15 -44 25 -68 25c-50 0 -88 -38 -146 -38c-30 0 -56 12 -69 23l4 73 c17 -16 37 -24 65 -24c50 0 81 38 146 38c35 0 56 -13 72 -23z" />
<glyph horiz-adv-x="577" d="M544 431h-52v-240c0 -143 -85 -198 -204 -198c-118 0 -204 55 -204 198v240h-51v76h216v-76h-71v-241c0 -82 38 -115 110 -115s110 33 110 115v241h-68v76h214v-76zM195 578c-36 0 -62 17 -62 60s26 62 62 62c31 0 62 -19 62 -62s-31 -60 -62 -60zM383 578 c-36 0 -62 17 -62 60s26 62 62 62c31 0 62 -19 62 -62s-31 -60 -62 -60z" />
<glyph horiz-adv-x="577" d="M544 431h-52v-240c0 -143 -85 -198 -204 -198c-118 0 -204 55 -204 198v240h-51v76h216v-76h-71v-241c0 -82 38 -115 110 -115s110 33 110 115v241h-68v76h214v-76zM145 670h288v-79h-288v79z" />
<glyph horiz-adv-x="577" d="M544 431h-52v-240c0 -143 -85 -198 -204 -198c-118 0 -204 55 -204 198v240h-51v76h216v-76h-71v-241c0 -82 38 -115 110 -115s110 33 110 115v241h-68v76h214v-76zM367 705h66c0 -81 -52 -144 -145 -144c-90 0 -142 63 -142 144h64c4 -42 33 -73 78 -73 c46 0 75 31 79 73z" />
<glyph horiz-adv-x="577" d="M544 431h-52v-240c0 -143 -85 -198 -204 -198c-118 0 -204 55 -204 198v240h-51v76h216v-76h-71v-241c0 -82 38 -115 110 -115s110 33 110 115v241h-68v76h214v-76zM183 649c0 53 38 97 105 97c70 0 108 -44 108 -97c0 -50 -38 -96 -108 -96c-67 0 -105 46 -105 96z M241 649c0 -25 17 -44 47 -44c32 0 49 19 49 44s-17 46 -49 46c-30 0 -47 -21 -47 -46z" />
<glyph horiz-adv-x="577" d="M544 431h-52v-240c0 -143 -85 -198 -204 -198c-118 0 -204 55 -204 198v240h-51v76h216v-76h-71v-241c0 -82 38 -115 110 -115s110 33 110 115v241h-68v76h214v-76zM237 726h99l-87 -159h-87zM403 726h99l-87 -159h-87z" />
<glyph horiz-adv-x="576" d="M544 431h-52v-240c0 -103 -45 -159 -112 -183l-74 -61c-20 -17 -31 -28 -31 -45s13 -28 33 -28c29 0 49 11 58 16l4 -68c-12 -6 -43 -19 -79 -19c-69 0 -111 29 -111 82c0 35 21 59 54 84l34 25c-107 6 -184 61 -184 197v240h-51v76h216v-76h-71v-241 c0 -82 38 -115 110 -115s110 33 110 115v241h-68v76h214v-76z" />
<glyph horiz-adv-x="804" d="M558 431v76h230v-76h-51l-116 -431h-116l-104 295l-102 -295h-116l-116 431h-53v76h215v-76h-64l81 -334l112 309l-39 101h109l131 -410l83 334h-84zM431 726h99l-87 -159h-87z" />
<glyph horiz-adv-x="804" d="M558 431v76h230v-76h-51l-116 -431h-116l-104 295l-102 -295h-116l-116 431h-53v76h215v-76h-64l81 -334l112 309l-39 101h109l131 -410l83 334h-84zM342 726h120l89 -159h-87l-62 108l-63 -108h-86z" />
<glyph horiz-adv-x="804" d="M558 431v76h230v-76h-51l-116 -431h-116l-104 295l-102 -295h-116l-116 431h-53v76h215v-76h-64l81 -334l112 309l-39 101h109l131 -410l83 334h-84zM308 578c-36 0 -62 17 -62 60s26 62 62 62c31 0 62 -19 62 -62s-31 -60 -62 -60zM496 578c-36 0 -62 17 -62 60 s26 62 62 62c31 0 62 -19 62 -62s-31 -60 -62 -60z" />
<glyph horiz-adv-x="804" d="M558 431v76h230v-76h-51l-116 -431h-116l-104 295l-102 -295h-116l-116 431h-53v76h215v-76h-64l81 -334l112 309l-39 101h109l131 -410l83 334h-84zM281 726h99l75 -159h-87z" />
<glyph horiz-adv-x="532" d="M14 431v76h212v-76h-61l102 -160l103 160h-62v76h214v-76h-53l-156 -234v-121h65v-76h-230v76h70v121l-152 234h-52zM295 726h99l-87 -159h-87z" />
<glyph horiz-adv-x="532" d="M14 431v76h212v-76h-61l102 -160l103 160h-62v76h214v-76h-53l-156 -234v-121h65v-76h-230v76h70v121l-152 234h-52zM207 726h120l89 -159h-87l-62 108l-63 -108h-86z" />
<glyph horiz-adv-x="532" d="M14 431v76h212v-76h-61l102 -160l103 160h-62v76h214v-76h-53l-156 -234v-121h65v-76h-230v76h70v121l-152 234h-52zM174 578c-36 0 -62 17 -62 60s26 62 62 62c31 0 62 -19 62 -62s-31 -60 -62 -60zM362 578c-36 0 -62 17 -62 60s26 62 62 62c31 0 62 -19 62 -62 s-31 -60 -62 -60z" />
<glyph horiz-adv-x="532" d="M14 431v76h212v-76h-61l102 -160l103 160h-62v76h214v-76h-53l-156 -234v-121h65v-76h-230v76h70v121l-152 234h-52zM144 726h99l75 -159h-87z" />
<glyph horiz-adv-x="497" d="M443 507v-70l-278 -361h194v116h86v-192h-398v69l278 361h-185v-87h-86v164h389zM283 726h99l-87 -159h-87z" />
<glyph horiz-adv-x="497" d="M443 507v-70l-278 -361h194v116h86v-192h-398v69l278 361h-185v-87h-86v164h389zM314 567h-120l-89 159h86l63 -108l62 108h87z" />
<glyph horiz-adv-x="497" d="M443 507v-70l-278 -361h194v116h86v-192h-398v69l278 361h-185v-87h-86v164h389zM254 578c-36 0 -62 17 -62 60s26 62 62 62c31 0 62 -19 62 -62s-31 -60 -62 -60z" />
<glyph horiz-adv-x="619" d="M44 0v76h64v355h-64v76h219v-76h-60v-355h60v-76h-219zM362 431v76h216v-76h-51v-411c0 -84 -35 -146 -112 -191l-57 62c45 28 75 57 75 120v420h-71z" />
<glyph horiz-adv-x="924" d="M860 345h-79l-15 84c-21 6 -45 9 -70 9c-52 0 -80 -28 -80 -62c0 -27 13 -48 55 -62l78 -27c99 -34 130 -81 130 -151c0 -67 -55 -144 -186 -144c-72 0 -131 14 -178 36l-7 137h80l22 -86c18 -7 53 -13 82 -13c52 0 85 23 85 64c0 30 -21 52 -58 65l-79 26 c-94 31 -124 77 -124 150c0 67 48 145 180 145c61 0 125 -18 164 -37v-134zM400 345h-79l-15 84c-21 6 -45 9 -70 9c-52 0 -80 -28 -80 -62c0 -27 13 -48 55 -62l78 -27c99 -34 130 -81 130 -151c0 -67 -55 -144 -186 -144c-72 0 -131 14 -178 36l-7 137h80l22 -86 c18 -7 53 -13 82 -13c52 0 85 23 85 64c0 30 -21 52 -58 65l-79 26c-94 31 -124 77 -124 150c0 67 48 145 180 145c61 0 125 -18 164 -37v-134z" />
<glyph horiz-adv-x="778" d="M48 0v76h55v355h-55v76h390v-159h-88v83h-152v-156h168v-79h-168v-120h96v-76h-246zM513 0v76h64v355h-64v76h219v-76h-60v-355h60v-76h-219z" />
<glyph horiz-adv-x="923" d="M48 0v76h55v355h-55v76h390v-159h-88v83h-152v-156h168v-79h-168v-120h96v-76h-246zM806 175h86v-175h-379v76h55v355h-55v76h210v-76h-60v-355h143v99z" />
<glyph horiz-adv-x="636" d="M447 -3l-249 367v-288h85v-76h-235v76h55v355h-55v76h155l245 -370v294h-78v76h228v-76h-55v-435c0 -62 -21 -125 -100 -167l-62 62c41 25 66 64 66 106z" />
<glyph horiz-adv-x="600" d="M213 726h99l75 -159h-87z" />
<glyph horiz-adv-x="600" d="M288 726h99l-87 -159h-87z" />
<glyph horiz-adv-x="600" d="M240 726h120l89 -159h-87l-62 108l-63 -108h-86z" />
<glyph horiz-adv-x="600" d="M360 567h-120l-89 159h86l63 -108l62 108h87z" />
<glyph horiz-adv-x="600" d="M365 507l-58 -162h-72l25 162h105z" />
<glyph horiz-adv-x="600" d="M443 672l-4 -74c-20 15 -44 25 -68 25c-50 0 -88 -38 -146 -38c-30 0 -56 12 -69 23l4 73c17 -16 37 -24 65 -24c50 0 81 38 146 38c35 0 56 -13 72 -23z" />
<glyph horiz-adv-x="600" d="M206 578c-36 0 -62 17 -62 60s26 62 62 62c31 0 62 -19 62 -62s-31 -60 -62 -60zM394 578c-36 0 -62 17 -62 60s26 62 62 62c31 0 62 -19 62 -62s-31 -60 -62 -60z" />
<glyph horiz-adv-x="600" d="M156 670h288v-79h-288v79z" />
<glyph horiz-adv-x="600" d="M377 705h66c0 -81 -52 -144 -145 -144c-90 0 -142 63 -142 144h64c4 -42 33 -73 78 -73c46 0 75 31 79 73z" />
<glyph horiz-adv-x="600" d="M193 649c0 53 38 97 105 97c70 0 108 -44 108 -97c0 -50 -38 -96 -108 -96c-67 0 -105 46 -105 96zM251 649c0 -25 17 -44 47 -44c32 0 49 19 49 44s-17 46 -49 46c-30 0 -47 -21 -47 -46z" />
<glyph horiz-adv-x="600" d="M205 726h99l-87 -159h-87zM371 726h99l-87 -159h-87z" />
<glyph horiz-adv-x="600" d="M300 578c-36 0 -62 17 -62 60s26 62 62 62c31 0 62 -19 62 -62s-31 -60 -62 -60z" />
<glyph horiz-adv-x="254" d="M89 334h76l16 -338h-110zM126 507c36 0 62 -24 62 -56c0 -33 -26 -57 -62 -57c-34 0 -60 24 -60 57c0 32 26 56 60 56z" />
<glyph horiz-adv-x="393" d="M267 154h77l13 -104c-34 -29 -83 -54 -154 -54c-106 0 -166 58 -166 128c0 88 80 126 127 147v71h86v-114c-60 -20 -114 -52 -114 -96c0 -29 20 -55 69 -55c23 0 45 6 62 15v62zM206 515c35 0 61 -24 61 -56c0 -33 -26 -57 -61 -57c-36 0 -61 24 -61 57c0 32 25 56 61 56 z" />
<glyph horiz-adv-x="482" d="M44 332h44c18 112 82 183 212 183c55 0 97 -12 140 -30l-30 -80c-30 13 -68 24 -113 24c-66 0 -98 -38 -110 -97h193l-22 -60h-177s-1 -13 -1 -17c0 -8 0 -17 1 -25h162l-21 -60h-132c12 -55 54 -89 114 -89c35 0 73 7 114 23l21 -81c-40 -19 -94 -31 -145 -31 c-114 0 -184 62 -205 178h-45v60h38v42h-38v60z" />
<glyph horiz-adv-x="425" d="M317 395l-13 -52c27 -5 52 -14 72 -25l-21 -73c-21 9 -45 16 -71 19l-50 -188c8 -2 16 -2 22 -2c34 0 67 10 99 23l21 -74c-34 -16 -78 -29 -125 -30c-13 -1 -25 -1 -38 0l-12 -46l-46 9l11 44c-82 23 -115 93 -115 172c0 94 54 179 176 179c9 0 18 -1 28 -1l15 55z M149 172c0 -36 11 -66 39 -84l46 178c-57 -2 -85 -33 -85 -94z" />
<glyph horiz-adv-x="466" d="M47 230h50v102c0 100 46 183 176 183c68 0 112 -15 150 -30l-16 -137h-71v80c-14 4 -35 8 -59 8c-62 0 -85 -36 -85 -104v-102h137v-60h-137v-93h217v-77h-362v63l50 31v76h-50v60z" />
<glyph horiz-adv-x="315" d="M190 265v-321c0 -60 -35 -114 -128 -114c-14 0 -40 5 -51 9v75c15 -1 34 -2 52 -2c28 0 39 13 39 39v314h-72v77h72v74c0 60 35 114 128 114c14 0 40 -5 51 -9v-75c-15 1 -33 2 -52 2c-28 0 -39 -13 -39 -39v-67h79v-77h-79z" />
<glyph horiz-adv-x="575" d="M85 230h131l-27 42h-104v60h65l-64 99h-52v76h212v-76h-61l102 -160l102 160h-61v76h213v-76h-52l-66 -99h66v-60h-106l-28 -42h134v-60h-156v-94h65v-76h-230v76h70v94h-153v60z" />
<glyph horiz-adv-x="476" d="M49 507l378 1v-61h-100c17 -16 30 -42 33 -70h67v-49h-67c-7 -59 -46 -102 -110 -117c47 -35 86 -91 99 -131h63v-80h-217v80h48c-8 31 -52 95 -95 120h-99v75h103c67 0 97 20 104 53h-206v49h207c-6 36 -31 53 -99 53h-109v77z" />
<glyph horiz-adv-x="911" d="M512 507v-10l-329 -497h-67v10l327 497h69zM164 515c91 0 130 -57 130 -123c0 -69 -41 -125 -130 -125c-88 0 -127 56 -127 125c0 66 41 123 127 123zM164 340c36 0 53 19 53 52c0 30 -17 49 -53 49c-34 0 -51 -19 -51 -49c0 -33 17 -52 51 -52zM464 239 c91 0 130 -56 130 -123c0 -69 -41 -124 -130 -124c-88 0 -128 55 -128 124c0 67 42 123 128 123zM464 65c36 0 53 19 53 51c0 31 -17 49 -53 49c-35 0 -51 -18 -51 -49c0 -32 16 -51 51 -51zM749 239c91 0 130 -56 130 -123c0 -69 -41 -124 -130 -124 c-88 0 -128 55 -128 124c0 67 42 123 128 123zM749 65c36 0 53 19 53 51c0 31 -17 49 -53 49c-35 0 -51 -18 -51 -49c0 -32 16 -51 51 -51z" />
<glyph d="M132 335c0 -174 34 -256 148 -256c112 0 148 83 148 256s-36 262 -150 262c-111 0 -146 -89 -146 -262zM531 335c0 -216 -67 -346 -253 -346c-185 0 -250 130 -250 346c0 218 68 351 252 351s251 -131 251 -351z" />
<glyph d="M97 0v89h166v486l-162 -64l-23 81l197 84h87v-587h140v-89h-405z" />
<glyph d="M164 448l-99 -7c-3 13 -5 30 -5 45c0 114 72 200 210 200c147 0 213 -88 213 -198c0 -102 -69 -175 -132 -239c-39 -41 -112 -115 -157 -160h223v80h82v-169h-442v76c72 68 165 164 232 235c58 61 91 107 91 177c0 64 -35 110 -109 110c-73 0 -111 -45 -111 -113 c0 -10 2 -27 4 -37z" />
<glyph d="M150 494h-75l-7 130c42 31 110 62 194 62c157 0 212 -90 212 -185c0 -93 -52 -143 -112 -160c68 -14 133 -61 133 -159c0 -117 -79 -193 -238 -193c-88 0 -165 32 -209 72l46 78c38 -34 92 -61 164 -61c96 0 133 43 133 107c0 71 -40 106 -146 106h-74v89h69 c78 0 133 36 133 109c0 68 -35 109 -114 109c-45 0 -79 -11 -109 -27v-77z" />
<glyph d="M534 226v-82h-101v-144h-97v144h-318v74l241 353c40 59 62 105 62 105h112v-450h101zM126 226h210v317z" />
<glyph d="M59 46l9 144h81v-89c29 -14 63 -23 105 -23c93 0 142 49 142 137c0 79 -42 129 -134 129c-54 0 -98 -15 -140 -36l-39 11l43 357h352v-89h-272l-23 -183c22 13 65 29 116 29c128 0 200 -84 200 -214c0 -141 -85 -230 -246 -230c-84 0 -149 27 -194 57z" />
<glyph d="M327 598c-133 0 -173 -121 -173 -236c0 -4 0 -10 1 -16c18 42 71 91 156 91c132 0 203 -86 203 -218c0 -138 -75 -230 -228 -230c-156 0 -233 118 -233 331c0 210 73 366 275 366c68 0 123 -18 172 -43l-35 -82c-46 24 -86 37 -138 37zM290 78c90 0 124 60 124 136 c0 75 -35 127 -117 127c-72 0 -118 -43 -140 -89c4 -93 37 -174 133 -174z" />
<glyph d="M145 0l248 594h-232v-121h-91v203h444l-1 -71c-25 -35 -52 -100 -73 -150l-182 -455h-113z" />
<glyph d="M503 501c0 -73 -50 -126 -94 -154c57 -28 110 -75 110 -162c0 -123 -93 -196 -240 -196c-141 0 -236 70 -236 191c0 79 50 137 102 165c-45 26 -84 70 -84 151c0 105 78 190 219 190c149 0 223 -82 223 -185zM329 274l-118 41c-38 -30 -69 -67 -69 -125 c0 -64 46 -114 144 -114c93 0 130 45 130 100c0 52 -32 79 -87 98zM159 504c0 -44 26 -73 78 -92l98 -36c36 24 70 61 70 116c0 59 -37 110 -131 110c-75 0 -115 -41 -115 -98z" />
<glyph d="M234 78c136 0 171 111 171 225c0 4 0 11 -1 18c-20 -46 -75 -93 -159 -93c-127 0 -197 89 -197 224c0 136 75 234 226 234c171 0 232 -152 232 -340c0 -214 -72 -357 -273 -357c-66 0 -130 20 -174 49l33 83c43 -27 89 -43 142 -43zM272 597c-91 0 -125 -62 -125 -137 c0 -82 34 -136 116 -136c73 0 116 42 139 90c-3 93 -35 183 -130 183z" />
<glyph d="M140 285c0 -124 38 -199 141 -199c101 0 140 75 140 199s-39 204 -142 204c-100 0 -139 -80 -139 -204zM522 285c0 -173 -70 -296 -243 -296c-171 0 -241 123 -241 296c0 174 72 301 243 301s241 -128 241 -301z" />
<glyph d="M100 0v88h165v384l-158 -57l-28 77l198 83h87v-487h140v-88h-404z" />
<glyph d="M499 0h-441v68c72 60 164 140 231 200c57 52 92 95 92 142c0 54 -38 88 -110 88c-78 0 -111 -35 -111 -88c0 -7 2 -19 4 -28l-99 -5c-3 10 -5 25 -5 38c0 98 72 171 211 171c146 0 213 -74 213 -165c0 -88 -65 -150 -127 -205l-158 -135h218v67h82v-148z" />
<glyph d="M151 395h-75l-8 129c43 31 111 62 195 62c157 0 212 -90 212 -185c0 -93 -53 -143 -113 -160c69 -14 133 -61 133 -159c0 -117 -79 -193 -237 -193c-88 0 -165 32 -209 72l46 78c38 -34 91 -61 163 -61c97 0 134 43 134 107c0 71 -41 106 -147 106h-73v89h68 c79 0 134 36 134 109c0 68 -35 109 -115 109c-44 0 -78 -11 -108 -27v-76z" />
<glyph d="M533 126v-82h-101v-144h-97v144h-318v74l241 353c40 59 62 105 62 105h112v-450h101zM125 126h210v314z" />
<glyph d="M57 -54l8 144h81v-89c29 -14 63 -23 106 -23c93 0 142 49 142 137c0 79 -42 129 -134 129c-54 0 -98 -15 -141 -36l-39 11l43 357h352v-89h-271l-23 -183c22 13 64 29 116 29c128 0 199 -84 199 -214c0 -141 -84 -230 -245 -230c-84 0 -150 27 -194 57z" />
<glyph d="M328 598c-137 0 -178 -121 -178 -236c0 -4 0 -10 1 -16c18 42 73 91 160 91c135 0 207 -86 207 -218c0 -138 -76 -230 -232 -230c-159 0 -237 118 -237 331c0 210 74 366 280 366c69 0 125 -18 175 -43l-35 -82c-47 24 -88 37 -141 37zM290 78c93 0 128 60 128 136 c0 75 -36 128 -121 128c-74 0 -122 -44 -144 -90c4 -93 38 -174 137 -174z" />
<glyph d="M145 -100l247 594h-231v-127h-92v209h444v-71c-23 -37 -49 -93 -73 -150l-183 -455h-112z" />
<glyph d="M502 501c0 -73 -50 -126 -94 -154c58 -28 110 -77 110 -162c0 -123 -92 -196 -239 -196c-142 0 -236 70 -236 191c0 79 50 137 101 165c-45 27 -84 72 -84 151c0 105 79 190 220 190c149 0 222 -82 222 -185zM329 274l-118 41c-38 -30 -69 -67 -69 -125 c0 -64 45 -114 144 -114c92 0 129 45 129 100c0 52 -35 80 -86 98zM159 504c0 -44 28 -74 78 -92l97 -36c37 24 70 61 70 116c0 59 -36 110 -130 110c-76 0 -115 -41 -115 -98z" />
<glyph d="M233 -23c140 0 176 111 176 225c0 5 0 12 -1 18c-20 -45 -77 -92 -163 -92c-130 0 -201 89 -201 224s76 234 230 234c174 0 236 -152 236 -340c0 -215 -73 -357 -278 -357c-67 0 -132 20 -177 48l33 83c44 -26 91 -43 145 -43zM272 497c-94 0 -129 -63 -129 -137 c0 -82 35 -137 120 -137c75 0 119 43 143 91c-3 93 -36 183 -134 183z" />
<glyph d="M35 436h55c22 153 101 250 260 250c68 0 122 -16 175 -42l-33 -85c-39 20 -87 37 -145 37c-94 0 -139 -64 -154 -160h250l-25 -67h-231c-1 -10 -1 -19 -1 -29c0 -14 1 -27 2 -40h206l-24 -67h-173c15 -90 67 -151 157 -151c46 0 96 10 149 39l23 -87 c-51 -28 -109 -45 -176 -45c-152 0 -235 89 -259 244h-56v67h49c-1 13 -1 26 -1 40c0 10 0 19 1 29h-49v67z" />
<glyph d="M404 528l-17 -71c37 -8 71 -22 96 -38l-24 -78c-26 15 -58 26 -93 32l-71 -295c11 -1 23 -2 32 -2c47 0 101 20 132 39l24 -79c-47 -27 -113 -47 -183 -47c-9 0 -18 1 -26 2l-15 -61l-53 12l14 59c-96 31 -137 122 -137 228c0 129 67 238 217 238c10 0 21 -1 32 -2l18 75 zM243 95l68 284c-86 -3 -125 -55 -125 -151c0 -63 16 -107 57 -133z" />
<glyph d="M50 300h65v144c0 133 57 242 215 242c83 0 138 -18 183 -38l-18 -166h-74v106c-21 7 -51 14 -88 14c-88 0 -119 -63 -119 -159v-143h182v-67h-182v-151h284v-82h-448v67l65 32v134h-65v67z" />
<glyph d="M326 374v-447c0 -81 -40 -153 -144 -153c-25 0 -53 5 -67 10v81c18 -2 39 -4 61 -4c44 0 58 27 58 73v440h-94v82h94v97c0 81 40 153 141 153c28 0 56 -5 69 -10v-81c-18 2 -38 4 -61 4c-43 0 -57 -27 -57 -73v-90h103v-82h-103z" />
<glyph d="M51 300h161l-38 69h-123v67h87l-87 157h-59v83h240v-83h-77l123 -239l126 239h-77v83h240v-83h-58l-91 -157h89v-67h-126l-40 -69h166v-67h-181v-150h77v-83h-257v83h82v150h-177v67z" />
<glyph d="M55 676l448 1v-67h-121c25 -27 39 -61 43 -101h78v-67h-79c-11 -79 -64 -135 -149 -154c63 -47 117 -128 140 -205h80v-83h-251v83h63c-16 66 -73 152 -138 195h-114v81h106c100 0 144 26 158 83h-264v67h266c-15 58 -52 84 -149 84h-117v83z" />
<glyph d="M310 -103h-63v93c-69 3 -134 19 -186 46v171h83l16 -116c21 -10 56 -18 87 -20v226l-32 11c-109 40 -154 93 -153 190c0 81 53 172 185 186v75h63v-74c66 -4 129 -22 175 -44v-163h-82l-17 109c-24 7 -47 13 -76 15v-219l37 -13c116 -40 162 -99 162 -192 c0 -81 -63 -175 -199 -187v-94zM319 272l-9 2v-201c55 10 93 47 93 98c0 48 -33 83 -84 101zM166 502c0 -46 24 -76 81 -97v193c-54 -12 -81 -53 -81 -96z" />
<glyph horiz-adv-x="588" d="M146 285c0 -124 40 -199 149 -199c107 0 148 75 148 199s-41 204 -150 204c-105 0 -147 -80 -147 -204zM544 285c0 -173 -72 -296 -251 -296c-177 0 -249 123 -249 296c0 174 74 301 251 301s249 -128 249 -301z" />
<glyph horiz-adv-x="461" d="M46 0v88h166v384l-156 -59l-28 77l196 85h86v-487h141v-88h-405z" />
<glyph horiz-adv-x="519" d="M479 0h-441v68c72 60 164 140 231 200c57 52 92 95 92 142c0 54 -38 88 -110 88c-78 0 -111 -35 -111 -88c0 -7 2 -19 4 -28l-99 -5c-3 10 -5 25 -5 38c0 98 72 171 211 171c146 0 213 -74 213 -165c0 -88 -65 -150 -127 -205l-158 -135h218v67h82v-148z" />
<glyph horiz-adv-x="512" d="M126 395h-74l-8 129c43 31 111 62 194 62c157 0 213 -90 213 -185c0 -93 -53 -143 -113 -160c69 -14 133 -61 133 -159c0 -117 -79 -193 -237 -193c-88 0 -165 32 -210 72l47 78c38 -34 91 -61 163 -61c97 0 134 43 134 107c0 71 -41 106 -147 106h-74v89h69 c79 0 134 36 134 109c0 68 -35 109 -115 109c-44 0 -79 -11 -109 -27v-76z" />
<glyph horiz-adv-x="541" d="M525 126v-82h-101v-144h-96v144h-319v74l242 353c39 59 61 105 61 105h112v-450h101zM118 126h210v314z" />
<glyph horiz-adv-x="512" d="M33 -54l9 144h81v-89c29 -14 63 -23 106 -23c93 0 141 49 141 137c0 79 -42 129 -133 129c-54 0 -99 -15 -141 -36l-39 11l43 357h352v-89h-272l-23 -183c22 13 65 29 116 29c128 0 200 -84 200 -214c0 -141 -85 -230 -246 -230c-84 0 -149 27 -194 57z" />
<glyph horiz-adv-x="540" d="M318 598c-134 0 -174 -121 -174 -236c0 -4 0 -10 1 -16c19 42 71 91 157 91c131 0 202 -86 202 -218c0 -138 -74 -230 -227 -230c-156 0 -234 118 -234 331c0 210 73 366 276 366c67 0 123 -18 172 -43l-34 -82c-47 24 -86 37 -139 37zM281 78c89 0 124 60 124 136 c0 75 -36 128 -118 128c-72 0 -117 -44 -140 -90c4 -93 37 -174 134 -174z" />
<glyph horiz-adv-x="488" d="M107 -100l247 594h-231v-127h-92v209h444v-71c-23 -37 -49 -93 -73 -150l-183 -455h-112z" />
<glyph horiz-adv-x="559" d="M502 501c0 -73 -50 -126 -94 -154c58 -28 110 -77 110 -162c0 -123 -92 -196 -239 -196c-142 0 -237 70 -237 191c0 79 51 137 102 165c-45 27 -84 72 -84 151c0 105 78 190 220 190c149 0 222 -82 222 -185zM329 274l-118 41c-38 -30 -69 -67 -69 -125 c0 -64 45 -114 144 -114c92 0 129 45 129 100c0 52 -35 80 -86 98zM159 504c0 -44 28 -74 77 -92l98 -36c37 24 70 61 70 116c0 59 -37 110 -130 110c-76 0 -115 -41 -115 -98z" />
<glyph horiz-adv-x="537" d="M221 -23c136 0 172 111 172 225c0 5 0 12 -1 18c-19 -45 -75 -92 -158 -92c-128 0 -199 89 -199 224s76 234 227 234c172 0 232 -152 232 -340c0 -215 -73 -357 -274 -357c-65 0 -129 20 -173 48l33 83c43 -26 89 -43 141 -43zM259 497c-90 0 -124 -63 -124 -137 c0 -82 34 -137 117 -137c72 0 115 43 137 91c-2 93 -34 183 -130 183z" />
<glyph unicode="&#x2070;" horiz-adv-x="370" d="M112 607c0 -82 18 -119 75 -119c54 0 72 37 72 119c0 81 -18 122 -74 122s-73 -41 -73 -122zM337 607c0 -114 -42 -183 -153 -183c-109 0 -150 69 -150 183s41 186 153 186c108 0 150 -70 150 -186z" />
<glyph unicode="&#x2074;" horiz-adv-x="342" d="M321 558v-58h-54v-70h-74v70h-179v52l130 179c22 30 36 57 36 57h87v-230h54zM95 558h98v140z" />
<glyph unicode="&#x2075;" horiz-adv-x="323" d="M27 454l7 83h61v-42c14 -5 31 -8 50 -8c47 0 70 22 70 56s-22 55 -70 55c-30 0 -54 -6 -80 -14l-23 9l26 195h211v-63h-151l-10 -72c12 4 33 9 59 9c74 0 116 -46 116 -116c0 -75 -51 -122 -147 -122c-53 0 -92 15 -119 30z" />
<glyph unicode="&#x2076;" horiz-adv-x="345" d="M202 730c-70 0 -92 -51 -92 -97c0 -2 0 -7 1 -9c9 15 39 37 82 37c77 0 122 -42 122 -115c0 -72 -46 -122 -140 -122c-92 0 -142 59 -142 175c0 112 47 194 170 194c40 0 74 -10 106 -24l-26 -58c-27 12 -50 19 -81 19zM178 487c43 0 62 22 62 54c0 31 -19 51 -59 51 c-34 0 -57 -15 -69 -30c1 -40 19 -75 66 -75z" />
<glyph unicode="&#x2077;" horiz-adv-x="302" d="M65 430l137 300h-108v-63h-70v121h269l-1 -49c-14 -21 -31 -52 -46 -87l-96 -222h-85z" />
<glyph unicode="&#x2078;" horiz-adv-x="351" d="M309 694c0 -35 -26 -62 -50 -77c33 -16 60 -42 60 -86c0 -65 -57 -107 -144 -107c-84 0 -142 39 -142 103c0 38 25 67 52 80c-25 16 -43 41 -43 82c0 59 51 104 133 104c87 0 134 -43 134 -99zM197 565l-64 20c-15 -12 -25 -27 -25 -48c0 -30 24 -51 71 -51 c42 0 62 16 62 39c0 20 -19 32 -44 40zM117 694c0 -17 11 -30 37 -39l51 -17c17 10 30 25 30 47c0 24 -19 48 -65 48c-34 0 -53 -14 -53 -39z" />
<glyph unicode="&#x2079;" horiz-adv-x="345" d="M144 487c71 0 91 43 91 92c0 2 0 7 -1 10c-12 -18 -42 -39 -85 -39c-71 0 -118 45 -118 118c0 71 50 125 140 125c106 0 141 -88 141 -181c0 -116 -50 -188 -168 -188c-39 0 -79 13 -108 29l24 59c25 -14 54 -25 84 -25zM168 729c-43 0 -61 -24 -61 -55 c0 -33 19 -55 58 -55c34 0 55 15 68 34c-1 41 -19 76 -65 76z" />
<glyph unicode="&#x2080;" horiz-adv-x="370" d="M111 77c0 -82 18 -119 76 -119c54 0 72 38 72 119c0 82 -18 122 -75 122c-55 0 -73 -41 -73 -122zM336 77c0 -114 -41 -183 -152 -183c-109 0 -151 69 -151 183s41 186 153 186c109 0 150 -70 150 -186z" />
<glyph unicode="&#x2081;" horiz-adv-x="299" d="M39 -100v63h94v222l-94 -30l-16 57l121 46h64v-295h78v-63h-247z" />
<glyph unicode="&#x2082;" horiz-adv-x="332" d="M298 -100h-264v52c34 29 90 77 121 107c33 32 55 55 55 94c0 30 -19 48 -50 48c-32 0 -52 -16 -52 -46c0 -7 2 -18 4 -25l-75 -5c-3 8 -4 20 -4 31c0 59 40 107 127 107s128 -47 128 -109c0 -57 -50 -103 -82 -130l-73 -61h104v37h61v-100z" />
<glyph unicode="&#x2083;" horiz-adv-x="323" d="M96 155h-55l-6 75c25 17 67 33 116 33c100 0 128 -56 128 -99c0 -47 -27 -75 -63 -85c37 -7 75 -29 75 -82c0 -62 -47 -103 -142 -103c-55 0 -101 19 -126 39l35 54c22 -17 52 -29 91 -29c46 0 64 17 64 43c0 30 -20 43 -73 43h-43v62h40c40 0 66 17 66 48 c0 27 -17 46 -55 46c-21 0 -38 -4 -52 -10v-35z" />
<glyph unicode="&#x2084;" horiz-adv-x="341" d="M321 29v-58h-54v-71h-74v71h-179v52l130 178c22 30 36 57 36 57h87v-229h54zM95 29h98v139z" />
<glyph unicode="&#x2085;" horiz-adv-x="323" d="M27 -75l7 82h61v-41c14 -6 31 -8 50 -8c47 0 70 22 70 55c0 34 -22 55 -70 55c-30 0 -54 -6 -80 -14l-23 9l26 195h211v-63h-151l-10 -72c12 5 33 9 59 9c74 0 116 -46 116 -115c0 -76 -51 -123 -147 -123c-53 0 -92 15 -119 31z" />
<glyph unicode="&#x2086;" horiz-adv-x="345" d="M202 200c-70 0 -92 -50 -92 -97c0 -2 0 -6 1 -9c9 15 39 38 82 38c77 0 122 -43 122 -116c0 -72 -46 -122 -140 -122c-92 0 -142 59 -142 176c0 111 47 193 170 193c40 0 74 -10 106 -24l-26 -57c-27 12 -50 18 -81 18zM178 -42c43 0 62 21 62 54c0 30 -19 51 -59 51 c-34 0 -57 -15 -69 -31c1 -40 19 -74 66 -74z" />
<glyph unicode="&#x2087;" horiz-adv-x="302" d="M64 -100l137 300h-108v-63h-69v121h268v-48c-15 -22 -32 -53 -47 -87l-95 -223h-86z" />
<glyph unicode="&#x2088;" horiz-adv-x="351" d="M309 165c0 -36 -26 -63 -50 -78c33 -16 60 -42 60 -85c0 -66 -57 -108 -144 -108c-84 0 -142 39 -142 103c0 39 25 67 52 81c-25 16 -43 41 -43 82c0 58 51 103 133 103c87 0 134 -43 134 -98zM133 56c-15 -13 -25 -28 -25 -49c0 -30 24 -51 71 -51c42 0 62 17 62 40 c0 19 -19 32 -44 39zM117 164c0 -16 11 -29 37 -38l51 -18c17 10 30 26 30 47c0 25 -19 49 -65 49c-34 0 -53 -15 -53 -40z" />
<glyph unicode="&#x2089;" horiz-adv-x="345" d="M144 -42c70 0 91 43 91 91c0 3 0 7 -1 10c-12 -18 -43 -38 -85 -38c-72 0 -118 44 -118 117c0 72 49 125 139 125c107 0 142 -88 142 -181c0 -115 -50 -188 -169 -188c-39 0 -79 13 -108 30l24 58c25 -14 54 -24 85 -24zM168 200c-44 0 -61 -25 -61 -55 c0 -33 19 -55 57 -55c34 0 56 15 69 34c-1 40 -19 76 -65 76z" />
<glyph horiz-adv-x="370" d="M111 177c0 -82 18 -119 76 -119c54 0 72 38 72 119c0 82 -18 122 -75 122c-55 0 -73 -41 -73 -122zM336 177c0 -114 -41 -183 -152 -183c-109 0 -151 69 -151 183s41 186 153 186c109 0 150 -70 150 -186z" />
<glyph horiz-adv-x="299" d="M39 0v63h94v222l-94 -30l-16 57l121 46h64v-295h78v-63h-247z" />
<glyph horiz-adv-x="332" d="M298 0h-264v52c34 29 90 77 121 107c33 32 55 55 55 94c0 30 -19 48 -50 48c-32 0 -52 -16 -52 -46c0 -7 2 -18 4 -25l-75 -5c-3 8 -4 20 -4 31c0 59 40 107 127 107s128 -47 128 -109c0 -57 -50 -103 -82 -130l-73 -61h104v37h61v-100z" />
<glyph horiz-adv-x="323" d="M96 255h-55l-6 75c25 17 67 33 116 33c100 0 128 -56 128 -99c0 -47 -27 -75 -63 -85c37 -7 75 -29 75 -82c0 -62 -47 -103 -142 -103c-55 0 -101 19 -126 39l35 54c22 -17 52 -29 91 -29c46 0 64 17 64 43c0 30 -20 43 -73 43h-43v62h40c40 0 66 17 66 48 c0 27 -17 46 -55 46c-21 0 -38 -4 -52 -10v-35z" />
<glyph horiz-adv-x="341" d="M321 129v-58h-54v-71h-74v71h-179v52l130 178c22 30 36 57 36 57h87v-229h54zM95 129h98v139z" />
<glyph horiz-adv-x="323" d="M27 25l7 82h61v-41c14 -6 31 -8 50 -8c47 0 70 22 70 55c0 34 -22 55 -70 55c-30 0 -54 -6 -80 -14l-23 9l26 195h211v-63h-151l-10 -72c12 5 33 9 59 9c74 0 116 -46 116 -115c0 -76 -51 -123 -147 -123c-53 0 -92 15 -119 31z" />
<glyph horiz-adv-x="345" d="M202 300c-70 0 -92 -50 -92 -97c0 -2 0 -6 1 -9c9 15 39 38 82 38c77 0 122 -43 122 -116c0 -72 -46 -122 -140 -122c-92 0 -142 59 -142 176c0 111 47 193 170 193c40 0 74 -10 106 -24l-26 -57c-27 12 -50 18 -81 18zM178 58c43 0 62 21 62 54c0 30 -19 51 -59 51 c-34 0 -57 -15 -69 -31c1 -40 19 -74 66 -74z" />
<glyph horiz-adv-x="302" d="M64 0l137 300h-108v-63h-69v121h268v-48c-15 -22 -32 -53 -47 -87l-95 -223h-86z" />
<glyph horiz-adv-x="351" d="M309 265c0 -36 -26 -63 -50 -78c33 -16 60 -42 60 -85c0 -66 -57 -108 -144 -108c-84 0 -142 39 -142 103c0 39 25 67 52 81c-25 16 -43 41 -43 82c0 58 51 103 133 103c87 0 134 -43 134 -98zM133 156c-15 -13 -25 -28 -25 -49c0 -30 24 -51 71 -51c42 0 62 17 62 40 c0 19 -19 32 -44 39zM117 264c0 -16 11 -29 37 -38l51 -18c17 10 30 26 30 47c0 25 -19 49 -65 49c-34 0 -53 -15 -53 -40z" />
<glyph horiz-adv-x="345" d="M144 58c70 0 91 43 91 91c0 3 0 7 -1 10c-12 -18 -43 -38 -85 -38c-72 0 -118 44 -118 117c0 72 49 125 139 125c107 0 142 -88 142 -181c0 -115 -50 -188 -169 -188c-39 0 -79 13 -108 30l24 58c25 -14 54 -24 85 -24zM168 300c-44 0 -61 -25 -61 -55 c0 -33 19 -55 57 -55c34 0 56 15 69 34c-1 40 -19 76 -65 76z" />
<glyph horiz-adv-x="370" d="M112 495c0 -82 18 -119 75 -119c54 0 72 37 72 119c0 81 -18 122 -74 122s-73 -41 -73 -122zM337 495c0 -114 -42 -183 -153 -183c-109 0 -150 69 -150 183s41 186 153 186c108 0 150 -70 150 -186z" />
<glyph horiz-adv-x="297" d="M38 318v63h94v221l-90 -30l-16 57l116 47h65v-295h77v-63h-246z" />
<glyph horiz-adv-x="332" d="M299 318h-265v52c34 28 90 77 122 107c32 31 55 54 55 94c0 29 -20 47 -50 47c-33 0 -52 -16 -52 -45c0 -7 1 -19 3 -25l-75 -5c-3 8 -4 20 -4 31c0 59 41 107 128 107s128 -48 128 -110c0 -56 -50 -102 -82 -129l-74 -61h105v37h61v-100z" />
<glyph horiz-adv-x="324" d="M96 572h-54l-7 76c25 17 67 33 116 33c101 0 129 -57 129 -100c0 -47 -28 -75 -64 -84c38 -8 75 -30 75 -82c0 -63 -47 -103 -142 -103c-54 0 -101 19 -125 38l34 55c23 -18 53 -30 91 -30c47 0 65 18 65 43c0 31 -20 43 -74 43h-43v63h40c40 0 66 17 66 47 c0 28 -16 47 -54 47c-22 0 -38 -4 -53 -11v-35z" />
<glyph horiz-adv-x="342" d="M321 446v-58h-54v-70h-74v70h-179v52l130 179c22 30 36 57 36 57h87v-230h54zM95 446h98v140z" />
<glyph horiz-adv-x="323" d="M27 342l7 83h61v-42c14 -5 31 -8 50 -8c47 0 70 22 70 56s-22 55 -70 55c-30 0 -54 -6 -80 -14l-23 9l26 195h211v-63h-151l-10 -72c12 4 33 9 59 9c74 0 116 -46 116 -116c0 -75 -51 -122 -147 -122c-53 0 -92 15 -119 30z" />
<glyph horiz-adv-x="345" d="M202 618c-70 0 -92 -51 -92 -97c0 -2 0 -7 1 -9c9 15 39 37 82 37c77 0 122 -42 122 -115c0 -72 -46 -122 -140 -122c-92 0 -142 59 -142 175c0 112 47 194 170 194c40 0 74 -10 106 -24l-26 -58c-27 12 -50 19 -81 19zM178 375c43 0 62 22 62 54c0 31 -19 51 -59 51 c-34 0 -57 -15 -69 -30c1 -40 19 -75 66 -75z" />
<glyph horiz-adv-x="302" d="M65 318l137 300h-108v-63h-70v121h269l-1 -49c-14 -21 -31 -52 -46 -87l-96 -222h-85z" />
<glyph horiz-adv-x="351" d="M309 582c0 -35 -26 -62 -50 -77c33 -16 60 -42 60 -86c0 -65 -57 -107 -144 -107c-84 0 -142 39 -142 103c0 38 25 67 52 80c-25 16 -43 41 -43 82c0 59 51 104 133 104c87 0 134 -43 134 -99zM197 453l-64 20c-15 -12 -25 -27 -25 -48c0 -30 24 -51 71 -51 c42 0 62 16 62 39c0 20 -19 32 -44 40zM117 582c0 -17 11 -30 37 -39l51 -17c17 10 30 25 30 47c0 24 -19 48 -65 48c-34 0 -53 -14 -53 -39z" />
<glyph horiz-adv-x="345" d="M144 375c71 0 91 43 91 92c0 2 0 7 -1 10c-12 -18 -42 -39 -85 -39c-71 0 -118 45 -118 118c0 71 50 125 140 125c106 0 141 -88 141 -181c0 -116 -50 -188 -168 -188c-39 0 -79 13 -108 29l24 59c25 -14 54 -25 84 -25zM168 617c-43 0 -61 -24 -61 -55 c0 -33 19 -55 58 -55c34 0 55 15 68 34c-1 41 -19 76 -65 76z" />
<glyph unicode="&#x2190;" horiz-adv-x="750" d="M82 253v58l246 247l55 -56l-179 -179h470v-82h-470l178 -179l-54 -55z" />
<glyph unicode="&#x2191;" horiz-adv-x="750" d="M346 585h59l246 -246l-55 -55l-179 179v-471h-83v471l-178 -179l-56 55z" />
<glyph unicode="&#x2192;" horiz-adv-x="750" d="M679 320v-58l-246 -247l-55 56l179 179h-471v82h471l-179 179l55 55z" />
<glyph unicode="&#x2193;" horiz-adv-x="750" d="M414 -12h-59l-246 246l55 55l179 -179v470h83v-470l178 178l56 -54z" />
<glyph unicode="&#x2196;" horiz-adv-x="750" d="M149 475l42 42h348v-78h-253l333 -333l-59 -59l-333 333v-253h-78v348z" />
<glyph unicode="&#x2197;" horiz-adv-x="750" d="M569 517l41 -41v-349h-78v254l-333 -333l-58 58l333 333h-253v78h348z" />
<glyph unicode="&#x2198;" horiz-adv-x="750" d="M611 98l-41 -42h-349v78h254l-333 333l58 59l333 -333v253h78v-348z" />
<glyph unicode="&#x2199;" horiz-adv-x="750" d="M191 55l-41 42v348h78v-253l333 333l58 -59l-333 -333h253v-78h-348z" />
<glyph horiz-adv-x="271" d="M254 -95l-72 -27c-88 133 -142 271 -142 463c0 203 61 332 142 463l74 -28c-67 -131 -116 -267 -116 -435c0 -165 38 -290 114 -436z" />
<glyph horiz-adv-x="271" d="M18 -95c75 146 113 271 113 436c0 168 -49 304 -115 435l73 28c81 -131 142 -260 142 -463c0 -192 -54 -330 -142 -463z" />
<glyph d="M105 375h350v-91h-350v91z" />
<glyph horiz-adv-x="312" d="M70 796h220v-83h-121v-746h121v-83h-220v912z" />
<glyph horiz-adv-x="312" d="M22 796h220v-912h-220v83h121v746h-121v83z" />
<glyph horiz-adv-x="299" d="M204 647v-196c0 -88 -64 -105 -90 -111c27 -5 90 -30 90 -110v-207c0 -56 22 -62 64 -63v-76c-113 0 -163 35 -163 139v198c0 66 -50 81 -91 81v76c44 0 91 18 91 82v197c0 103 50 139 163 139v-76c-42 -1 -64 -13 -64 -73z" />
<glyph horiz-adv-x="204" d="M133 -116h-63v912h63v-912z" />
<glyph horiz-adv-x="299" d="M95 451v196c0 60 -23 72 -64 73v76c113 0 162 -36 162 -139v-197c0 -64 47 -82 92 -82v-76c-41 0 -92 -15 -92 -81v-198c0 -104 -49 -139 -162 -139v76c41 1 64 7 64 63v207c0 80 63 105 90 110c-26 6 -90 23 -90 111z" />
<glyph horiz-adv-x="305" d="M18 330l187 221l61 -47l-131 -175l132 -174l-62 -46z" />
<glyph horiz-adv-x="305" d="M99 551l187 -221l-187 -221l-61 46l132 174l-132 175z" />
<glyph horiz-adv-x="506" d="M18 330l187 221l61 -47l-131 -175l132 -174l-62 -46zM220 330l187 221l61 -47l-132 -175l132 -174l-61 -46z" />
<glyph horiz-adv-x="506" d="M301 551l187 -221l-187 -221l-62 46l132 174l-131 175zM99 551l187 -221l-187 -221l-61 46l132 174l-132 175z" />
<glyph horiz-adv-x="582" d="M56 375h470v-91h-470v91z" />
<glyph horiz-adv-x="722" d="M56 375h610v-91h-610v91z" />
<glyph d="M280 212c-71 0 -123 50 -123 117c0 68 52 118 123 118s122 -50 122 -118c0 -67 -51 -117 -122 -117z" />
<glyph horiz-adv-x="223" d="M111 304c-39 0 -67 27 -67 64c0 38 28 66 67 66s68 -28 68 -66c0 -37 -29 -64 -68 -64z" />
<glyph horiz-adv-x="672" d="M620 337c0 -81 -12 -154 -40 -211l77 -60l-58 -77l-76 62c-44 -40 -105 -62 -190 -62c-219 0 -284 153 -284 348s64 350 286 350s285 -155 285 -350zM346 194l54 75l94 -75c14 38 20 86 20 143c0 159 -40 260 -179 260c-138 0 -179 -101 -179 -260 c0 -157 38 -259 179 -259c49 0 84 12 110 35z" />
<glyph unicode="&#x25cb;" horiz-adv-x="780" d="M51 338c0 207 140 348 339 348s339 -141 339 -348c0 -205 -140 -349 -339 -349s-339 144 -339 349zM121 338c0 -173 106 -281 269 -281s269 108 269 281c0 174 -106 280 -269 280s-269 -106 -269 -280z" />
<glyph horiz-adv-x="223" d="M140 290h-57v292h57v-292zM83 188h57v-290h-57v290z" />
<glyph horiz-adv-x="641" d="M116 83v510h-73v83h296c165 0 232 -69 232 -190c0 -96 -54 -156 -152 -178l130 -225h80v-83h-252v83h65l-118 215h-110v-215h74v-83h-244v83h72zM469 485c0 65 -31 108 -130 108h-125v-214h117c101 0 138 41 138 106z" />
<glyph horiz-adv-x="641" d="M311 900h99l-87 -159h-87zM116 83v510h-73v83h296c165 0 232 -69 232 -190c0 -96 -54 -156 -152 -178l130 -225h80v-83h-252v83h65l-118 215h-110v-215h74v-83h-244v83h72zM469 485c0 65 -31 108 -130 108h-125v-214h117c101 0 138 41 138 106z" />
<glyph horiz-adv-x="641" d="M354 741h-120l-89 159h86l63 -108l62 108h87zM116 83v510h-73v83h296c165 0 232 -69 232 -190c0 -96 -54 -156 -152 -178l130 -225h80v-83h-252v83h65l-118 215h-110v-215h74v-83h-244v83h72zM469 485c0 65 -31 108 -130 108h-125v-214h117c101 0 138 41 138 106z" />
<glyph horiz-adv-x="641" d="M383 -66l-58 -150h-72l25 150h105zM116 83v510h-73v83h296c165 0 232 -69 232 -190c0 -96 -54 -156 -152 -178l130 -225h80v-83h-252v83h65l-118 215h-110v-215h74v-83h-244v83h72zM469 485c0 65 -31 108 -130 108h-125v-214h117c101 0 138 41 138 106z" />
<glyph horiz-adv-x="550" d="M103 76v355h-55v76h242c134 0 191 -51 191 -146c0 -71 -42 -115 -114 -134l97 -151h63v-76h-214v76h49l-84 141h-80v-141h53v-76h-203v76h55zM384 360c0 41 -18 71 -89 71h-97v-140h91c73 0 95 28 95 69z" />
<glyph horiz-adv-x="550" d="M281 726h99l-87 -159h-87zM103 76v355h-55v76h242c134 0 191 -51 191 -146c0 -71 -42 -115 -114 -134l97 -151h63v-76h-214v76h49l-84 141h-80v-141h53v-76h-203v76h55zM384 360c0 41 -18 71 -89 71h-97v-140h91c73 0 95 28 95 69z" />
<glyph horiz-adv-x="550" d="M313 567h-120l-89 159h86l63 -108l62 108h87zM103 76v355h-55v76h242c134 0 191 -51 191 -146c0 -71 -42 -115 -114 -134l97 -151h63v-76h-214v76h49l-84 141h-80v-141h53v-76h-203v76h55zM384 360c0 41 -18 71 -89 71h-97v-140h91c73 0 95 28 95 69z" />
<glyph horiz-adv-x="549" d="M339 -66l-58 -150h-72l25 150h105zM102 76v355h-55v76h242c134 0 191 -51 191 -146c0 -71 -42 -115 -114 -134l97 -151h63v-76h-214v76h49l-84 141h-80v-141h53v-76h-203v76h55zM383 360c0 41 -18 71 -89 71h-97v-140h91c73 0 95 28 95 69z" />
<glyph horiz-adv-x="525" d="M370 456h69v-368h65v-88h-71c-49 0 -71 24 -74 62c-24 -36 -65 -73 -133 -73c-124 0 -187 90 -187 240c0 146 68 237 188 237c63 0 100 -24 127 -51zM137 229c0 -86 24 -152 109 -152c46 0 80 25 99 50v206c-14 20 -44 45 -98 45c-85 0 -110 -63 -110 -149z" />
<glyph horiz-adv-x="525" d="M370 456h69v-368h65v-88h-71c-49 0 -71 24 -74 62c-24 -36 -65 -73 -133 -73c-124 0 -187 90 -187 240c0 146 68 237 188 237c63 0 100 -24 127 -51zM137 229c0 -86 24 -152 109 -152c46 0 80 25 99 50v206c-14 20 -44 45 -98 45c-85 0 -110 -63 -110 -149zM147 696h99 l75 -159h-87z" />
<glyph horiz-adv-x="525" d="M370 456h69v-368h65v-88h-71c-49 0 -71 24 -74 62c-24 -36 -65 -73 -133 -73c-124 0 -187 90 -187 240c0 146 68 237 188 237c63 0 100 -24 127 -51zM137 229c0 -86 24 -152 109 -152c46 0 80 25 99 50v206c-14 20 -44 45 -98 45c-85 0 -110 -63 -110 -149zM284 696h99 l-87 -159h-87z" />
<glyph horiz-adv-x="525" d="M370 456h69v-368h65v-88h-71c-49 0 -71 24 -74 62c-24 -36 -65 -73 -133 -73c-124 0 -187 90 -187 240c0 146 68 237 188 237c63 0 100 -24 127 -51zM137 229c0 -86 24 -152 109 -152c46 0 80 25 99 50v206c-14 20 -44 45 -98 45c-85 0 -110 -63 -110 -149zM203 696h120 l89 -159h-87l-62 108l-63 -108h-86z" />
<glyph horiz-adv-x="525" d="M370 456h69v-368h65v-88h-71c-49 0 -71 24 -74 62c-24 -36 -65 -73 -133 -73c-124 0 -187 90 -187 240c0 146 68 237 188 237c63 0 100 -24 127 -51zM137 229c0 -86 24 -152 109 -152c46 0 80 25 99 50v206c-14 20 -44 45 -98 45c-85 0 -110 -63 -110 -149zM405 642 l-4 -74c-20 15 -44 25 -68 25c-50 0 -88 -38 -146 -38c-30 0 -56 12 -69 23l4 73c17 -16 37 -24 65 -24c50 0 81 38 146 38c35 0 56 -13 72 -23z" />
<glyph horiz-adv-x="525" d="M370 456h69v-368h65v-88h-71c-49 0 -71 24 -74 62c-24 -36 -65 -73 -133 -73c-124 0 -187 90 -187 240c0 146 68 237 188 237c63 0 100 -24 127 -51zM137 229c0 -86 24 -152 109 -152c46 0 80 25 99 50v206c-14 20 -44 45 -98 45c-85 0 -110 -63 -110 -149zM168 548 c-36 0 -62 17 -62 60s26 62 62 62c31 0 62 -19 62 -62s-31 -60 -62 -60zM356 548c-36 0 -62 17 -62 60s26 62 62 62c31 0 62 -19 62 -62s-31 -60 -62 -60z" />
<glyph horiz-adv-x="525" d="M370 456h69v-368h65v-88h-71c-49 0 -71 24 -74 62c-24 -36 -65 -73 -133 -73c-124 0 -187 90 -187 240c0 146 68 237 188 237c63 0 100 -24 127 -51zM137 229c0 -86 24 -152 109 -152c46 0 80 25 99 50v206c-14 20 -44 45 -98 45c-85 0 -110 -63 -110 -149zM118 646h288 v-79h-288v79z" />
<glyph horiz-adv-x="525" d="M370 456h69v-368h65v-88h-71c-49 0 -71 24 -74 62c-24 -36 -65 -73 -133 -73c-124 0 -187 90 -187 240c0 146 68 237 188 237c63 0 100 -24 127 -51zM137 229c0 -86 24 -152 109 -152c46 0 80 25 99 50v206c-14 20 -44 45 -98 45c-85 0 -110 -63 -110 -149zM339 685h66 c0 -81 -52 -144 -145 -144c-90 0 -142 63 -142 144h64c4 -42 33 -73 78 -73c46 0 75 31 79 73z" />
<glyph horiz-adv-x="525" d="M370 456h69v-368h65v-88h-71c-49 0 -71 24 -74 62c-24 -36 -65 -73 -133 -73c-124 0 -187 90 -187 240c0 146 68 237 188 237c63 0 100 -24 127 -51zM137 229c0 -86 24 -152 109 -152c46 0 80 25 99 50v206c-14 20 -44 45 -98 45c-85 0 -110 -63 -110 -149zM155 621 c0 53 38 97 105 97c70 0 108 -44 108 -97c0 -51 -38 -96 -108 -96c-67 0 -105 45 -105 96zM213 621c0 -25 17 -44 47 -44c32 0 49 19 49 44s-17 46 -49 46c-30 0 -47 -21 -47 -46z" />
<glyph horiz-adv-x="525" d="M155 611c0 47 30 86 83 95l44 74h96l-64 -84c35 -16 54 -48 54 -85c0 -51 -38 -96 -108 -96c-67 0 -105 45 -105 96zM213 611c0 -25 17 -44 47 -44c32 0 49 19 49 44s-17 46 -49 46c-30 0 -47 -21 -47 -46zM370 456h69v-368h65v-88h-71c-49 0 -71 24 -74 62 c-24 -36 -65 -73 -133 -73c-124 0 -187 90 -187 240c0 146 68 237 188 237c63 0 100 -24 127 -51zM137 229c0 -86 24 -152 109 -152c46 0 80 25 99 50v206c-14 20 -44 45 -98 45c-85 0 -110 -63 -110 -149z" />
<glyph horiz-adv-x="512" d="M353 53c-26 -33 -67 -64 -129 -64c-125 0 -185 90 -185 240c0 146 66 237 191 237c64 0 102 -24 129 -51l22 41h63v-443c0 -147 -55 -239 -198 -239c-115 0 -187 54 -182 165h89c-2 -52 28 -88 93 -88c78 0 107 55 107 151v51zM137 229c0 -86 24 -152 112 -152 c47 0 82 25 102 50v206c-16 20 -45 45 -100 45c-89 0 -114 -63 -114 -149z" />
<glyph horiz-adv-x="511" d="M353 53c-26 -33 -67 -64 -129 -64c-125 0 -185 90 -185 240c0 146 66 237 191 237c64 0 102 -24 129 -51l22 41h63v-443c0 -147 -55 -239 -198 -239c-115 0 -187 54 -182 165h89c-2 -52 28 -88 93 -88c78 0 107 55 107 151v51zM137 229c0 -86 24 -152 112 -152 c47 0 82 25 102 50v206c-16 20 -45 45 -100 45c-89 0 -114 -63 -114 -149zM205 696h120l89 -159h-87l-62 108l-63 -108h-86z" />
<glyph horiz-adv-x="512" d="M353 53c-26 -33 -67 -64 -129 -64c-125 0 -185 90 -185 240c0 146 66 237 191 237c64 0 102 -24 129 -51l22 41h63v-443c0 -147 -55 -239 -198 -239c-115 0 -187 54 -182 165h89c-2 -52 28 -88 93 -88c78 0 107 55 107 151v51zM137 229c0 -86 24 -152 112 -152 c47 0 82 25 102 50v206c-16 20 -45 45 -100 45c-89 0 -114 -63 -114 -149zM339 685h66c0 -81 -52 -144 -145 -144c-90 0 -142 63 -142 144h64c4 -42 33 -73 78 -73c46 0 75 31 79 73z" />
<glyph horiz-adv-x="512" d="M353 53c-26 -33 -67 -64 -129 -64c-125 0 -185 90 -185 240c0 146 66 237 191 237c64 0 102 -24 129 -51l22 41h63v-443c0 -147 -55 -239 -198 -239c-115 0 -187 54 -182 165h89c-2 -52 28 -88 93 -88c78 0 107 55 107 151v51zM137 229c0 -86 24 -152 112 -152 c47 0 82 25 102 50v206c-16 20 -45 45 -100 45c-89 0 -114 -63 -114 -149zM196 553l59 177h74l-26 -177h-107z" />
<glyph horiz-adv-x="512" d="M353 53c-26 -33 -67 -64 -129 -64c-125 0 -185 90 -185 240c0 146 66 237 191 237c64 0 102 -24 129 -51l22 41h63v-443c0 -147 -55 -239 -198 -239c-115 0 -187 54 -182 165h89c-2 -52 28 -88 93 -88c78 0 107 55 107 151v51zM137 229c0 -86 24 -152 112 -152 c47 0 82 25 102 50v206c-16 20 -45 45 -100 45c-89 0 -114 -63 -114 -149zM263 548c-36 0 -62 17 -62 60s26 62 62 62c31 0 62 -19 62 -62s-31 -60 -62 -60z" />
<glyph horiz-adv-x="574" d="M519 253c0 -57 -9 -110 -31 -153l57 -40l-49 -68l-61 45c-36 -29 -85 -45 -153 -45c-182 0 -235 119 -235 261s51 263 236 263c183 0 236 -121 236 -263zM277 157l47 64l76 -57c9 24 13 54 13 89c0 104 -29 175 -129 175c-101 0 -130 -71 -130 -175 c0 -103 26 -174 129 -174c31 0 54 6 71 19z" />
<glyph horiz-adv-x="525" d="M504 88v-88l-77 -53c-22 -16 -31 -27 -31 -45c0 -17 14 -28 33 -28c29 0 49 11 58 16l5 -68c-9 -5 -26 -12 -48 -15c-13 -2 -29 -3 -45 -2c-62 4 -98 31 -98 80c0 43 32 74 112 117c-36 6 -52 26 -54 60c-24 -36 -65 -73 -133 -73c-124 0 -187 90 -187 240 c0 146 68 237 188 237c63 0 100 -24 127 -51l16 41h69v-368h65zM137 229c0 -86 24 -152 109 -152c46 0 80 25 99 50v206c-14 20 -44 45 -98 45c-85 0 -110 -63 -110 -149z" />
<glyph unicode="&#x1a0;" horiz-adv-x="654" d="M606 337c0 -200 -74 -348 -280 -348c-205 0 -278 148 -278 348c0 201 72 350 280 350c91 0 157 -30 201 -81l52 33c20 14 28 27 28 42s-13 24 -30 25c-26 -1 -44 -10 -52 -15l-4 61c10 5 37 18 71 18c63 0 101 -26 101 -74c0 -31 -18 -57 -50 -76l-87 -50l-4 1 c36 -61 52 -142 52 -234zM155 337c0 -153 36 -259 173 -259c135 0 172 106 172 259c0 155 -38 260 -172 260s-173 -105 -173 -260z" />
<glyph unicode="&#x1a1;" horiz-adv-x="503" d="M253 466c76 0 129 -24 163 -66l46 29c20 14 28 27 28 42s-13 24 -30 25c-26 -1 -44 -10 -52 -15l-4 61c10 5 37 18 71 18c63 0 101 -26 101 -74c0 -31 -18 -57 -50 -76l-86 -50c16 -37 24 -81 24 -131c0 -141 -57 -240 -215 -240c-151 0 -210 99 -210 238 c0 141 57 239 214 239zM252 76c87 0 113 53 113 151c0 101 -27 152 -114 152c-85 0 -114 -51 -114 -150c0 -101 29 -153 115 -153z" />
<glyph unicode="&#x1af;" horiz-adv-x="686" d="M343 -10c-143 0 -250 68 -250 262v341h-67v83h258v-83h-93v-343c0 -127 59 -172 152 -172s153 45 153 172v343h-92v83h191l-1 -31l24 15c20 14 28 27 28 42s-13 24 -30 25c-26 -1 -44 -10 -52 -15l-4 61c10 5 37 18 71 18c63 0 101 -26 101 -74c0 -31 -18 -57 -50 -76 l-87 -50l-2 1v-340c0 -194 -108 -262 -250 -262z" />
<glyph unicode="&#x1b0;" horiz-adv-x="566" d="M477 456v-26l19 12c20 14 28 27 28 42s-13 24 -30 25c-26 -1 -44 -10 -52 -15l-4 61c10 5 37 18 71 18c63 0 101 -26 101 -74c0 -31 -18 -57 -50 -76l-83 -48v-293h69v-82h-145v76c-25 -39 -82 -86 -169 -86c-101 0 -146 59 -146 177v207h-70v82h163v-280 c0 -61 15 -98 89 -98c49 0 97 28 117 63v233h-89v82h181z" />
<glyph unicode="&#x1ea0;" horiz-adv-x="690" d="M345 -170c-32 0 -56 15 -56 54s24 56 56 56c28 0 56 -17 56 -56s-28 -54 -56 -54zM433 0v83h84l-44 124h-256l-46 -124h85v-83h-251v83h60l193 510h-59v83h292v-83h-57l191 -510h60v-83h-252zM241 292h209l-105 285z" />
<glyph unicode="&#x1ea1;" horiz-adv-x="489" d="M249 -170c-32 0 -56 15 -56 54s24 56 56 56c28 0 56 -17 56 -56s-28 -54 -56 -54zM153 369v-71h-81c-9 19 -14 41 -14 64c0 61 56 104 178 104c142 0 175 -46 175 -171v-188c0 -21 11 -30 27 -30c11 0 22 2 31 4v-81c-19 -4 -41 -6 -61 -6c-52 0 -81 27 -86 69 c-25 -35 -77 -74 -152 -74c-89 0 -138 49 -138 130c0 96 85 129 215 141l69 8v101c-17 8 -53 13 -80 13c-38 0 -58 -4 -83 -13zM132 125c0 -36 20 -57 66 -57c50 0 93 25 118 49v86l-67 -9c-86 -10 -117 -28 -117 -69z" />
<glyph unicode="&#x1ea2;" horiz-adv-x="690" d="M306 849h-49c-8 74 45 92 88 92c63 0 102 -35 102 -80c0 -57 -49 -77 -78 -90v-36h-52v51c45 18 62 40 62 69c0 38 -64 59 -73 -6zM433 0v83h84l-44 124h-256l-46 -124h85v-83h-251v83h60l193 510h-59v83h292v-83h-57l191 -510h60v-83h-252zM241 292h209l-105 285z" />
<glyph unicode="&#x1ea3;" horiz-adv-x="489" d="M194 634h-49c-8 74 45 92 88 92c63 0 102 -35 102 -80c0 -57 -49 -77 -78 -90v-36h-52v51c45 18 62 40 62 69c0 38 -64 59 -73 -6zM153 369v-71h-81c-9 19 -14 41 -14 64c0 61 56 104 178 104c142 0 175 -46 175 -171v-188c0 -21 11 -30 27 -30c11 0 22 2 31 4v-81 c-19 -4 -41 -6 -61 -6c-52 0 -81 27 -86 69c-25 -35 -77 -74 -152 -74c-89 0 -138 49 -138 130c0 96 85 129 215 141l69 8v101c-17 8 -53 13 -80 13c-38 0 -58 -4 -83 -13zM132 125c0 -36 20 -57 66 -57c50 0 93 25 118 49v86l-67 -9c-86 -10 -117 -28 -117 -69z" />
<glyph unicode="&#x1ea4;" horiz-adv-x="690" d="M526 945h84l-74 -135h-74zM433 0v83h84l-44 124h-256l-46 -124h85v-83h-251v83h60l193 510h-59v83h292v-83h-57l191 -510h60v-83h-252zM241 292h209l-105 285zM294 860h102l76 -135h-74l-53 92l-54 -92h-73z" />
<glyph unicode="&#x1ea5;" horiz-adv-x="489" d="M423 730h84l-74 -135h-74zM153 369v-71h-81c-9 19 -14 41 -14 64c0 61 56 104 178 104c142 0 175 -46 175 -171v-188c0 -21 11 -30 27 -30c11 0 22 2 31 4v-81c-19 -4 -41 -6 -61 -6c-52 0 -81 27 -86 69c-25 -35 -77 -74 -152 -74c-89 0 -138 49 -138 130 c0 96 85 129 215 141l69 8v101c-17 8 -53 13 -80 13c-38 0 -58 -4 -83 -13zM132 125c0 -36 20 -57 66 -57c50 0 93 25 118 49v86l-67 -9c-86 -10 -117 -28 -117 -69zM191 645h102l76 -135h-74l-53 92l-54 -92h-73z" />
<glyph unicode="&#x1ea6;" horiz-adv-x="690" d="M397 945h84l64 -135h-74zM433 0v83h84l-44 124h-256l-46 -124h85v-83h-251v83h60l193 510h-59v83h292v-83h-57l191 -510h60v-83h-252zM241 292h209l-105 285zM294 860h102l76 -135h-74l-53 92l-54 -92h-73z" />
<glyph unicode="&#x1ea7;" horiz-adv-x="489" d="M294 730h84l64 -135h-74zM153 369v-71h-81c-9 19 -14 41 -14 64c0 61 56 104 178 104c142 0 175 -46 175 -171v-188c0 -21 11 -30 27 -30c11 0 22 2 31 4v-81c-19 -4 -41 -6 -61 -6c-52 0 -81 27 -86 69c-25 -35 -77 -74 -152 -74c-89 0 -138 49 -138 130 c0 96 85 129 215 141l69 8v101c-17 8 -53 13 -80 13c-38 0 -58 -4 -83 -13zM132 125c0 -36 20 -57 66 -57c50 0 93 25 118 49v86l-67 -9c-86 -10 -117 -28 -117 -69zM191 645h102l76 -135h-74l-53 92l-54 -92h-73z" />
<glyph unicode="&#x1ea8;" horiz-adv-x="690" d="M452 925h-49c-8 74 45 92 88 92c63 0 102 -35 102 -80c0 -57 -49 -77 -78 -90v-36h-52v51c45 18 62 40 62 69c0 38 -64 59 -73 -6zM433 0v83h84l-44 124h-256l-46 -124h85v-83h-251v83h60l193 510h-59v83h292v-83h-57l191 -510h60v-83h-252zM241 292h209l-105 285z M294 860h102l76 -135h-74l-53 92l-54 -92h-73z" />
<glyph unicode="&#x1ea9;" horiz-adv-x="489" d="M349 710h-49c-8 74 45 92 88 92c63 0 102 -35 102 -80c0 -57 -49 -77 -78 -90v-36h-52v51c45 18 62 40 62 69c0 38 -64 59 -73 -6zM153 369v-71h-81c-9 19 -14 41 -14 64c0 61 56 104 178 104c142 0 175 -46 175 -171v-188c0 -21 11 -30 27 -30c11 0 22 2 31 4v-81 c-19 -4 -41 -6 -61 -6c-52 0 -81 27 -86 69c-25 -35 -77 -74 -152 -74c-89 0 -138 49 -138 130c0 96 85 129 215 141l69 8v101c-17 8 -53 13 -80 13c-38 0 -58 -4 -83 -13zM132 125c0 -36 20 -57 66 -57c50 0 93 25 118 49v86l-67 -9c-86 -10 -117 -28 -117 -69zM191 645 h102l76 -135h-74l-53 92l-54 -92h-73z" />
<glyph unicode="&#x1eaa;" horiz-adv-x="690" d="M245 885l-3 53c12 8 28 32 55 32c50 0 73 -40 112 -40c21 0 37 22 49 35l3 -52c-10 -9 -30 -33 -52 -33c-44 0 -74 40 -112 40c-19 0 -37 -23 -52 -35zM433 0v83h84l-44 124h-256l-46 -124h85v-83h-251v83h60l193 510h-59v83h292v-83h-57l191 -510h60v-83h-252zM241 292 h209l-105 285zM294 860h102l76 -135h-74l-53 92l-54 -92h-73z" />
<glyph unicode="&#x1eab;" horiz-adv-x="489" d="M142 670l-3 53c12 8 28 32 55 32c50 0 73 -40 112 -40c21 0 37 22 49 35l3 -52c-10 -9 -30 -33 -52 -33c-44 0 -74 40 -112 40c-19 0 -37 -23 -52 -35zM153 369v-71h-81c-9 19 -14 41 -14 64c0 61 56 104 178 104c142 0 175 -46 175 -171v-188c0 -21 11 -30 27 -30 c11 0 22 2 31 4v-81c-19 -4 -41 -6 -61 -6c-52 0 -81 27 -86 69c-25 -35 -77 -74 -152 -74c-89 0 -138 49 -138 130c0 96 85 129 215 141l69 8v101c-17 8 -53 13 -80 13c-38 0 -58 -4 -83 -13zM132 125c0 -36 20 -57 66 -57c50 0 93 25 118 49v86l-67 -9 c-86 -10 -117 -28 -117 -69zM191 645h102l76 -135h-74l-53 92l-54 -92h-73z" />
<glyph unicode="&#x1eac;" horiz-adv-x="690" d="M433 0v83h84l-44 124h-256l-46 -124h85v-83h-251v83h60l193 510h-59v83h292v-83h-57l191 -510h60v-83h-252zM241 292h209l-105 285zM294 860h102l76 -135h-74l-53 92l-54 -92h-73zM345 -170c-32 0 -56 15 -56 54s24 56 56 56c28 0 56 -17 56 -56s-28 -54 -56 -54z" />
<glyph unicode="&#x1ead;" horiz-adv-x="489" d="M153 369v-71h-81c-9 19 -14 41 -14 64c0 61 56 104 178 104c142 0 175 -46 175 -171v-188c0 -21 11 -30 27 -30c11 0 22 2 31 4v-81c-19 -4 -41 -6 -61 -6c-52 0 -81 27 -86 69c-25 -35 -77 -74 -152 -74c-89 0 -138 49 -138 130c0 96 85 129 215 141l69 8v101 c-17 8 -53 13 -80 13c-38 0 -58 -4 -83 -13zM132 125c0 -36 20 -57 66 -57c50 0 93 25 118 49v86l-67 -9c-86 -10 -117 -28 -117 -69zM191 645h102l76 -135h-74l-53 92l-54 -92h-73zM249 -170c-32 0 -56 15 -56 54s24 56 56 56c28 0 56 -17 56 -56s-28 -54 -56 -54z" />
<glyph unicode="&#x1eae;" horiz-adv-x="690" d="M366 982h84l-74 -135h-74zM433 0v83h84l-44 124h-256l-46 -124h85v-83h-251v83h60l193 510h-59v83h292v-83h-57l191 -510h60v-83h-252zM241 292h209l-105 285zM410 847h56c0 -69 -44 -122 -123 -122c-76 0 -120 53 -120 122h54c3 -36 28 -62 66 -62c39 0 64 26 67 62z " />
<glyph unicode="&#x1eaf;" horiz-adv-x="489" d="M261 767h84l-74 -135h-74zM153 369v-71h-81c-9 19 -14 41 -14 64c0 61 56 104 178 104c142 0 175 -46 175 -171v-188c0 -21 11 -30 27 -30c11 0 22 2 31 4v-81c-19 -4 -41 -6 -61 -6c-52 0 -81 27 -86 69c-25 -35 -77 -74 -152 -74c-89 0 -138 49 -138 130 c0 96 85 129 215 141l69 8v101c-17 8 -53 13 -80 13c-38 0 -58 -4 -83 -13zM132 125c0 -36 20 -57 66 -57c50 0 93 25 118 49v86l-67 -9c-86 -10 -117 -28 -117 -69zM305 632h56c0 -69 -44 -122 -123 -122c-76 0 -120 53 -120 122h54c3 -36 28 -62 66 -62c39 0 64 26 67 62z " />
<glyph unicode="&#x1eb0;" horiz-adv-x="690" d="M232 982h84l64 -135h-74zM433 0v83h84l-44 124h-256l-46 -124h85v-83h-251v83h60l193 510h-59v83h292v-83h-57l191 -510h60v-83h-252zM241 292h209l-105 285zM410 847h56c0 -69 -44 -122 -123 -122c-76 0 -120 53 -120 122h54c3 -36 28 -62 66 -62c39 0 64 26 67 62z" />
<glyph unicode="&#x1eb1;" horiz-adv-x="489" d="M128 767h84l64 -135h-74zM153 369v-71h-81c-9 19 -14 41 -14 64c0 61 56 104 178 104c142 0 175 -46 175 -171v-188c0 -21 11 -30 27 -30c11 0 22 2 31 4v-81c-19 -4 -41 -6 -61 -6c-52 0 -81 27 -86 69c-25 -35 -77 -74 -152 -74c-89 0 -138 49 -138 130 c0 96 85 129 215 141l69 8v101c-17 8 -53 13 -80 13c-38 0 -58 -4 -83 -13zM132 125c0 -36 20 -57 66 -57c50 0 93 25 118 49v86l-67 -9c-86 -10 -117 -28 -117 -69zM305 632h56c0 -69 -44 -122 -123 -122c-76 0 -120 53 -120 122h54c3 -36 28 -62 66 -62c39 0 64 26 67 62z " />
<glyph unicode="&#x1eb2;" horiz-adv-x="690" d="M306 961h-49c-8 74 45 92 88 92c63 0 102 -35 102 -80c0 -57 -49 -77 -78 -90v-36h-52v51c45 18 62 40 62 69c0 38 -64 59 -73 -6zM433 0v83h84l-44 124h-256l-46 -124h85v-83h-251v83h60l193 510h-59v83h292v-83h-57l191 -510h60v-83h-252zM241 292h209l-105 285z M410 847h56c0 -69 -44 -122 -123 -122c-76 0 -120 53 -120 122h54c3 -36 28 -62 66 -62c39 0 64 26 67 62z" />
<glyph unicode="&#x1eb3;" horiz-adv-x="489" d="M200 746h-49c-8 74 45 92 88 92c63 0 102 -35 102 -80c0 -57 -49 -77 -78 -90v-36h-52v51c45 18 62 40 62 69c0 38 -64 59 -73 -6zM153 369v-71h-81c-9 19 -14 41 -14 64c0 61 56 104 178 104c142 0 175 -46 175 -171v-188c0 -21 11 -30 27 -30c11 0 22 2 31 4v-81 c-19 -4 -41 -6 -61 -6c-52 0 -81 27 -86 69c-25 -35 -77 -74 -152 -74c-89 0 -138 49 -138 130c0 96 85 129 215 141l69 8v101c-17 8 -53 13 -80 13c-38 0 -58 -4 -83 -13zM132 125c0 -36 20 -57 66 -57c50 0 93 25 118 49v86l-67 -9c-86 -10 -117 -28 -117 -69zM305 632h56 c0 -69 -44 -122 -123 -122c-76 0 -120 53 -120 122h54c3 -36 28 -62 66 -62c39 0 64 26 67 62z" />
<glyph unicode="&#x1eb4;" horiz-adv-x="690" d="M238 867l-3 53c12 8 28 32 55 32c50 0 73 -40 112 -40c21 0 37 22 49 35l3 -52c-10 -9 -30 -33 -52 -33c-44 0 -74 40 -112 40c-19 0 -37 -23 -52 -35zM433 0v83h84l-44 124h-256l-46 -124h85v-83h-251v83h60l193 510h-59v83h292v-83h-57l191 -510h60v-83h-252zM241 292 h209l-105 285zM410 847h56c0 -69 -44 -122 -123 -122c-76 0 -120 53 -120 122h54c3 -36 28 -62 66 -62c39 0 64 26 67 62z" />
<glyph unicode="&#x1eb5;" horiz-adv-x="489" d="M133 652l-3 53c12 8 28 32 55 32c50 0 73 -40 112 -40c21 0 37 22 49 35l3 -52c-10 -9 -30 -33 -52 -33c-44 0 -74 40 -112 40c-19 0 -37 -23 -52 -35zM153 369v-71h-81c-9 19 -14 41 -14 64c0 61 56 104 178 104c142 0 175 -46 175 -171v-188c0 -21 11 -30 27 -30 c11 0 22 2 31 4v-81c-19 -4 -41 -6 -61 -6c-52 0 -81 27 -86 69c-25 -35 -77 -74 -152 -74c-89 0 -138 49 -138 130c0 96 85 129 215 141l69 8v101c-17 8 -53 13 -80 13c-38 0 -58 -4 -83 -13zM132 125c0 -36 20 -57 66 -57c50 0 93 25 118 49v86l-67 -9 c-86 -10 -117 -28 -117 -69zM305 632h56c0 -69 -44 -122 -123 -122c-76 0 -120 53 -120 122h54c3 -36 28 -62 66 -62c39 0 64 26 67 62z" />
<glyph unicode="&#x1eb6;" horiz-adv-x="690" d="M433 0v83h84l-44 124h-256l-46 -124h85v-83h-251v83h60l193 510h-59v83h292v-83h-57l191 -510h60v-83h-252zM241 292h209l-105 285zM410 847h56c0 -69 -44 -122 -123 -122c-76 0 -120 53 -120 122h54c3 -36 28 -62 66 -62c39 0 64 26 67 62zM345 -170 c-32 0 -56 15 -56 54s24 56 56 56c28 0 56 -17 56 -56s-28 -54 -56 -54z" />
<glyph unicode="&#x1eb7;" horiz-adv-x="489" d="M153 369v-71h-81c-9 19 -14 41 -14 64c0 61 56 104 178 104c142 0 175 -46 175 -171v-188c0 -21 11 -30 27 -30c11 0 22 2 31 4v-81c-19 -4 -41 -6 -61 -6c-52 0 -81 27 -86 69c-25 -35 -77 -74 -152 -74c-89 0 -138 49 -138 130c0 96 85 129 215 141l69 8v101 c-17 8 -53 13 -80 13c-38 0 -58 -4 -83 -13zM132 125c0 -36 20 -57 66 -57c50 0 93 25 118 49v86l-67 -9c-86 -10 -117 -28 -117 -69zM305 632h56c0 -69 -44 -122 -123 -122c-76 0 -120 53 -120 122h54c3 -36 28 -62 66 -62c39 0 64 26 67 62zM249 -170c-32 0 -56 15 -56 54 s24 56 56 56c28 0 56 -17 56 -56s-28 -54 -56 -54z" />
<glyph unicode="&#x1eb8;" horiz-adv-x="586" d="M292 -170c-32 0 -56 15 -56 54s24 56 56 56c28 0 56 -17 56 -56s-28 -54 -56 -54zM443 189h95v-189h-494v83h72v510h-72v83h491v-184h-92v101h-229v-208h220v-83h-220v-219h229v106z" />
<glyph unicode="&#x1eb9;" horiz-adv-x="469" d="M235 -170c-32 0 -56 15 -56 54s24 56 56 56c28 0 56 -17 56 -56s-28 -54 -56 -54zM255 73c51 0 99 16 141 43l31 -74c-44 -30 -108 -53 -173 -53c-154 0 -216 100 -216 239c0 131 67 238 206 238c133 0 187 -96 187 -194c0 -24 -3 -56 -8 -75h-285 c1 -77 37 -124 117 -124zM139 270h199c1 6 1 12 1 16c0 64 -39 101 -96 101c-74 0 -100 -52 -104 -117z" />
<glyph unicode="&#x1eba;" horiz-adv-x="586" d="M276 849h-49c-8 74 45 92 88 92c63 0 102 -35 102 -80c0 -57 -49 -77 -78 -90v-36h-52v51c45 18 62 40 62 69c0 38 -64 59 -73 -6zM443 189h95v-189h-494v83h72v510h-72v83h491v-184h-92v101h-229v-208h220v-83h-220v-219h229v106z" />
<glyph unicode="&#x1ebb;" horiz-adv-x="469" d="M214 634h-49c-8 74 45 92 88 92c63 0 102 -35 102 -80c0 -57 -49 -77 -78 -90v-36h-52v51c45 18 62 40 62 69c0 38 -64 59 -73 -6zM255 73c51 0 99 16 141 43l31 -74c-44 -30 -108 -53 -173 -53c-154 0 -216 100 -216 239c0 131 67 238 206 238c133 0 187 -96 187 -194 c0 -24 -3 -56 -8 -75h-285c1 -77 37 -124 117 -124zM139 270h199c1 6 1 12 1 16c0 64 -39 101 -96 101c-74 0 -100 -52 -104 -117z" />
<glyph unicode="&#x1ebc;" horiz-adv-x="586" d="M190 740l-3 53c12 8 28 32 55 32c50 0 73 -40 112 -40c21 0 37 22 49 35l3 -52c-10 -9 -30 -33 -52 -33c-44 0 -74 40 -112 40c-19 0 -37 -23 -52 -35zM443 189h95v-189h-494v83h72v510h-72v83h491v-184h-92v101h-229v-208h220v-83h-220v-219h229v106z" />
<glyph unicode="&#x1ebd;" horiz-adv-x="469" d="M144 525l-3 53c12 8 28 32 55 32c50 0 73 -40 112 -40c21 0 37 22 49 35l3 -52c-10 -9 -30 -33 -52 -33c-44 0 -74 40 -112 40c-19 0 -37 -23 -52 -35zM255 73c51 0 99 16 141 43l31 -74c-44 -30 -108 -53 -173 -53c-154 0 -216 100 -216 239c0 131 67 238 206 238 c133 0 187 -96 187 -194c0 -24 -3 -56 -8 -75h-285c1 -77 37 -124 117 -124zM139 270h199c1 6 1 12 1 16c0 64 -39 101 -96 101c-74 0 -100 -52 -104 -117z" />
<glyph unicode="&#x1ebe;" horiz-adv-x="586" d="M488 945h84l-74 -135h-74zM443 189h95v-189h-494v83h72v510h-72v83h491v-184h-92v101h-229v-208h220v-83h-220v-219h229v106zM256 860h102l76 -135h-74l-53 92l-54 -92h-73z" />
<glyph unicode="&#x1ebf;" horiz-adv-x="469" d="M428 730h84l-74 -135h-74zM255 73c51 0 99 16 141 43l31 -74c-44 -30 -108 -53 -173 -53c-154 0 -216 100 -216 239c0 131 67 238 206 238c133 0 187 -96 187 -194c0 -24 -3 -56 -8 -75h-285c1 -77 37 -124 117 -124zM139 270h199c1 6 1 12 1 16c0 64 -39 101 -96 101 c-74 0 -100 -52 -104 -117zM196 645h102l76 -135h-74l-53 92l-54 -92h-73z" />
<glyph unicode="&#x1ec0;" horiz-adv-x="586" d="M359 945h84l64 -135h-74zM443 189h95v-189h-494v83h72v510h-72v83h491v-184h-92v101h-229v-208h220v-83h-220v-219h229v106zM256 860h102l76 -135h-74l-53 92l-54 -92h-73z" />
<glyph unicode="&#x1ec1;" horiz-adv-x="469" d="M299 730h84l64 -135h-74zM255 73c51 0 99 16 141 43l31 -74c-44 -30 -108 -53 -173 -53c-154 0 -216 100 -216 239c0 131 67 238 206 238c133 0 187 -96 187 -194c0 -24 -3 -56 -8 -75h-285c1 -77 37 -124 117 -124zM139 270h199c1 6 1 12 1 16c0 64 -39 101 -96 101 c-74 0 -100 -52 -104 -117zM196 645h102l76 -135h-74l-53 92l-54 -92h-73z" />
<glyph unicode="&#x1ec2;" horiz-adv-x="586" d="M414 925h-49c-8 74 45 92 88 92c63 0 102 -35 102 -80c0 -57 -49 -77 -78 -90v-36h-52v51c45 18 62 40 62 69c0 38 -64 59 -73 -6zM443 189h95v-189h-494v83h72v510h-72v83h491v-184h-92v101h-229v-208h220v-83h-220v-219h229v106zM256 860h102l76 -135h-74l-53 92 l-54 -92h-73z" />
<glyph unicode="&#x1ec3;" horiz-adv-x="469" d="M354 710h-49c-8 74 45 92 88 92c63 0 102 -35 102 -80c0 -57 -49 -77 -78 -90v-36h-52v51c45 18 62 40 62 69c0 38 -64 59 -73 -6zM255 73c51 0 99 16 141 43l31 -74c-44 -30 -108 -53 -173 -53c-154 0 -216 100 -216 239c0 131 67 238 206 238c133 0 187 -96 187 -194 c0 -24 -3 -56 -8 -75h-285c1 -77 37 -124 117 -124zM139 270h199c1 6 1 12 1 16c0 64 -39 101 -96 101c-74 0 -100 -52 -104 -117zM196 645h102l76 -135h-74l-53 92l-54 -92h-73z" />
<glyph unicode="&#x1ec4;" horiz-adv-x="586" d="M207 885l-3 53c12 8 28 32 55 32c50 0 73 -40 112 -40c21 0 37 22 49 35l3 -52c-10 -9 -30 -33 -52 -33c-44 0 -74 40 -112 40c-19 0 -37 -23 -52 -35zM443 189h95v-189h-494v83h72v510h-72v83h491v-184h-92v101h-229v-208h220v-83h-220v-219h229v106zM256 860h102 l76 -135h-74l-53 92l-54 -92h-73z" />
<glyph unicode="&#x1ec5;" horiz-adv-x="469" d="M147 670l-3 53c12 8 28 32 55 32c50 0 73 -40 112 -40c21 0 37 22 49 35l3 -52c-10 -9 -30 -33 -52 -33c-44 0 -74 40 -112 40c-19 0 -37 -23 -52 -35zM255 73c51 0 99 16 141 43l31 -74c-44 -30 -108 -53 -173 -53c-154 0 -216 100 -216 239c0 131 67 238 206 238 c133 0 187 -96 187 -194c0 -24 -3 -56 -8 -75h-285c1 -77 37 -124 117 -124zM139 270h199c1 6 1 12 1 16c0 64 -39 101 -96 101c-74 0 -100 -52 -104 -117zM196 645h102l76 -135h-74l-53 92l-54 -92h-73z" />
<glyph unicode="&#x1ec6;" horiz-adv-x="586" d="M443 189h95v-189h-494v83h72v510h-72v83h491v-184h-92v101h-229v-208h220v-83h-220v-219h229v106zM256 860h102l76 -135h-74l-53 92l-54 -92h-73zM292 -170c-32 0 -56 15 -56 54s24 56 56 56c28 0 56 -17 56 -56s-28 -54 -56 -54z" />
<glyph unicode="&#x1ec7;" horiz-adv-x="469" d="M255 73c51 0 99 16 141 43l31 -74c-44 -30 -108 -53 -173 -53c-154 0 -216 100 -216 239c0 131 67 238 206 238c133 0 187 -96 187 -194c0 -24 -3 -56 -8 -75h-285c1 -77 37 -124 117 -124zM139 270h199c1 6 1 12 1 16c0 64 -39 101 -96 101c-74 0 -100 -52 -104 -117z M196 645h102l76 -135h-74l-53 92l-54 -92h-73zM235 -170c-32 0 -56 15 -56 54s24 56 56 56c28 0 56 -17 56 -56s-28 -54 -56 -54z" />
<glyph unicode="&#x1ec8;" horiz-adv-x="339" d="M141 849h-49c-8 74 45 92 88 92c63 0 102 -35 102 -80c0 -57 -49 -77 -78 -90v-36h-52v51c45 18 62 40 62 69c0 38 -64 59 -73 -6zM40 0v83h82v510h-82v83h258v-83h-78v-510h78v-83h-258z" />
<glyph unicode="&#x1ec9;" horiz-adv-x="330" d="M32 0v82h98v292h-98v82h191v-374h92v-82h-283zM137 634h-49c-8 74 45 92 88 92c63 0 102 -35 102 -80c0 -57 -49 -77 -78 -90v-36h-52v51c45 18 62 40 62 69c0 38 -64 59 -73 -6z" />
<glyph unicode="&#x1eca;" horiz-adv-x="339" d="M179 -170c-32 0 -56 15 -56 54s24 56 56 56c28 0 56 -17 56 -56s-28 -54 -56 -54zM40 0v83h82v510h-82v83h258v-83h-78v-510h78v-83h-258z" />
<glyph unicode="&#x1ecb;" horiz-adv-x="330" d="M175 -170c-32 0 -56 15 -56 54s24 56 56 56c28 0 56 -17 56 -56s-28 -54 -56 -54zM32 0v82h98v292h-98v82h191v-374h92v-82h-283zM172 520c-32 0 -56 15 -56 54s24 56 56 56c28 0 56 -17 56 -56s-28 -54 -56 -54z" />
<glyph unicode="&#x1ecc;" horiz-adv-x="654" d="M328 -170c-32 0 -56 15 -56 54s24 56 56 56c28 0 56 -17 56 -56s-28 -54 -56 -54zM155 337c0 -153 36 -259 173 -259c135 0 172 106 172 259c0 155 -38 260 -172 260s-173 -105 -173 -260zM606 337c0 -200 -74 -348 -280 -348c-205 0 -278 148 -278 348 c0 201 72 350 280 350c206 0 278 -150 278 -350z" />
<glyph unicode="&#x1ecd;" horiz-adv-x="503" d="M251 -170c-32 0 -56 15 -56 54s24 56 56 56c28 0 56 -17 56 -56s-28 -54 -56 -54zM253 466c154 0 211 -98 211 -237c0 -141 -57 -240 -215 -240c-151 0 -210 99 -210 238c0 141 57 239 214 239zM252 76c87 0 113 53 113 151c0 101 -27 152 -114 152 c-85 0 -114 -51 -114 -150c0 -101 29 -153 115 -153z" />
<glyph unicode="&#x1ece;" horiz-adv-x="654" d="M296 849h-49c-8 74 45 92 88 92c63 0 102 -35 102 -80c0 -57 -49 -77 -78 -90v-36h-52v51c45 18 62 40 62 69c0 38 -64 59 -73 -6zM155 337c0 -153 36 -259 173 -259c135 0 172 106 172 259c0 155 -38 260 -172 260s-173 -105 -173 -260zM606 337 c0 -200 -74 -348 -280 -348c-205 0 -278 148 -278 348c0 201 72 350 280 350c206 0 278 -150 278 -350z" />
<glyph unicode="&#x1ecf;" horiz-adv-x="503" d="M224 634h-49c-8 74 45 92 88 92c63 0 102 -35 102 -80c0 -57 -49 -77 -78 -90v-36h-52v51c45 18 62 40 62 69c0 38 -64 59 -73 -6zM253 466c154 0 211 -98 211 -237c0 -141 -57 -240 -215 -240c-151 0 -210 99 -210 238c0 141 57 239 214 239zM252 76 c87 0 113 53 113 151c0 101 -27 152 -114 152c-85 0 -114 -51 -114 -150c0 -101 29 -153 115 -153z" />
<glyph unicode="&#x1ed0;" horiz-adv-x="654" d="M508 945h84l-74 -135h-74zM155 337c0 -153 36 -259 173 -259c135 0 172 106 172 259c0 155 -38 260 -172 260s-173 -105 -173 -260zM606 337c0 -200 -74 -348 -280 -348c-205 0 -278 148 -278 348c0 201 72 350 280 350c206 0 278 -150 278 -350zM276 860h102l76 -135 h-74l-53 92l-54 -92h-73z" />
<glyph unicode="&#x1ed1;" horiz-adv-x="503" d="M432 730h84l-74 -135h-74zM253 466c154 0 211 -98 211 -237c0 -141 -57 -240 -215 -240c-151 0 -210 99 -210 238c0 141 57 239 214 239zM252 76c87 0 113 53 113 151c0 101 -27 152 -114 152c-85 0 -114 -51 -114 -150c0 -101 29 -153 115 -153zM200 645h102l76 -135 h-74l-53 92l-54 -92h-73z" />
<glyph unicode="&#x1ed2;" horiz-adv-x="654" d="M379 945h84l64 -135h-74zM155 337c0 -153 36 -259 173 -259c135 0 172 106 172 259c0 155 -38 260 -172 260s-173 -105 -173 -260zM606 337c0 -200 -74 -348 -280 -348c-205 0 -278 148 -278 348c0 201 72 350 280 350c206 0 278 -150 278 -350zM276 860h102l76 -135h-74 l-53 92l-54 -92h-73z" />
<glyph unicode="&#x1ed3;" horiz-adv-x="503" d="M303 730h84l64 -135h-74zM253 466c154 0 211 -98 211 -237c0 -141 -57 -240 -215 -240c-151 0 -210 99 -210 238c0 141 57 239 214 239zM252 76c87 0 113 53 113 151c0 101 -27 152 -114 152c-85 0 -114 -51 -114 -150c0 -101 29 -153 115 -153zM200 645h102l76 -135h-74 l-53 92l-54 -92h-73z" />
<glyph unicode="&#x1ed4;" horiz-adv-x="654" d="M434 925h-49c-8 74 45 92 88 92c63 0 102 -35 102 -80c0 -57 -49 -77 -78 -90v-36h-52v51c45 18 62 40 62 69c0 38 -64 59 -73 -6zM155 337c0 -153 36 -259 173 -259c135 0 172 106 172 259c0 155 -38 260 -172 260s-173 -105 -173 -260zM606 337 c0 -200 -74 -348 -280 -348c-205 0 -278 148 -278 348c0 201 72 350 280 350c206 0 278 -150 278 -350zM276 860h102l76 -135h-74l-53 92l-54 -92h-73z" />
<glyph unicode="&#x1ed5;" horiz-adv-x="503" d="M358 710h-49c-8 74 45 92 88 92c63 0 102 -35 102 -80c0 -57 -49 -77 -78 -90v-36h-52v51c45 18 62 40 62 69c0 38 -64 59 -73 -6zM253 466c154 0 211 -98 211 -237c0 -141 -57 -240 -215 -240c-151 0 -210 99 -210 238c0 141 57 239 214 239zM252 76 c87 0 113 53 113 151c0 101 -27 152 -114 152c-85 0 -114 -51 -114 -150c0 -101 29 -153 115 -153zM200 645h102l76 -135h-74l-53 92l-54 -92h-73z" />
<glyph unicode="&#x1ed6;" horiz-adv-x="654" d="M227 885l-3 53c12 8 28 32 55 32c50 0 73 -40 112 -40c21 0 37 22 49 35l3 -52c-10 -9 -30 -33 -52 -33c-44 0 -74 40 -112 40c-19 0 -37 -23 -52 -35zM155 337c0 -153 36 -259 173 -259c135 0 172 106 172 259c0 155 -38 260 -172 260s-173 -105 -173 -260zM606 337 c0 -200 -74 -348 -280 -348c-205 0 -278 148 -278 348c0 201 72 350 280 350c206 0 278 -150 278 -350zM276 860h102l76 -135h-74l-53 92l-54 -92h-73z" />
<glyph unicode="&#x1ed7;" horiz-adv-x="503" d="M151 670l-3 53c12 8 28 32 55 32c50 0 73 -40 112 -40c21 0 37 22 49 35l3 -52c-10 -9 -30 -33 -52 -33c-44 0 -74 40 -112 40c-19 0 -37 -23 -52 -35zM253 466c154 0 211 -98 211 -237c0 -141 -57 -240 -215 -240c-151 0 -210 99 -210 238c0 141 57 239 214 239zM252 76 c87 0 113 53 113 151c0 101 -27 152 -114 152c-85 0 -114 -51 -114 -150c0 -101 29 -153 115 -153zM200 645h102l76 -135h-74l-53 92l-54 -92h-73z" />
<glyph unicode="&#x1ed8;" horiz-adv-x="654" d="M155 337c0 -153 36 -259 173 -259c135 0 172 106 172 259c0 155 -38 260 -172 260s-173 -105 -173 -260zM606 337c0 -200 -74 -348 -280 -348c-205 0 -278 148 -278 348c0 201 72 350 280 350c206 0 278 -150 278 -350zM276 860h102l76 -135h-74l-53 92l-54 -92h-73z M328 -170c-32 0 -56 15 -56 54s24 56 56 56c28 0 56 -17 56 -56s-28 -54 -56 -54z" />
<glyph unicode="&#x1ed9;" horiz-adv-x="503" d="M253 466c154 0 211 -98 211 -237c0 -141 -57 -240 -215 -240c-151 0 -210 99 -210 238c0 141 57 239 214 239zM252 76c87 0 113 53 113 151c0 101 -27 152 -114 152c-85 0 -114 -51 -114 -150c0 -101 29 -153 115 -153zM200 645h102l76 -135h-74l-53 92l-54 -92h-73z M251 -170c-32 0 -56 15 -56 54s24 56 56 56c28 0 56 -17 56 -56s-28 -54 -56 -54z" />
<glyph unicode="&#x1eda;" horiz-adv-x="654" d="M352 870h84l-74 -135h-74zM606 337c0 -200 -74 -348 -280 -348c-205 0 -278 148 -278 348c0 201 72 350 280 350c91 0 157 -30 201 -81l52 33c20 14 28 27 28 42s-13 24 -30 25c-26 -1 -44 -10 -52 -15l-4 61c10 5 37 18 71 18c63 0 101 -26 101 -74 c0 -31 -18 -57 -50 -76l-87 -50l-4 1c36 -61 52 -142 52 -234zM155 337c0 -153 36 -259 173 -259c135 0 172 106 172 259c0 155 -38 260 -172 260s-173 -105 -173 -260z" />
<glyph unicode="&#x1edb;" horiz-adv-x="503" d="M270 655h84l-74 -135h-74zM253 466c76 0 129 -24 163 -66l46 29c20 14 28 27 28 42s-13 24 -30 25c-26 -1 -44 -10 -52 -15l-4 61c10 5 37 18 71 18c63 0 101 -26 101 -74c0 -31 -18 -57 -50 -76l-86 -50c16 -37 24 -81 24 -131c0 -141 -57 -240 -215 -240 c-151 0 -210 99 -210 238c0 141 57 239 214 239zM252 76c87 0 113 53 113 151c0 101 -27 152 -114 152c-85 0 -114 -51 -114 -150c0 -101 29 -153 115 -153z" />
<glyph unicode="&#x1edc;" horiz-adv-x="654" d="M222 870h84l64 -135h-74zM606 337c0 -200 -74 -348 -280 -348c-205 0 -278 148 -278 348c0 201 72 350 280 350c91 0 157 -30 201 -81l52 33c20 14 28 27 28 42s-13 24 -30 25c-26 -1 -44 -10 -52 -15l-4 61c10 5 37 18 71 18c63 0 101 -26 101 -74 c0 -31 -18 -57 -50 -76l-87 -50l-4 1c36 -61 52 -142 52 -234zM155 337c0 -153 36 -259 173 -259c135 0 172 106 172 259c0 155 -38 260 -172 260s-173 -105 -173 -260z" />
<glyph unicode="&#x1edd;" horiz-adv-x="503" d="M146 655h84l64 -135h-74zM253 466c76 0 129 -24 163 -66l46 29c20 14 28 27 28 42s-13 24 -30 25c-26 -1 -44 -10 -52 -15l-4 61c10 5 37 18 71 18c63 0 101 -26 101 -74c0 -31 -18 -57 -50 -76l-86 -50c16 -37 24 -81 24 -131c0 -141 -57 -240 -215 -240 c-151 0 -210 99 -210 238c0 141 57 239 214 239zM252 76c87 0 113 53 113 151c0 101 -27 152 -114 152c-85 0 -114 -51 -114 -150c0 -101 29 -153 115 -153z" />
<glyph unicode="&#x1ede;" horiz-adv-x="654" d="M296 849h-49c-8 74 45 92 88 92c63 0 102 -35 102 -80c0 -57 -49 -77 -78 -90v-36h-52v51c45 18 62 40 62 69c0 38 -64 59 -73 -6zM606 337c0 -200 -74 -348 -280 -348c-205 0 -278 148 -278 348c0 201 72 350 280 350c91 0 157 -30 201 -81l52 33c20 14 28 27 28 42 s-13 24 -30 25c-26 -1 -44 -10 -52 -15l-4 61c10 5 37 18 71 18c63 0 101 -26 101 -74c0 -31 -18 -57 -50 -76l-87 -50l-4 1c36 -61 52 -142 52 -234zM155 337c0 -153 36 -259 173 -259c135 0 172 106 172 259c0 155 -38 260 -172 260s-173 -105 -173 -260z" />
</font>
</defs>
</svg>
